<svg width="24" height="24" viewBox="0 0 24 24" fill="none" xmlns="http://www.w3.org/2000/svg">
<path d="M24.0002 12.0003C24.0002 5.37226 18.6275 3.2666e-10 12.0003 3.2666e-10C5.3727 -4.83719e-05 0 5.37217 0 12.0003C0 18.6274 5.3727 24 12.0003 24C18.6275 24 24.0002 18.6273 24.0002 12.0003Z" fill="#3774B5"/>
<path d="M17.9367 11.379L9.47401 6.18263C9.24298 6.04071 8.93896 6.03456 8.70242 6.16706C8.46158 6.30177 8.31201 6.55689 8.31201 6.83275V17.1844C8.31201 17.4598 8.46114 17.7147 8.70121 17.8496C8.81503 17.9135 8.94424 17.9473 9.07489 17.9473C9.21502 17.9473 9.35226 17.9088 9.47178 17.8359L17.9343 12.6806C18.1596 12.5434 18.2998 12.2943 18.3003 12.0305C18.3008 11.7667 18.1615 11.517 17.9367 11.379Z" fill="white"/>
</svg>
