<svg width="24" height="24" viewBox="0 0 24 24" fill="none" xmlns="http://www.w3.org/2000/svg">
<rect width="24" height="24" rx="12" fill="#DC4639"/>
<path fill-rule="evenodd" clip-rule="evenodd" d="M18.8751 10.6028H12.1479C12.1479 11.3024 12.1479 12.7015 12.1436 13.4011H16.0418C15.8925 14.1007 15.3628 15.0803 14.6145 15.5735C14.6145 15.5735 14.6131 15.5777 14.6116 15.577C13.6167 16.2339 12.3037 16.383 11.3288 16.1871C9.80069 15.8834 8.59134 14.7752 8.10031 13.3676C8.10317 13.3655 8.10532 13.3461 8.10746 13.3447C7.80012 12.4716 7.80012 11.3024 8.10746 10.6028H8.10675C8.50272 9.31689 9.74851 8.1437 11.2788 7.82258C12.5096 7.56163 13.8983 7.84412 14.9197 8.79978C15.0555 8.66686 16.7995 6.96408 16.9303 6.82555C13.4409 3.66541 7.85373 4.77706 5.7631 8.85789H5.76238C5.76238 8.85789 5.76311 8.85806 5.75882 8.86575C4.72458 10.8701 4.76747 13.2319 5.76596 15.1405C5.7631 15.1426 5.76096 15.1439 5.75882 15.146C6.66368 16.902 8.31045 18.2487 10.2946 18.7615C12.4024 19.3142 15.0848 18.9364 16.8817 17.3113L16.8838 17.3133C18.4062 15.9421 19.354 13.6062 18.8751 10.6028Z" fill="white"/>
</svg>
