<svg width="18" height="18" viewBox="0 0 18 18" fill="none" xmlns="http://www.w3.org/2000/svg">
<path d="M0.514573 0.514718C0.905097 0.124194 1.53826 0.124194 1.92879 0.514718L17.4851 16.0711C17.8757 16.4616 17.8757 17.0948 17.4851 17.4853C17.0946 17.8758 16.4614 17.8758 16.0709 17.4853L0.514573 1.92893C0.124049 1.53841 0.124048 0.905242 0.514573 0.514718Z" fill="currentColor"/>
<path d="M0.514573 17.4853C0.124049 17.0948 0.124049 16.4616 0.514573 16.0711L16.0709 0.514718C16.4614 0.124194 17.0946 0.124194 17.4851 0.514718C17.8757 0.905242 17.8757 1.53841 17.4851 1.92893L1.92879 17.4853C1.53826 17.8758 0.905098 17.8758 0.514573 17.4853Z" fill="currentColor"/>
</svg>
