<svg width="14" height="15" viewBox="0 0 14 15" fill="none" xmlns="http://www.w3.org/2000/svg">
<path d="M0 11.882C0 12.61 0.256667 13.226 0.77 13.73C1.28333 14.234 1.904 14.4907 2.632 14.5H11.382C12.1007 14.5 12.7167 14.2433 13.23 13.73C13.7433 13.2167 14 12.6007 14 11.882V3.132C14 2.56267 13.8367 2.054 13.51 1.606C13.1833 1.158 12.7633 0.845333 12.25 0.668V1.816C12.25 2.18 12.124 2.49267 11.872 2.754C11.62 3.01533 11.3073 3.14133 10.934 3.132C10.5607 3.12267 10.2527 2.99667 10.01 2.754C9.76733 2.51133 9.64133 2.19867 9.632 1.816V0.5H4.382V1.816C4.382 2.18 4.25133 2.49267 3.99 2.754C3.72867 3.01533 3.42067 3.14133 3.066 3.132C2.71133 3.12267 2.39867 2.99667 2.128 2.754C1.85733 2.51133 1.73133 2.19867 1.75 1.816V0.668C1.23667 0.854667 0.816667 1.16733 0.49 1.606C0.163333 2.04467 0 2.55333 0 3.132V11.882ZM1.75 11.882V4.882H12.25V11.882C12.25 12.1247 12.166 12.33 11.998 12.498C11.83 12.666 11.6247 12.75 11.382 12.75H2.632C2.38933 12.75 2.17933 12.666 2.002 12.498C1.82467 12.33 1.74067 12.1247 1.75 11.882ZM2.632 1.816C2.632 1.93733 2.674 2.04 2.758 2.124C2.842 2.208 2.94467 2.25 3.066 2.25C3.18733 2.25 3.29 2.208 3.374 2.124C3.458 2.04 3.5 1.93733 3.5 1.816V0.5H2.632V1.816ZM3.5 11H5.25V9.25H3.5V11ZM3.5 8.382H5.25V6.632H3.5V8.382ZM6.132 11H7.882V9.25H6.132V11ZM6.132 8.382H7.882V6.632H6.132V8.382ZM8.75 11H10.5V9.25H8.75V11ZM8.75 8.382H10.5V6.632H8.75V8.382ZM10.5 1.816C10.5 1.93733 10.542 2.04 10.626 2.124C10.71 2.208 10.8127 2.25 10.934 2.25C11.0553 2.25 11.158 2.208 11.242 2.124C11.326 2.04 11.3727 1.93733 11.382 1.816V0.5H10.5V1.816Z" fill="currentColor"/>
</svg>
