<svg width="16" height="17" viewBox="0 0 16 17" fill="none" xmlns="http://www.w3.org/2000/svg">
<path d="M5.78025 9.3271C5.78025 9.12667 5.614 8.9643 5.40885 8.9643H4.11281C3.9079 8.9643 3.74161 9.12667 3.74161 9.3271V10.5942C3.74161 10.7949 3.9079 10.9574 4.11281 10.9574H5.40885C5.614 10.9574 5.78025 10.7949 5.78025 10.5942V9.3271Z" fill="currentColor"/>
<path d="M9.01924 9.3271C9.01924 9.12667 8.85294 8.9643 8.64821 8.9643H7.352C7.14709 8.9643 6.9808 9.12667 6.9808 9.3271V10.5942C6.9808 10.7949 7.14709 10.9574 7.352 10.9574H8.64821C8.85294 10.9574 9.01924 10.7949 9.01924 10.5942V9.3271Z" fill="currentColor"/>
<path d="M12.2584 9.3271C12.2584 9.12667 12.0921 8.9643 11.8872 8.9643H10.5911C10.386 8.9643 10.2197 9.12667 10.2197 9.3271V10.5942C10.2197 10.7949 10.386 10.9574 10.5911 10.9574H11.8872C12.0921 10.9574 12.2584 10.7949 12.2584 10.5942V9.3271Z" fill="currentColor"/>
<path d="M5.78025 12.4946C5.78025 12.2938 5.614 12.1316 5.40885 12.1316H4.11281C3.9079 12.1316 3.74161 12.2938 3.74161 12.4946V13.7615C3.74161 13.9621 3.9079 14.1245 4.11281 14.1245H5.40885C5.614 14.1245 5.78025 13.962 5.78025 13.7615V12.4946Z" fill="currentColor"/>
<path d="M9.01924 12.4946C9.01924 12.2938 8.85294 12.1316 8.64821 12.1316H7.352C7.14709 12.1316 6.9808 12.2938 6.9808 12.4946V13.7615C6.9808 13.9621 7.14709 14.1245 7.352 14.1245H8.64821C8.85294 14.1245 9.01924 13.962 9.01924 13.7615V12.4946Z" fill="currentColor"/>
<path d="M12.2584 12.4946C12.2584 12.2938 12.0921 12.1316 11.8874 12.1316H10.5911C10.386 12.1316 10.2197 12.2938 10.2197 12.4946V13.7615C10.2197 13.9621 10.386 14.1245 10.5911 14.1245H11.8874C12.0921 14.1245 12.2584 13.962 12.2584 13.7615V12.4946Z" fill="currentColor"/>
<path d="M14.5758 2.28154V4.217C14.5758 5.09181 13.8501 5.79677 12.9556 5.79677H11.9334C11.0389 5.79677 10.3035 5.09181 10.3035 4.217V2.27459H5.69652V4.217C5.69652 5.09181 4.96116 5.79677 4.06672 5.79677H3.0444C2.14993 5.79677 1.42419 5.09181 1.42419 4.217V2.28154C0.642407 2.30458 0 2.93714 0 3.71463V15.0573C0 15.8495 0.656586 16.5 1.46666 16.5H14.5333C15.3422 16.5 16 15.8481 16 15.0573V3.71463C16 2.93714 15.3576 2.30458 14.5758 2.28154ZM14.1011 14.351C14.1011 14.6933 13.8173 14.971 13.467 14.971H2.50503C2.15482 14.971 1.87097 14.6933 1.87097 14.351V8.49208C1.87097 8.14963 2.15479 7.87192 2.50503 7.87192H13.467C13.8172 7.87192 14.1011 8.14963 14.1011 8.49208L14.1011 14.351Z" fill="currentColor"/>
<path d="M3.04081 4.75916H4.05184C4.35871 4.75916 4.60753 4.51622 4.60753 4.21615V1.04321C4.60753 0.743104 4.35871 0.5 4.05184 0.5H3.04081C2.73391 0.5 2.48512 0.743104 2.48512 1.04321V4.21615C2.48512 4.51622 2.73391 4.75916 3.04081 4.75916Z" fill="currentColor"/>
<path d="M11.9204 4.75916H12.9315C13.2381 4.75916 13.487 4.51622 13.487 4.21615V1.04321C13.487 0.743104 13.2382 0.5 12.9315 0.5H11.9204C11.6136 0.5 11.3648 0.743104 11.3648 1.04321V4.21615C11.3648 4.51622 11.6136 4.75916 11.9204 4.75916Z" fill="currentColor"/>
</svg>
