<svg width="28" height="28" viewBox="0 0 28 28" fill="none" xmlns="http://www.w3.org/2000/svg">
<path d="M28 13.7233C28 13.5834 27.8862 13.4675 27.7462 13.4609C22.7231 13.2706 19.666 12.6299 17.5273 10.491C15.3842 8.34773 14.7457 5.28814 14.5554 0.253691C14.551 0.113723 14.4352 0 14.293 0H13.7069C13.567 0 13.4511 0.113723 13.4445 0.253691C13.2543 5.28595 12.6157 8.34773 10.4726 10.491C8.33176 12.632 5.27677 13.2706 0.25367 13.4609C0.113714 13.4653 0 13.5812 0 13.7233V14.3095C0 14.4494 0.113714 14.5653 0.25367 14.5719C5.27677 14.7622 8.33394 15.4029 10.4726 17.5418C12.6113 19.6807 13.2499 22.7316 13.4423 27.7462C13.4467 27.8862 13.5626 28 13.7047 28H14.293C14.433 28 14.5489 27.8862 14.5554 27.7462C14.7479 22.7316 15.3864 19.6807 17.5251 17.5418C19.666 15.4008 22.7209 14.7622 27.7441 14.5719C27.8841 14.5675 27.9978 14.4516 27.9978 14.3095V13.7233H28Z" fill="currentColor"/>
</svg>
