<svg width="18" height="14" viewBox="0 0 18 14" fill="none" xmlns="http://www.w3.org/2000/svg">
<path fill-rule="evenodd" clip-rule="evenodd" d="M3.57122 3.78585e-07H14.4288C14.8235 -8.37141e-06 15.1642 -1.72015e-05 15.4462 0.0186815C15.743 0.0383778 16.0399 0.0816905 16.3333 0.199816C16.9948 0.466236 17.5205 0.977262 17.7944 1.62046C17.9159 1.90565 17.9605 2.19432 17.9808 2.48292C18 2.75702 18 3.08819 18 3.47201V10.528C18 10.9118 18 11.243 17.9808 11.5171C17.9605 11.8057 17.9159 12.0943 17.7944 12.3796C17.5205 13.0227 16.9948 13.5338 16.3333 13.8002C16.0399 13.9183 15.743 13.9616 15.4462 13.9814C15.1642 14 14.8235 14 14.4288 14H3.57121C3.17642 14 2.83579 14 2.55386 13.9814C2.25701 13.9616 1.96009 13.9183 1.66676 13.8002C1.00518 13.5338 0.479556 13.0227 0.205524 12.3796C0.0840243 12.0943 0.0394743 11.8057 0.0192153 11.5171C-1.76929e-05 11.243 -8.6106e-06 10.9118 3.89402e-07 10.528V3.47202C-8.6106e-06 3.0882 -1.76929e-05 2.75702 0.0192153 2.48292C0.0394743 2.19432 0.0840243 1.90565 0.205524 1.62046C0.479556 0.977262 1.00518 0.466236 1.66676 0.199816C1.96009 0.0816905 2.25701 0.0383778 2.55386 0.0186815C2.83579 -1.72015e-05 3.17643 -8.37141e-06 3.57122 3.78585e-07ZM2.08571 1.99305C2.41303 1.62937 2.98161 1.59252 3.35569 1.91074L8.40735 6.20813C8.74665 6.49679 9.25335 6.49679 9.59265 6.20813L14.6444 1.91074C15.0184 1.59252 15.587 1.62937 15.9143 1.99305C16.2416 2.35673 16.2037 2.90952 15.8296 3.22774L10.778 7.52517C9.75996 8.39116 8.24004 8.39116 7.22205 7.52517L2.17038 3.22774C1.7963 2.90952 1.75839 2.35673 2.08571 1.99305Z" fill="currentColor"/>
</svg>
