<svg width="20" height="20" viewBox="0 0 20 20" fill="none" xmlns="http://www.w3.org/2000/svg">
<path d="M9.69482 0.0717069C9.88935 -0.0268176 10.1117 -0.0207839 10.2951 0.0712186C10.3019 0.0745982 10.3087 0.0781611 10.3154 0.0817969C10.3169 0.0826222 10.3185 0.0834008 10.32 0.0842381L10.3307 0.0899341L19.6641 5.4227C19.8718 5.54138 20 5.76228 20 6.00149C20 6.23322 19.8797 6.44773 19.6833 6.56881L19.6641 6.58029L17.1746 8.00266L19.6597 9.42243C19.8674 9.54109 19.9956 9.76196 19.9956 10.0011C19.9956 10.2403 19.8674 10.4612 19.6597 10.5799L17.175 12.0003L19.664 13.4218C19.8717 13.5405 20 13.7613 20 14.0006C20 14.2398 19.8718 14.4607 19.6641 14.5794L10.3307 19.9122C10.1258 20.0293 9.87421 20.0293 9.66927 19.9122L0.335938 14.5794C0.128204 14.4607 -2.12978e-05 14.2398 2.14027e-08 14.0006C3.14614e-05 13.7613 0.128275 13.5405 0.336019 13.4218L2.82341 12.0011L0.335938 10.5799C0.12817 10.4611 -6.04841e-05 10.2402 2.14027e-08 10.0009C6.7016e-05 9.76162 0.128424 9.5407 0.336263 9.4221L2.82446 8.00217L0.335938 6.58029C0.128271 6.46163 5.63097e-05 6.24081 2.14027e-08 6.00165C-4.48912e-05 5.76249 0.128062 5.5416 0.335693 5.42286L9.66463 0.0879812L9.69482 0.0717069ZM10.3309 15.9125C10.1259 16.0297 9.87426 16.0297 9.66927 15.9126L4.16724 12.7689L2.0105 14.0007L10 18.5656L17.9893 14.0007L15.8314 12.7683L10.3309 15.9125ZM2.01099 10.0014L4.45597 11.3984C4.48647 11.4129 4.51595 11.4296 4.54411 11.4487L9.99984 14.566L15.4721 11.438C15.4898 11.4267 15.508 11.4163 15.5267 11.4068L17.9854 10.0013L15.8308 8.7704L10.3307 11.913C10.1258 12.0301 9.87421 12.0301 9.66927 11.913L4.16862 8.77016L2.01099 10.0014ZM2.00993 6.00117L4.48372 7.41467C4.49625 7.42135 4.50864 7.42833 4.52075 7.43583L10 10.5664L15.4823 7.43395C15.493 7.42746 15.5038 7.42135 15.5147 7.41548L17.9896 6.00149L9.99601 1.43419L2.00993 6.00117Z" fill="currentColor"/>
</svg>
