<svg width="16" height="18" viewBox="0 0 16 18" fill="none" xmlns="http://www.w3.org/2000/svg">
<path d="M4.68612 18C3.95983 18.0005 3.24972 17.7901 2.64566 17.3954C2.0416 17.0007 1.57076 16.4394 1.29275 15.7827C1.01473 15.1259 0.942046 14.4031 1.08389 13.7059C1.22573 13.0086 1.57572 12.3683 2.08956 11.8658L7.28268 6.78246C7.51223 6.55777 7.82356 6.43155 8.14819 6.43155C8.47281 6.43156 8.78414 6.5578 9.01368 6.78249C9.24323 7.00718 9.37218 7.31193 9.37218 7.6297C9.37219 7.94746 9.24324 8.25221 9.0137 8.47691L3.8206 13.5602C3.70603 13.6713 3.615 13.8034 3.55275 13.949C3.49051 14.0946 3.45826 14.2508 3.45786 14.4087C3.45747 14.5665 3.48894 14.7228 3.55046 14.8687C3.61198 15.0146 3.70234 15.1472 3.81635 15.2588C3.93037 15.3704 4.06578 15.4589 4.21482 15.5191C4.36386 15.5793 4.52359 15.6101 4.68483 15.6097C4.84607 15.6094 5.00565 15.5778 5.15439 15.5169C5.30313 15.4559 5.43811 15.3668 5.55157 15.2547L12.4758 8.47691C12.8169 8.1432 13.0875 7.74696 13.2721 7.31086C13.4567 6.87475 13.5517 6.40731 13.5517 5.93524C13.5517 5.46317 13.4567 4.99573 13.2721 4.55963C13.0875 4.12352 12.8169 3.72729 12.4758 3.39357C11.7764 2.73957 10.8464 2.37462 9.87923 2.37462C8.91202 2.37462 7.98204 2.73957 7.28268 3.39357L2.08956 8.47691C1.9759 8.58817 1.84096 8.67643 1.69245 8.73665C1.54395 8.79687 1.38478 8.82786 1.22403 8.82786C1.06329 8.82786 0.904119 8.79687 0.755611 8.73666C0.607103 8.67644 0.472165 8.58819 0.358503 8.47692C0.244841 8.36566 0.154679 8.23358 0.0931672 8.08821C0.0316551 7.94284 -3.16874e-06 7.78703 2.3782e-10 7.62968C3.16921e-06 7.47234 0.0316675 7.31653 0.0931855 7.17116C0.154703 7.0258 0.24487 6.89371 0.358537 6.78246L5.55157 1.69912C7.86845 -0.566372 11.8995 -0.566372 14.2068 1.69912C14.7753 2.25531 15.2263 2.91569 15.5339 3.64254C15.8416 4.36939 16 5.14846 16 5.93524C16 6.72202 15.8416 7.50109 15.5339 8.22794C15.2263 8.95479 14.7753 9.61517 14.2068 10.1714L7.28268 16.9492C6.94179 17.2829 6.53696 17.5476 6.09139 17.7279C5.64582 17.9082 5.16827 18.0007 4.68612 18Z" fill="currentColor"/>
</svg>
