<svg width="20" height="20" viewBox="0 0 20 20" fill="none" xmlns="http://www.w3.org/2000/svg">
<path fill-rule="evenodd" clip-rule="evenodd" d="M17 14C18.6569 14 20 15.3431 20 17C20 18.6569 18.6569 20 17 20C15.6883 20 14.5756 19.1573 14.168 17.9844C14.1133 17.9936 14.0573 18 14 18H1C0.447715 18 0 17.5523 0 17C0 16.4477 0.447715 16 1 16H14C14.0573 16 14.1133 16.0054 14.168 16.0146C14.5759 14.8422 15.6886 14 17 14ZM17 16C16.4477 16 16 16.4477 16 17C16 17.5523 16.4477 18 17 18C17.5523 18 18 17.5523 18 17C18 16.4477 17.5523 16 17 16Z" fill="currentColor"/>
<path fill-rule="evenodd" clip-rule="evenodd" d="M3 7C4.3113 7 5.42308 7.84236 5.83105 9.01465C5.886 9.0053 5.94239 9 6 9H19C19.5523 9 20 9.44772 20 10C20 10.5523 19.5523 11 19 11H6C5.94234 11 5.88605 10.9937 5.83105 10.9844C5.42333 12.1571 4.31162 13 3 13C1.34315 13 0 11.6569 0 10C0 8.34315 1.34315 7 3 7ZM3 9C2.44772 9 2 9.44772 2 10C2 10.5523 2.44772 11 3 11C3.55228 11 4 10.5523 4 10C4 9.44772 3.55228 9 3 9Z" fill="currentColor"/>
<path fill-rule="evenodd" clip-rule="evenodd" d="M17 0C18.6569 0 20 1.34315 20 3C20 4.65685 18.6569 6 17 6C15.6883 6 14.5756 5.15728 14.168 3.98438C14.1133 3.99364 14.0573 4 14 4H1C0.447715 4 0 3.55228 0 3C0 2.44772 0.447715 2 1 2H14C14.0573 2 14.1133 2.0054 14.168 2.01465C14.5759 0.842199 15.6886 0 17 0ZM17 2C16.4477 2 16 2.44772 16 3C16 3.55228 16.4477 4 17 4C17.5523 4 18 3.55228 18 3C18 2.44772 17.5523 2 17 2Z" fill="currentColor"/>
</svg>
