<svg width="20" height="20" viewBox="0 0 20 20" fill="none" xmlns="http://www.w3.org/2000/svg">
<path d="M16.6042 7.53092C16.6412 7.24711 16.6667 6.96004 16.6667 6.66667C16.6667 2.99093 13.6757 0 10 0C6.32426 0 3.33333 2.99093 3.33333 6.66667C3.33333 6.96004 3.35876 7.24711 3.39579 7.53092C1.37166 8.67635 0 10.8462 0 13.3333C0 17.0091 2.99093 20 6.66667 20C7.88167 20 9.01794 19.668 10 19.0979C10.9821 19.668 12.1183 20 13.3333 20C17.0091 20 20 17.0091 20 13.3333C20 10.8462 18.6283 8.67635 16.6042 7.53092ZM5 6.66667C5 3.90951 7.24284 1.66667 10 1.66667C12.7572 1.66667 15 3.90951 15 6.66667C15 6.7395 14.9921 6.81091 14.9892 6.88334C14.4588 6.74703 13.9058 6.66667 13.3333 6.66667C12.1183 6.66667 10.9821 6.9987 10 7.56877C9.01794 6.9987 7.88167 6.66667 6.66667 6.66667C6.09416 6.66667 5.54118 6.74703 5.01078 6.88334C5.00793 6.81091 5 6.7395 5 6.66667ZM11.6667 13.3333C11.6667 14.8092 11.0201 16.1338 10 17.0496C8.9799 16.1338 8.33333 14.8092 8.33333 13.3333C8.33333 13.2605 8.34127 13.1891 8.34412 13.1167C8.87451 13.253 9.42749 13.3333 10 13.3333C10.5725 13.3333 11.1255 13.253 11.6559 13.1167C11.6587 13.1891 11.6667 13.2605 11.6667 13.3333ZM10 11.6667C9.5463 11.6667 9.10909 11.6003 8.6908 11.487C8.97868 10.7654 9.43075 10.1284 10 9.61711C10.5693 10.128 11.0209 10.765 11.3092 11.487C10.8909 11.6003 10.4537 11.6667 10 11.6667ZM7.17407 10.7876C6.36332 10.2299 5.72713 9.43909 5.35746 8.51298C5.77576 8.39966 6.21297 8.33333 6.66667 8.33333C7.33215 8.33333 7.9659 8.46659 8.54716 8.70341C7.96794 9.30216 7.49837 10.0067 7.17407 10.7876ZM11.4528 8.70341C12.0341 8.46659 12.6678 8.33333 13.3333 8.33333C13.787 8.33333 14.2242 8.39966 14.6425 8.51298C14.2729 9.43868 13.6367 10.2295 12.8259 10.7876C12.5016 10.0067 12.0321 9.30216 11.4528 8.70341ZM1.66667 13.3333C1.66667 11.6246 2.52909 10.1145 3.84074 9.21244C4.41366 10.5933 5.43823 11.7391 6.72913 12.4695C6.6921 12.7529 6.66667 13.04 6.66667 13.3333C6.66667 15.1316 7.38546 16.7629 8.54716 17.9633C7.9659 18.2001 7.33215 18.3333 6.66667 18.3333C3.90951 18.3333 1.66667 16.0905 1.66667 13.3333ZM13.3333 18.3333C12.6678 18.3333 12.0341 18.2001 11.4528 17.9633C12.6145 16.7629 13.3333 15.1316 13.3333 13.3333C13.3333 13.04 13.3079 12.7529 13.2709 12.4691C14.5612 11.7387 15.5863 10.5933 16.1593 9.21244C17.4709 10.1145 18.3333 11.6246 18.3333 13.3333C18.3333 16.0905 16.0905 18.3333 13.3333 18.3333Z" fill="currentColor"/>
</svg>
