<svg width="18" height="18" viewBox="0 0 18 18" fill="none" xmlns="http://www.w3.org/2000/svg">
<path d="M8.35941 6.92889L10.3675 4.89514C10.5434 4.71916 10.7443 4.49337 10.9451 4.24186C11.1459 4.01607 11.3716 3.81519 11.5981 3.63921C12.0246 3.26235 12.5267 2.93612 13.1548 2.93612C13.7074 2.93612 14.1838 3.18763 14.5356 3.51386C14.8874 3.8401 15.0882 4.3174 15.0882 4.87023C15.0882 5.09602 15.0633 5.34753 14.9878 5.5235C14.8119 5.87545 14.6617 6.12615 14.5107 6.32704C14.4352 6.42748 14.3597 6.52792 14.3597 6.62836C14.3597 6.7039 14.3597 6.77943 14.4103 6.80434C14.6866 7.48252 14.8874 8.06026 15.0127 8.76336C15.0882 9.03977 15.2384 9.16513 15.4898 9.16513C15.5903 9.16513 15.6907 9.14022 15.7911 9.06468C15.9919 8.93933 16.1678 8.73845 16.3437 8.53757C16.4441 8.43712 16.5196 8.33668 16.5694 8.28606C17.4731 7.40699 18 6.15187 18 4.87103C18 3.51466 17.4474 2.30936 16.5694 1.4311C15.6907 0.576939 14.4609 0 13.1556 0C11.8503 0 10.5949 0.527119 9.7169 1.45681L6.27819 4.87184C5.37454 5.80072 4.87251 7.00603 4.87251 8.28686C4.87251 8.66372 5.02352 9.44235 5.27413 10.1704C5.52555 10.8734 5.85167 11.501 6.27819 11.501C6.5039 11.501 6.98104 11.1241 7.38266 10.6975C7.78428 10.2708 8.18591 9.79349 8.18591 9.61752C8.18591 9.49217 8.0855 9.3411 7.9851 9.11531C7.85979 8.88951 7.80918 8.6131 7.80918 8.28686C7.80918 7.78465 8.01 7.28244 8.36182 6.93049L8.35941 6.92889ZM8.28471 16.5713L11.7234 13.1563C12.6271 12.2772 13.1291 10.9964 13.1291 9.71635C13.1291 9.33949 12.9781 8.58658 12.7275 7.85777C12.5018 7.15468 12.1499 6.50141 11.7234 6.50141C11.5475 6.50141 11.0206 6.90317 10.6438 7.32985C10.2173 7.75653 9.8157 8.20892 9.8157 8.38489C9.8157 8.51024 9.8912 8.71113 10.0165 8.91201C10.1418 9.13781 10.2422 9.38931 10.2422 9.71555C10.2173 10.2178 10.0165 10.72 9.66469 11.1217L7.63167 13.1306C7.45576 13.3315 7.25494 13.5323 7.05413 13.7581L6.42679 14.3857C6.00027 14.7875 5.47253 15.0639 4.8452 15.0639C3.79053 15.0639 2.93748 14.2354 2.93748 13.1555C2.93748 12.904 2.98809 12.6782 3.06279 12.5022C3.2138 12.1503 3.36401 11.8996 3.53992 11.6987C3.61542 11.5982 3.64032 11.4978 3.64032 11.4223C3.64032 11.3716 3.61542 11.3218 3.58972 11.2214C3.2885 10.5432 3.11259 9.96545 2.98728 9.26235C2.93668 9.137 2.91178 9.03656 2.83627 8.98594C2.76077 8.8855 2.63546 8.86059 2.51015 8.86059C2.40975 8.86059 2.33424 8.8855 2.23383 8.96103C2.03302 9.08638 1.83221 9.28726 1.6563 9.48815C1.58079 9.58859 1.48039 9.66412 1.43059 9.71394C0.526931 10.6179 0 11.8738 0 13.1539C0 14.4845 0.526931 15.7155 1.43059 16.5938C2.30934 17.4729 3.51421 18 4.84439 18C6.14967 18 7.40515 17.4978 8.2831 16.5689L8.28471 16.5713Z" fill="currentColor"/>
</svg>
