<svg width="16" height="17" viewBox="0 0 16 17" fill="none" xmlns="http://www.w3.org/2000/svg">
<path d="M8 16C7.26316 16 8.13484 14.8984 4.50221 13.1849C4.30319 13.0908 4.11007 12.986 3.92379 12.8709C2.11632 11.7574 1 9.72093 1 7.52884C1 3.92326 4.13379 1 8 1C11.8662 1 15 3.92326 15 7.52814C15 9.94349 13.6413 12.1726 11.5037 13.1821C7.86737 14.8977 8.73684 16 8 16ZM8 10.1465C9.55547 10.1465 10.8 8.98 10.8 7.56163C10.8 6.14326 9.55547 4.97674 8 4.97674C6.44453 4.97674 5.2 6.14326 5.2 7.56163C5.2 8.98 6.44453 10.1465 8 10.1465Z" fill="currentColor"/>
</svg>
