<svg width="21" height="20" viewBox="0 0 21 20" fill="none" xmlns="http://www.w3.org/2000/svg">
<path d="M13.1516 13.466L12.6902 13.9516C12.6902 13.9516 11.5938 15.1058 8.60093 11.9553C5.60811 8.80491 6.70455 7.65071 6.70455 7.65071L6.99504 7.34493C7.71067 6.59164 7.77812 5.38225 7.15377 4.49935L5.87664 2.69328C5.10389 1.60051 3.61069 1.45615 2.72498 2.3885L1.13528 4.06192C0.696105 4.52422 0.401804 5.1235 0.437496 5.7883C0.5288 7.48908 1.25566 11.1484 5.3116 15.4179C9.61272 19.9455 13.6485 20.1255 15.2988 19.9626C15.8208 19.9111 16.2748 19.6297 16.6406 19.2446L18.0794 17.73C19.0506 16.7078 18.7767 14.9551 17.5341 14.24L15.5991 13.1264C14.7832 12.6568 13.7892 12.7947 13.1516 13.466Z" fill="currentColor"/>
<path d="M10.8255 0.637805C10.8925 0.223739 11.284 -0.0571417 11.6981 0.00988619C11.7237 0.0147976 11.8063 0.0302102 11.8494 0.0398305C11.9359 0.0590811 12.0564 0.0887014 12.2067 0.132479C12.5073 0.220013 12.9272 0.364226 13.4312 0.595243C14.4403 1.05779 15.783 1.8669 17.1765 3.26011C18.5699 4.65333 19.3791 5.99592 19.8417 7.00481C20.0728 7.50873 20.217 7.92858 20.3045 8.22912C20.3483 8.37941 20.3779 8.49994 20.3972 8.58634C20.4068 8.62955 20.4139 8.66425 20.4188 8.68988L20.4246 8.72147C20.4916 9.1355 20.2133 9.5432 19.7991 9.61023C19.3862 9.67707 18.9972 9.39747 18.9285 8.98542C18.9264 8.97428 18.9205 8.94461 18.9143 8.91656C18.9018 8.86046 18.8802 8.77153 18.846 8.6539C18.7774 8.41863 18.6584 8.06893 18.4607 7.63786C18.0659 6.77678 17.3559 5.58774 16.1022 4.3342C14.8485 3.08067 13.6593 2.37081 12.7981 1.97604C12.3669 1.77841 12.0172 1.6594 11.7818 1.59086C11.6643 1.5566 11.5164 1.52267 11.4603 1.51018C11.0481 1.44149 10.7586 1.05069 10.8255 0.637805Z" fill="currentColor"/>
<path fill-rule="evenodd" clip-rule="evenodd" d="M11.0546 4.13094C11.1698 3.72762 11.5902 3.49408 11.9936 3.60931L11.785 4.33959C11.9936 3.60931 11.9936 3.60931 11.9936 3.60931L11.9951 3.60974L12 3.61116L12.0079 3.61351L12.028 3.61975C12.0432 3.62463 12.0623 3.63099 12.085 3.63906C12.1305 3.6552 12.1906 3.67815 12.2644 3.70975C12.4119 3.77298 12.6135 3.87062 12.8612 4.01716C13.3569 4.31051 14.0336 4.79778 14.8287 5.59268C15.6237 6.3876 16.111 7.06424 16.4044 7.5599C16.551 7.80751 16.6486 8.00909 16.7119 8.15662C16.7435 8.23034 16.7665 8.29046 16.7826 8.33593C16.7907 8.35867 16.797 8.37774 16.8019 8.39301L16.8081 8.41305L16.8104 8.4209L16.8114 8.42427L16.8119 8.42583C16.8119 8.42583 16.8124 8.42729 16.0819 8.63593L16.8124 8.42729C16.9276 8.8306 16.694 9.25094 16.2907 9.36618C15.8907 9.48041 15.4739 9.25185 15.3545 8.85482L15.3508 8.8439C15.3454 8.82868 15.3343 8.79873 15.3155 8.75498C15.2781 8.66755 15.2101 8.52453 15.0971 8.33355C14.8712 7.95204 14.4634 7.37559 13.7544 6.66677C13.0455 5.95796 12.4689 5.55016 12.0874 5.32437C11.8964 5.21134 11.7534 5.14339 11.6659 5.10592C11.6221 5.08717 11.5922 5.07599 11.577 5.0706L11.566 5.06686C11.169 4.94749 10.9403 4.53083 11.0546 4.13094Z" fill="currentColor"/>
</svg>
