<svg width="16" height="16" viewBox="0 0 16 16" fill="none" xmlns="http://www.w3.org/2000/svg">
<path d="M1.00116 5.80929C0.984243 6.11163 1.15342 6.39335 1.42852 6.51988L6.94815 9.05185L9.47996 14.5711C9.60059 14.833 9.86245 15 10.1486 15L10.1905 14.9985C10.3381 14.9903 10.4799 14.9377 10.5972 14.8477C10.7145 14.7577 10.8019 14.6344 10.8481 14.4939L14.9636 1.96499C15.0496 1.70164 14.9805 1.41108 14.7848 1.21467C14.5892 1.01826 14.2994 0.951319 14.0346 1.03591L1.50576 5.15239C1.36526 5.19828 1.24189 5.28556 1.15185 5.40278C1.0618 5.52 1.00928 5.6617 1.00116 5.80929Z" fill="currentColor"/>
</svg>
