<svg width="16" height="16" viewBox="0 0 16 16" fill="none" xmlns="http://www.w3.org/2000/svg">
<path d="M8 0C6.15089 0 4.45008 0.665739 3.10492 1.76565C2.93587 1.90388 2.71943 1.86702 2.61395 1.674L2.30366 1.10625C1.94448 0.447901 0.972813 0.614438 0.844305 1.35623L0.0119266 6.16407C-0.0308604 6.41168 0.0428304 6.66474 0.211219 6.84845C0.392484 7.04634 0.659397 7.13761 0.920976 7.09062L5.63932 6.24218C6.3671 6.1112 6.53049 5.12078 5.8846 4.75467L5.38304 4.47076C5.19357 4.36351 5.17547 4.16198 5.35416 4.03707C6.10545 3.51166 7.01134 3.19999 8 3.19999C9.86832 3.19999 11.4612 4.29597 12.2278 5.88282C12.6104 6.67599 13.5514 7.00269 14.3295 6.6125C15.107 6.22197 15.4268 5.26295 15.0438 4.47031C13.7634 1.81992 11.0785 0 8 0Z" fill="currentColor"/>
<path d="M8 16C9.84911 16 11.5499 15.3343 12.8951 14.2343C13.0641 14.0961 13.2806 14.133 13.386 14.326L13.6963 14.8937C14.0555 15.5521 15.0272 15.3856 15.1557 14.6437L15.9881 9.83593C16.0309 9.58832 15.9572 9.33527 15.7888 9.15155C15.6075 8.95366 15.3406 8.86239 15.079 8.90938L10.3607 9.75782C9.6329 9.8888 9.46951 10.8792 10.1154 11.2453L10.617 11.5292C10.8064 11.6365 10.8245 11.838 10.6458 11.9629C9.89455 12.4883 8.98866 12.8 8 12.8C6.13168 12.8 4.53878 11.704 3.77218 10.1172C3.3896 9.32401 2.44858 8.99731 1.67054 9.3875C0.892979 9.77803 0.573198 10.7371 0.956184 11.5297C2.23663 14.1801 4.92147 16 8 16Z" fill="currentColor"/>
</svg>
