<svg width="28" height="26" viewBox="0 0 28 26" fill="none" xmlns="http://www.w3.org/2000/svg">
<path d="M14.7518 15.6169H4.39307V11.382H14.7518C15.3568 11.382 15.7776 11.4909 15.9887 11.6812C16.1999 11.8715 16.3307 12.2244 16.3307 12.7399V14.2606C16.3307 14.8037 16.1999 15.1567 15.9887 15.3469C15.7776 15.5372 15.3568 15.6185 14.7518 15.6185V15.6169ZM15.4624 7.38939H0V25.5H4.39307V19.6079H12.489L16.3307 25.5H21.25L17.0145 19.5802C18.576 19.3411 19.2772 18.8468 19.8555 18.032C20.4338 17.2172 20.7237 15.9145 20.7237 14.176V12.818C20.7237 11.7869 20.6182 10.9721 20.4338 10.3477C20.2494 9.72314 19.9343 9.17995 19.4868 8.69207C19.0141 8.23018 18.4878 7.90492 17.8559 7.68699C17.2241 7.49671 16.4346 7.38775 15.4624 7.38775V7.38939Z" fill="currentColor"/>
<path d="M24.625 7.38775C26.489 7.38775 28 5.84587 28 3.94388C28 2.04188 26.489 0.5 24.625 0.5C22.761 0.5 21.25 2.04188 21.25 3.94388C21.25 5.84587 22.761 7.38775 24.625 7.38775Z" fill="currentColor"/>
</svg>
