<svg width="17" height="16" viewBox="0 0 17 16" fill="none" xmlns="http://www.w3.org/2000/svg">
<path d="M15.6571 13.8661L13.0996 11.3087C13.9158 10.1446 14.3959 8.72766 14.3982 7.19856C14.4041 3.28293 11.2447 0.064211 7.32957 0.00096092C3.26588 -0.0646954 -0.041502 3.24271 0.0241543 7.30637C0.0874043 11.2215 3.30613 14.3809 7.22176 14.375C8.75085 14.3727 10.1678 13.8926 11.3319 13.0764L13.8893 15.6339C14.3775 16.122 15.169 16.122 15.6571 15.6339C16.1452 15.1457 16.1452 14.3543 15.6571 13.8661ZM7.21069 11.875C4.626 11.875 2.52319 9.77219 2.52319 7.1875C2.52319 4.60281 4.626 2.49999 7.21069 2.49999C9.79538 2.49999 11.8982 4.60281 11.8982 7.1875C11.8982 9.77219 9.79538 11.875 7.21069 11.875Z" fill="currentColor"/>
</svg>
