<svg width="15" height="15" viewBox="0 0 15 15" fill="none" xmlns="http://www.w3.org/2000/svg">
<path d="M6.72764 0.947287C7.06107 0.350905 7.93893 0.350904 8.27236 0.947286L10.0407 4.11025C10.1672 4.33658 10.3914 4.49542 10.6511 4.54287L14.2814 5.20602C14.9659 5.33106 15.2371 6.14548 14.7587 6.6391L12.2214 9.25707C12.0398 9.4444 11.9542 9.70142 11.9882 9.95707L12.4635 13.5299C12.5531 14.2035 11.8429 14.7069 11.2138 14.4156L7.87726 12.8706C7.63852 12.7601 7.36148 12.7601 7.12274 12.8706L3.78623 14.4156C3.15712 14.7069 2.44691 14.2035 2.53652 13.5299L3.01178 9.95707C3.04579 9.70142 2.96018 9.4444 2.77862 9.25707L0.241286 6.63911C-0.237134 6.14548 0.0341414 5.33106 0.718629 5.20602L4.34887 4.54287C4.60863 4.49542 4.83276 4.33658 4.95929 4.11025L6.72764 0.947287Z" fill="currentColor"/>
</svg>
