<svg width="14" height="14" viewBox="0 0 14 14" fill="none" xmlns="http://www.w3.org/2000/svg">
<path d="M4.375 14H2.8C1.48007 14 0.820099 14 0.410053 13.5899C-4.00543e-08 13.1799 0 12.5199 0 11.2V9.625H2.1C2.38995 9.625 2.625 9.38995 2.625 9.1C2.625 8.81005 2.38995 8.575 2.1 8.575H0V7.525H1.4C1.68995 7.525 1.925 7.28994 1.925 7C1.925 6.71006 1.68995 6.475 1.4 6.475H0V5.425H2.1C2.38995 5.425 2.625 5.18994 2.625 4.9C2.625 4.61006 2.38995 4.375 2.1 4.375H0V3.325H1.4C1.68995 3.325 1.925 3.08994 1.925 2.8C1.925 2.51006 1.68995 2.275 1.4 2.275H5.60761e-05C0.000882076 1.40728 0.014434 0.95368 0.235942 0.62223C0.338086 0.46935 0.469336 0.338099 0.622202 0.23597C0.975317 -9.53674e-07 1.46688 0 2.45 0C3.43312 0 3.92468 -9.53674e-07 4.2778 0.23597C4.43066 0.338099 4.56191 0.46935 4.66406 0.62223C4.9 0.97531 4.9 1.46685 4.9 2.45V7.7C4.9 8.35996 4.9 8.68995 5.10502 8.89498C5.31005 9.1 5.64004 9.1 6.3 9.1H11.55C12.5332 9.1 13.0247 9.1 13.3778 9.33594C13.5307 9.43809 13.6619 9.56934 13.764 9.7222C14 10.0753 14 10.5669 14 11.55C14 12.5331 14 13.0247 13.764 13.3778C13.6619 13.5307 13.5307 13.6619 13.3778 13.7641C13.0463 13.9856 12.5927 13.9991 11.725 13.9999V12.6C11.725 12.3101 11.4899 12.075 11.2 12.075C10.9101 12.075 10.675 12.3101 10.675 12.6V14H9.625V11.9C9.625 11.6101 9.38994 11.375 9.1 11.375C8.81006 11.375 8.575 11.6101 8.575 11.9V14H7.525V12.6C7.525 12.3101 7.28994 12.075 7 12.075C6.71006 12.075 6.475 12.3101 6.475 12.6V14H5.425V11.9C5.425 11.6101 5.18995 11.375 4.9 11.375C4.61005 11.375 4.375 11.6101 4.375 11.9V14Z" fill="currentColor"/>
</svg>
