<svg width="6" height="12" viewBox="0 0 6 12" fill="none" xmlns="http://www.w3.org/2000/svg">
<path d="M1.725 5.68746V10.0375H0.5V11.8958H5.5V10.0375H4.29998V3.82915H0.5V5.68752L1.725 5.68746ZM2.05 2.50551C2.24598 2.70266 2.49607 2.8372 2.76858 2.89208C3.04109 2.94697 3.32376 2.91974 3.58078 2.81384C3.8378 2.70794 4.0576 2.52813 4.21234 2.2972C4.36708 2.06626 4.44979 1.7946 4.45 1.51662C4.45272 1.33145 4.41795 1.14764 4.34778 0.976262C4.2776 0.804883 4.17348 0.649476 4.04166 0.519395C3.91093 0.387796 3.75545 0.283355 3.58418 0.212086C3.41292 0.140817 3.22925 0.104126 3.04375 0.104126C2.85825 0.104126 2.67458 0.140817 2.50331 0.212086C2.33205 0.283355 2.17657 0.387796 2.04583 0.519395C1.91294 0.648875 1.80782 0.804079 1.7369 0.975532C1.66598 1.14699 1.63074 1.33109 1.63333 1.51662C1.63145 1.70118 1.66746 1.88418 1.73913 2.05427C1.8108 2.22436 1.9166 2.37795 2.05 2.50551Z" fill="currentColor"/>
</svg>
