<svg width="27" height="22" viewBox="0 0 27 22" fill="none" xmlns="http://www.w3.org/2000/svg">
<path fill-rule="evenodd" clip-rule="evenodd" d="M23.3288 0.15377C24.736 -0.433079 26.2446 0.745474 25.9961 2.2376L23.0613 19.8618C22.7783 21.5611 20.8939 22.5362 19.3199 21.6893C18.0027 20.9807 16.0485 19.8901 14.2873 18.7503C13.4078 18.1811 10.7149 16.356 11.0459 15.0568C11.3289 13.9459 15.856 9.77209 18.443 7.28989C19.4592 6.31486 18.9964 5.75158 17.7963 6.64932C14.8192 8.87632 10.0395 12.2622 8.45885 13.2151C7.06429 14.0558 6.33616 14.1993 5.46764 14.0558C3.88164 13.7941 2.41124 13.3887 1.21077 12.8959C-0.411758 12.2297 -0.332725 10.0213 1.20967 9.37814L23.3288 0.15377Z" fill="currentColor"/>
</svg>
