<svg width="17" height="13" viewBox="0 0 17 13" fill="none" xmlns="http://www.w3.org/2000/svg">
<path d="M16.986 6.37343C16.9726 6.31464 16.9592 6.2818 16.9472 6.25133C16.923 6.19442 16.8999 6.1515 16.8728 6.10278C16.773 5.92775 16.6128 5.69072 16.3932 5.39248C16.0655 4.94811 15.614 4.38509 15.1026 3.82946C14.5907 3.27384 14.0229 2.72672 13.4448 2.31355C12.6272 1.73014 11.8321 1.27649 11.0179 0.968211C10.2043 0.659698 9.37143 0.499499 8.49998 0.500001C7.62854 0.499499 6.79567 0.659698 5.982 0.968244C5.16753 1.27649 4.37278 1.73017 3.55518 2.31331C2.69526 2.92957 1.84851 3.84429 1.19451 4.63876C0.868293 5.03603 0.593339 5.40203 0.39505 5.6875C0.295474 5.83053 0.215654 5.95286 0.154195 6.05615C0.123217 6.10861 0.0972186 6.15545 0.0722499 6.20791C0.0596327 6.23466 0.0475468 6.26221 0.034166 6.30088C0.0275917 6.32047 0.0204863 6.34323 0.0139453 6.37343C0.0076367 6.4039 0.000265624 6.44149 0 6.50002C0.000265624 6.5583 0.0076035 6.59617 0.0139453 6.6266C0.0270605 6.68539 0.0407402 6.71797 0.0527929 6.74867C0.0769647 6.80562 0.100074 6.84854 0.127135 6.89698C0.226943 7.07205 0.387148 7.30931 0.60672 7.60752C0.934235 8.05192 1.38596 8.61518 1.89736 9.17084C2.40925 9.72646 2.97709 10.2733 3.55518 10.6865C4.37278 11.2699 5.16756 11.7233 5.982 12.0318C6.79567 12.3401 7.62854 12.5005 8.49998 12.5C9.37143 12.5005 10.2043 12.3401 11.018 12.0318C11.8322 11.7232 12.6272 11.2699 13.4448 10.6867C14.3047 10.0704 15.1515 9.15574 15.8055 8.36124C16.1317 7.964 16.4067 7.59801 16.6049 7.3125C16.7045 7.16924 16.7843 7.04714 16.8458 6.94359C16.8768 6.89116 16.9028 6.84429 16.9278 6.79209C16.9401 6.76534 16.9525 6.73779 16.9658 6.69885C16.9724 6.67927 16.9795 6.65677 16.9861 6.62657C16.9924 6.5961 16.9997 6.55827 17 6.49998C16.9997 6.44149 16.9924 6.4039 16.986 6.37343ZM8.49998 10.5673C6.27196 10.5673 4.46628 8.74632 4.46628 6.50005C4.46628 4.25428 6.27196 2.43277 8.49998 2.43277C10.728 2.43277 12.5337 4.25428 12.5337 6.50005C12.5337 8.74632 10.728 10.5673 8.49998 10.5673Z" fill="currentColor"/>
<path d="M9.50986 6.312C9.29815 6.3512 9.08147 6.27544 8.93989 6.11229C8.79808 5.94864 8.75236 5.72246 8.81933 5.51589L9.082 4.70602C8.89865 4.64562 8.70352 4.61228 8.49995 4.61228C7.46567 4.61228 6.62756 5.45707 6.62756 6.49998C6.62756 7.54287 7.46567 8.38822 8.49995 8.38822C9.53426 8.38822 10.3723 7.54287 10.3723 6.49998C10.3723 6.38294 10.3603 6.26851 10.34 6.15732L9.50986 6.312Z" fill="currentColor"/>
</svg>
