<svg width="16" height="16" viewBox="0 0 16 16" fill="none" xmlns="http://www.w3.org/2000/svg">
<path d="M8.11156 3.43662C8.04119 3.41104 7.96121 3.41104 7.89084 3.43662L3.64273 5.01304L8.0028 6.75893L12.3629 5.01304L8.11156 3.43662Z" fill="currentColor"/>
<path d="M3.41241 10.5513C3.41241 10.6824 3.49238 10.7975 3.61394 10.8487L7.68291 12.4762V7.31851L3.41241 5.61099V10.5513Z" fill="currentColor"/>
<path d="M8.32269 12.4762L12.3885 10.8487C12.51 10.7975 12.59 10.6824 12.59 10.5513V5.61099L8.32269 7.31851V12.4762Z" fill="currentColor"/>
<path d="M15.2579 2.57007C15.2579 2.08404 15.0691 1.62358 14.7236 1.27824C14.3782 0.9329 13.9175 0.744242 13.4313 0.744242C12.9771 0.744242 12.5548 0.913715 12.2189 1.21109C9.63103 -0.403697 6.37777 -0.403697 3.78348 1.21109C3.44759 0.913715 3.02534 0.744242 2.5743 0.744242C2.08487 0.744242 1.62423 0.9329 1.27875 1.27824C0.933273 1.62358 0.744539 2.08404 0.744539 2.57007C0.744539 3.02413 0.91408 3.44941 1.21158 3.78516C-0.403859 6.37522 -0.403859 9.62078 1.21158 12.2108C0.910881 12.5466 0.744539 12.9719 0.744539 13.4259C0.744539 13.912 0.933273 14.3724 1.27875 14.7178C1.62423 15.0631 2.08487 15.2518 2.5743 15.2518C3.02534 15.2518 3.44759 15.0823 3.78348 14.7849C5.07902 15.5907 6.53771 16 8.0028 16C9.46469 16 10.9266 15.5907 12.2189 14.7849C12.5644 15.0919 12.9963 15.2518 13.4313 15.2518C13.8983 15.2518 14.3654 15.0727 14.7236 14.7178C15.0691 14.3724 15.2579 13.912 15.2579 13.4259C15.2579 12.9719 15.0883 12.5498 14.7908 12.214C16.4031 9.62398 16.4031 6.37522 14.7908 3.78196C15.0915 3.44622 15.2579 3.02413 15.2579 2.57007ZM14.2854 11.8175C14.0231 11.68 13.7352 11.5969 13.4313 11.5969C12.9419 11.5969 12.4812 11.7856 12.1358 12.1309C11.7903 12.4762 11.6015 12.9367 11.6015 13.4259C11.6015 13.7297 11.6815 14.0175 11.8223 14.2797C9.46789 15.7154 6.53451 15.7154 4.18014 14.2797C4.32089 14.0175 4.40086 13.7297 4.40086 13.4259C4.40086 12.9367 4.21213 12.4762 3.86665 12.1309C3.28445 11.5489 2.41116 11.4498 1.7202 11.8143C0.283901 9.4641 0.283901 6.5287 1.7202 4.17847C1.98251 4.31596 2.27041 4.3959 2.5743 4.3959C3.06053 4.3959 3.52117 4.20724 3.86665 3.8619C4.21213 3.51656 4.40086 3.05611 4.40086 2.56688C4.40086 2.2631 4.32089 1.97532 4.18014 1.71312C6.53451 0.277392 9.46789 0.277392 11.8223 1.71312C11.6815 1.97532 11.6015 2.2631 11.6015 2.56688C11.6015 3.05611 11.7903 3.51656 12.1358 3.8619C12.4812 4.20724 12.9419 4.3959 13.4313 4.3959C13.7352 4.3959 14.0231 4.31596 14.2854 4.17527C15.7217 6.5287 15.7217 9.4641 14.2854 11.8175Z" fill="currentColor"/>
</svg>
