<svg width="25" height="24" viewBox="0 0 25 24" fill="none" xmlns="http://www.w3.org/2000/svg">
<path fill-rule="evenodd" clip-rule="evenodd" d="M19.0084 16.9453C18.7192 17.764 17.5696 18.4412 16.6528 18.6393C16.0252 18.7725 15.2068 18.8779 12.4492 17.7352C9.35199 16.452 5.0512 11.8812 5.0512 8.83945C5.0512 7.29099 5.94399 5.48789 7.50519 5.48789C8.25639 5.48789 8.422 5.50254 8.6692 6.09551C8.9584 6.79412 9.664 8.51535 9.748 8.6918C10.0948 9.41561 9.39519 9.83934 8.88759 10.4695C8.72558 10.6592 8.542 10.8643 8.7472 11.2172C8.9512 11.5629 9.65679 12.7129 10.6936 13.6359C12.0328 14.8291 13.1188 15.21 13.5076 15.3721C13.7968 15.4921 14.1424 15.4641 14.3536 15.2385C14.6212 14.9492 14.9536 14.4692 15.292 13.9963C15.5308 13.6578 15.8344 13.6155 16.1524 13.7355C16.3672 13.81 19.0972 15.0778 19.2124 15.2807C19.2976 15.4283 19.2976 16.1267 19.0084 16.9453ZM12.0256 0H12.0196C5.40399 0 0.0231934 5.38242 0.0231934 12C0.0231934 14.624 0.869202 17.0584 2.308 19.033L0.812799 23.492L5.4244 22.0184C7.3216 23.2739 9.58599 24 12.0256 24C18.6412 24 24.0232 18.6176 24.0232 12C24.0232 5.38242 18.6412 0 12.0256 0Z" fill="currentColor"/>
</svg>
