<svg width="21" height="24" viewBox="0 0 21 24" fill="none" xmlns="http://www.w3.org/2000/svg">
<path d="M10.5016 12.4626C13.8531 12.4626 16.5928 9.6599 16.5928 6.2313C16.5928 2.80271 13.8531 0 10.5016 0C7.15007 0 4.41042 2.80271 4.41042 6.2313C4.41042 9.6599 7.15012 12.4626 10.5016 12.4626Z" fill="#C6C7C8"/>
<path d="M20.9551 17.4422C20.7955 17.034 20.5827 16.6531 20.3434 16.2993C19.1198 14.449 17.2313 13.2245 15.1033 12.9252C14.8374 12.898 14.5448 12.9523 14.332 13.1156C13.2148 13.9592 11.8848 14.3945 10.5016 14.3945C9.11845 14.3945 7.78852 13.9592 6.67134 13.1156C6.45853 12.9523 6.16593 12.8707 5.89997 12.9252C3.77202 13.2245 1.8569 14.449 0.659943 16.2993C0.420552 16.6531 0.207737 17.0613 0.0481773 17.4422C-0.0316027 17.6055 -0.00502637 17.7959 0.0747536 17.9592C0.287568 18.3402 0.553535 18.7211 0.792926 19.0477C1.1653 19.5647 1.5643 20.0272 2.01651 20.4626C2.38888 20.8435 2.81446 21.1973 3.24009 21.551C5.3414 23.1565 7.86835 24 10.4751 24C13.0818 24 15.6087 23.1565 17.7101 21.551C18.1356 21.2245 18.5612 20.8435 18.9336 20.4626C19.3592 20.0272 19.7848 19.5646 20.1572 19.0477C20.4232 18.6939 20.6626 18.3402 20.8754 17.9592C21.0083 17.7959 21.0349 17.6054 20.9551 17.4422Z" fill="#C6C7C8"/>
</svg>
