<svg width="50" height="50" viewBox="0 0 50 50" fill="none" xmlns="http://www.w3.org/2000/svg">
<rect x="20" y="20" width="30" height="30" rx="15" fill="#3774B5"/>
<path d="M36.6406 12.526H32.6868C32.3579 11.5291 31.4182 10.8073 30.3125 10.8073H29.375V9.39484C29.375 9.13406 29.2448 8.89039 29.028 8.74539L24.344 5.61281C24.3433 5.61234 24.3425 5.6118 24.3418 5.61133L24.3405 5.61047C24.2163 5.52727 24.067 5.47859 23.9062 5.47859H7.65625C3.43453 5.47859 0 8.9132 0 13.1348C0 17.0391 2.93773 20.2699 6.71883 20.7337V30.4711C6.61359 30.5503 6.5268 30.6548 6.47172 30.7805L4.28422 35.7805C4.17852 36.0221 4.2018 36.3006 4.34609 36.5212C4.49039 36.7419 4.73633 36.875 5 36.875H18.5157C18.9472 36.875 19.297 36.5252 19.297 36.0938C19.297 33.2909 17.2918 30.9484 14.6409 30.4233L16.0477 24.5412H18.042C19.1216 24.5412 20 23.6628 20 22.5831V21.1867C20 21.0513 19.9862 20.9189 19.9598 20.7912H23.9062C24.0668 20.7912 24.2159 20.7426 24.34 20.6596C24.3402 20.6595 24.3403 20.6595 24.3405 20.6594L24.3418 20.6585C24.3425 20.658 24.3433 20.6575 24.344 20.657L29.028 17.5245C29.2448 17.3795 29.375 17.1358 29.375 16.875V15.8073H30.3125C31.4182 15.8073 32.3579 15.0855 32.6868 14.0885H36.6406C37.0721 14.0885 37.4219 13.7387 37.4219 13.3073C37.4219 12.8759 37.0721 12.526 36.6406 12.526ZM1.5625 13.1349C1.5625 9.77477 4.29617 7.04117 7.65625 7.04117H9.21875V19.2287H7.65625C4.29617 19.2287 1.5625 16.4951 1.5625 13.1349ZM17.662 35.3125H6.19453L7.69844 31.875H13.5157C15.575 31.875 17.2945 33.3583 17.662 35.3125ZM13.0609 30.3125H8.28133V29.458H9.70648C10.138 29.458 10.4877 29.1082 10.4877 28.6768C10.4877 28.2454 10.138 27.8955 9.70648 27.8955H8.28133V26.333H9.70648C10.138 26.333 10.4877 25.9832 10.4877 25.5518C10.4877 25.1204 10.138 24.7705 9.70648 24.7705H8.28133V23.208H9.70648C10.138 23.208 10.4877 22.8582 10.4877 22.4268C10.4877 21.9954 10.138 21.6455 9.70648 21.6455H8.28133V20.7911H15.338L13.0609 30.3125ZM18.4375 22.583C18.4375 22.8012 18.2601 22.9786 18.042 22.9786H16.4215L16.9447 20.7911H18.042C18.2601 20.7912 18.4375 20.9686 18.4375 21.1867V22.583ZM23.125 19.2287H10.7812V7.04117H23.125V19.2287ZM27.8125 16.4576L24.6875 18.5476V7.72227L27.8125 9.81227V16.4576ZM30.3125 14.2448H29.375V12.3698H30.3125C30.8295 12.3698 31.25 12.7903 31.25 13.3073C31.25 13.8242 30.8295 14.2448 30.3125 14.2448Z" fill="white"/>
<path d="M16.7188 9.10648H12.7344C12.3029 9.10648 11.9531 9.45633 11.9531 9.88773C11.9531 10.3191 12.3029 10.669 12.7344 10.669H16.7188C17.1502 10.669 17.5 10.3191 17.5 9.88773C17.5 9.45633 17.1502 9.10648 16.7188 9.10648Z" fill="white"/>
<path d="M20.5523 9.33523C20.407 9.18992 20.2055 9.10625 20 9.10625C19.7945 9.10625 19.593 9.18984 19.4477 9.33523C19.3023 9.48125 19.2188 9.68203 19.2188 9.8875C19.2188 10.093 19.3023 10.2945 19.4477 10.4398C19.593 10.5859 19.7945 10.6687 20 10.6687C20.2055 10.6687 20.407 10.5859 20.5523 10.4398C20.6977 10.2945 20.7812 10.093 20.7812 9.8875C20.7812 9.68203 20.6977 9.48125 20.5523 9.33523Z" fill="white"/>
<path d="M16.7188 12.2315H12.7344C12.3029 12.2315 11.9531 12.5813 11.9531 13.0127C11.9531 13.4441 12.3029 13.794 12.7344 13.794H16.7188C17.1502 13.794 17.5 13.4441 17.5 13.0127C17.5 12.5813 17.1502 12.2315 16.7188 12.2315Z" fill="white"/>
<path d="M16.7188 15.3565H12.7344C12.3029 15.3565 11.9531 15.7063 11.9531 16.1377C11.9531 16.5691 12.3029 16.919 12.7344 16.919H16.7188C17.1502 16.919 17.5 16.5691 17.5 16.1377C17.5 15.7063 17.1502 15.3565 16.7188 15.3565Z" fill="white"/>
<path d="M34.2188 15.7912C33.7873 15.7912 33.4375 16.141 33.4375 16.5724V23.125C33.4375 23.5564 33.7873 23.9062 34.2188 23.9062C34.6502 23.9062 35 23.5564 35 23.125V16.5724C35 16.141 34.6502 15.7912 34.2188 15.7912Z" fill="white"/>
<path d="M34.7711 25.5414C34.6258 25.3961 34.4242 25.3125 34.2188 25.3125C34.0133 25.3125 33.8117 25.396 33.6664 25.5414C33.5211 25.6867 33.4375 25.8883 33.4375 26.0938C33.4375 26.2992 33.5211 26.5008 33.6664 26.646C33.8117 26.7913 34.0133 26.875 34.2188 26.875C34.4242 26.875 34.6258 26.7914 34.7711 26.646C34.9164 26.5008 35 26.2992 35 26.0938C35 25.8883 34.9164 25.6867 34.7711 25.5414Z" fill="white"/>
<path d="M39.2188 0H34.2188C33.7873 0 33.4375 0.349844 33.4375 0.78125V9.88773C33.4375 10.3191 33.7873 10.669 34.2188 10.669C34.6502 10.669 35 10.3191 35 9.88773V1.5625H38.4375V38.4375H35V29.4843C35 29.0529 34.6502 28.703 34.2188 28.703C33.7873 28.703 33.4375 29.0529 33.4375 29.4843V39.2188C33.4375 39.6502 33.7873 40 34.2188 40H39.2188C39.6502 40 40 39.6502 40 39.2188V0.78125C40 0.349844 39.6502 0 39.2188 0Z" fill="white"/>
<path d="M7.65625 15.7912C6.19156 15.7912 5 14.5996 5 13.1349C5 12.7035 4.65023 12.3537 4.21875 12.3537C3.78727 12.3537 3.4375 12.7035 3.4375 13.1349C3.4375 15.4611 5.33 17.3537 7.65625 17.3537C8.08773 17.3537 8.4375 17.0038 8.4375 16.5724C8.4375 16.141 8.08773 15.7912 7.65625 15.7912Z" fill="white"/>
<path d="M30.8649 21.0101C30.5598 20.705 30.0652 20.705 29.7601 21.0101L28.8616 21.9085C28.5566 22.2136 28.5566 22.7083 28.8616 23.0134C29.0142 23.1659 29.2141 23.2423 29.4141 23.2423C29.614 23.2423 29.814 23.1659 29.9665 23.0134L30.8649 22.115C31.17 21.8099 31.17 21.3152 30.8649 21.0101Z" fill="white"/>
<path d="M28.5938 25.625C28.1623 25.625 27.8125 25.9748 27.8125 26.4062V27.5257C27.8125 27.9571 28.1623 28.307 28.5938 28.307C29.0252 28.307 29.375 27.9571 29.375 27.5257V26.4062C29.375 25.9748 29.0252 25.625 28.5938 25.625Z" fill="white"/>
<path d="M29.1462 32.004C28.8411 31.699 28.3464 31.699 28.0413 32.004L27.6398 32.4055C27.3348 32.7105 27.3348 33.2052 27.6398 33.5104C27.7924 33.6629 27.9923 33.7392 28.1923 33.7392C28.3922 33.7392 28.5922 33.6629 28.7447 33.5104L29.1462 33.1089C29.4513 32.8038 29.4513 32.3091 29.1462 32.004Z" fill="white"/>
<path d="M31.6462 5.86367L30.9252 5.14266C30.6201 4.83766 30.1254 4.83766 29.8202 5.14266C29.5152 5.44773 29.5152 5.94242 29.8202 6.24758L30.5413 6.96859C30.6939 7.12109 30.8938 7.19742 31.0938 7.19742C31.2937 7.19742 31.4937 7.12109 31.6462 6.96859C31.9513 6.66352 31.9513 6.16883 31.6462 5.86367Z" fill="white"/>
</svg>
