<svg width="50" height="50" viewBox="0 0 50 50" fill="none" xmlns="http://www.w3.org/2000/svg">
<rect x="20" y="20" width="30" height="30" rx="15" fill="#3774B5"/>
<path d="M39.6442 9.8163L20.2954 0.070125C20.1097 -0.023375 19.8902 -0.023375 19.7047 0.070125L0.355806 9.8163C0.13753 9.9263 0 10.1482 0 10.3906V33.6093C0 33.8518 0.137443 34.0737 0.355806 34.1837L19.7046 43.9299C19.8902 44.0234 20.1097 44.0234 20.2953 43.9299L22.696 42.7207C23.0165 42.5593 23.1442 42.1712 22.981 41.854C22.8179 41.5367 22.4258 41.4105 22.1053 41.5718L20.6511 42.3043V33.1938L30.8445 28.0594C31.0629 27.9494 31.2004 27.7275 31.2004 27.485C31.2004 27.4841 31.2003 27.4833 31.2003 27.4826V15.2181L33.6463 13.9858C33.9668 13.8243 34.0944 13.4362 33.9312 13.119C33.7681 12.8018 33.376 12.6755 33.0555 12.837L30.546 14.1012L20.2952 8.93716C20.1096 8.84366 19.8901 8.84366 19.7044 8.93716L9.45405 14.101L2.087 10.3907L20 1.36778L37.9131 10.3907L35.7506 11.48C35.4302 11.6415 35.3025 12.0296 35.4657 12.3468C35.6288 12.6641 36.0208 12.7903 36.3414 12.6289L38.6976 11.4419V33.2141L24.8012 40.2141C24.4807 40.3755 24.3531 40.7636 24.5163 41.0809C24.6312 41.3045 24.8599 41.4332 25.0971 41.4332C25.1965 41.4332 25.2973 41.4106 25.392 41.363L39.6442 34.1838C39.8626 34.0738 40 33.8519 40 33.6094V10.3907C40 10.1482 39.8626 9.9263 39.6442 9.8163ZM20 32.0754L10.8864 27.4849L20 22.8944L29.1136 27.485L20 32.0754ZM29.898 26.4337L20.6512 21.776V10.5628L29.898 15.2211V26.4337ZM8.79965 15.2177V20.2495C8.79965 20.6054 9.09121 20.894 9.45084 20.894C9.81046 20.894 10.102 20.6054 10.102 20.2495V15.2211L19.3488 10.5628V21.776L10.102 26.4337V23.2573C10.102 22.9013 9.81046 22.6127 9.45084 22.6127C9.09121 22.6127 8.79965 22.9013 8.79965 23.2573V27.4826C8.79965 27.4833 8.79948 27.4841 8.79948 27.485C8.79948 27.7275 8.93692 27.9494 9.15537 28.0594L19.3488 33.1938V42.3043L1.30237 33.2141V11.4418L8.79965 15.2177Z" fill="white"/>
</svg>
