<svg width="50" height="50" viewBox="0 0 50 50" fill="none" xmlns="http://www.w3.org/2000/svg">
<rect x="20" y="20" width="30" height="30" rx="15" fill="#3774B5"/>
<path d="M38.6666 10.6675H31.3806C30.972 10.3373 30.5031 10.0896 29.9999 9.93824C29.8292 9.8716 29.5899 9.78027 29.3999 9.69489C29.5513 9.54622 29.752 9.37286 29.8939 9.24959C30.5773 8.65695 31.2226 8.09829 30.9606 7.39964C30.6985 6.70099 29.8406 6.68169 28.9272 6.65966C28.7385 6.65568 28.4719 6.64966 28.2606 6.6317C28.3499 6.44303 28.4766 6.21507 28.5666 6.05304C29.0046 5.26174 29.4186 4.51379 28.9306 3.9431C28.4426 3.37242 27.6379 3.64975 26.7779 3.93514C26.5946 3.99646 26.3346 4.08247 26.1259 4.13513C26.1459 3.92849 26.1853 3.6685 26.2139 3.48585C26.3518 2.59322 26.4805 1.74926 25.8299 1.37724C25.1878 1.01194 24.5206 1.53724 23.8125 2.09324C23.6578 2.21323 23.4392 2.38526 23.2605 2.50791C23.2058 2.30792 23.1525 2.04925 23.1158 1.8666C22.9332 0.980614 22.7638 0.141967 22.0225 0.0146269C21.2964 -0.111385 20.8545 0.605312 20.3851 1.36388C20.2798 1.53458 20.1278 1.77856 19.9998 1.95652C19.8718 1.77856 19.7198 1.5345 19.6145 1.36388C19.1452 0.605234 18.7032 -0.112088 17.9772 0.0146269C17.2358 0.141967 17.0665 0.980614 16.8818 1.86793C16.8445 2.04996 16.7918 2.30792 16.7372 2.50924C16.5578 2.38659 16.3372 2.21394 16.1845 2.09324C15.4772 1.53794 14.8079 1.01397 14.1685 1.37724C13.5145 1.74989 13.6458 2.59385 13.7838 3.48648C13.8125 3.67046 13.8504 3.92912 13.8718 4.13583C13.6631 4.08115 13.4051 3.99513 13.2197 3.93584C12.3584 3.65116 11.5451 3.38187 11.0677 3.94318C10.579 4.51449 10.9924 5.26181 11.4304 6.05382C11.5204 6.21585 11.647 6.44451 11.7364 6.6331C11.5244 6.65107 11.2584 6.65646 11.0697 6.66107C10.1564 6.6824 9.29506 6.7024 9.03576 7.40105C8.77639 8.0997 9.42311 8.65835 10.1024 9.25029C10.2451 9.37364 10.4451 9.54692 10.5964 9.69559C10.4077 9.7816 10.1684 9.87355 9.99639 9.93894C9.49436 10.0903 9.02662 10.3378 8.61905 10.6676H1.33336C0.596952 10.6676 0 11.2645 0 12.0009V16.0008C0 16.7372 0.596952 17.3341 1.33336 17.3341V38.6667C1.33336 39.4031 1.93031 40 2.66671 40H5.33335C6.06975 40 6.66671 39.4031 6.66671 38.6667V35.3334H33.3333V38.6667C33.3333 39.4031 33.9302 40 34.6667 40H37.3333C38.0697 40 38.6666 39.4031 38.6666 38.6667V17.334C39.403 17.334 40 16.737 40 16.0006V12.0008C39.9999 11.2644 39.403 10.6675 38.6666 10.6675ZM11.0994 7.9922C11.972 7.9722 12.7247 7.95556 13.052 7.39886C13.3854 6.83091 13.0207 6.17093 12.5973 5.40626C12.5453 5.31228 12.4807 5.19494 12.418 5.07291C12.5547 5.11557 12.6907 5.16026 12.8001 5.19689C13.628 5.47087 14.3434 5.70821 14.844 5.29619C15.3447 4.88417 15.2347 4.13755 15.1014 3.28023C15.0847 3.16953 15.0634 3.03227 15.0447 2.89423C15.1581 2.98024 15.2708 3.06758 15.3614 3.13891C16.0487 3.67889 16.6447 4.14357 17.254 3.9242C17.8633 3.70491 18.0154 2.97626 18.1874 2.13222C18.2107 2.01754 18.24 1.87293 18.2727 1.73223C18.348 1.84824 18.4214 1.96691 18.4807 2.06558C18.942 2.81087 19.3407 3.45421 20 3.45421C20.6593 3.45421 21.0579 2.81087 21.5186 2.06558C21.5779 1.97027 21.652 1.8509 21.7266 1.73223C21.7593 1.87293 21.7886 2.01754 21.8126 2.13222C21.9853 2.97618 22.1346 3.70483 22.746 3.9242C23.3573 4.14349 23.9526 3.67756 24.638 3.13891C24.7287 3.06758 24.838 2.97962 24.9553 2.8936C24.9367 3.03157 24.9153 3.16961 24.8987 3.28023C24.7653 4.13755 24.6514 4.88019 25.1567 5.29619C25.662 5.71219 26.3714 5.4715 27.2 5.19689C27.3093 5.16088 27.4453 5.11557 27.5814 5.07291C27.5187 5.19158 27.4547 5.30892 27.4021 5.40626C26.9794 6.17093 26.6141 6.83091 26.9474 7.39824C27.2747 7.95486 28.0274 7.9722 28.9 7.9922C29.0127 7.9922 29.1521 7.99822 29.2913 8.00423C29.1953 8.09025 29.0993 8.1729 29.0206 8.24087C28.354 8.81749 27.7814 9.31482 27.8967 9.9648C27.9605 10.2612 28.1471 10.5165 28.41 10.6674H24.6134C24.2839 8.37297 22.3182 6.66943 20 6.66943C17.6819 6.66943 15.7162 8.37297 15.3867 10.6674H11.5867C11.8495 10.516 12.036 10.2606 12.1001 9.9641C12.218 9.31544 11.644 8.81812 10.9787 8.24079C10.9008 8.17415 10.804 8.09009 10.7087 8.00416C10.8473 7.99822 10.9873 7.99494 11.0994 7.9922ZM23.2667 10.6675H16.7333C17.0488 9.11404 18.4147 7.99759 20 7.99759C21.5852 7.99759 22.9512 9.11397 23.2667 10.6675ZM5.33335 38.6667H2.66671V17.334H5.33335V38.6667ZM33.3333 34.0001H6.66671V32.6669H33.3333V34.0001ZM6.66671 31.3335V17.334H8.00006V26.667C8.00006 27.4034 8.59701 28.0004 9.33342 28.0004H30.6667C31.4031 28.0004 32.0001 27.4034 32.0001 26.667V17.334H33.3335V31.3335H6.66671ZM26.6667 22.6672H13.3333C12.5969 22.6672 12 23.2641 12 24.0005V26.667H9.33334V17.334H30.6667V26.667H28V24.0005C27.9999 23.2641 27.403 22.6672 26.6667 22.6672ZM26.6667 24.0004V26.667H13.3333V24.0004H26.6667ZM37.3333 38.6667H34.6667V17.334H37.3333V38.6667ZM38.6666 16.0006H1.33336V12.0008H38.6666V16.0006Z" fill="white"/>
<path d="M3.99999 14.6674H5.33335C5.70155 14.6674 5.99999 14.369 5.99999 14.0008C5.99999 13.6326 5.70155 13.3342 5.33335 13.3342H3.99999C3.63179 13.3342 3.33335 13.6326 3.33335 14.0008C3.33335 14.369 3.63179 14.6674 3.99999 14.6674Z" fill="white"/>
<path d="M7.99998 14.6674H14.6666C15.0348 14.6674 15.3333 14.369 15.3333 14.0008C15.3333 13.6326 15.0348 13.3342 14.6666 13.3342H7.99998C7.63178 13.3342 7.33334 13.6326 7.33334 14.0008C7.33334 14.369 7.63178 14.6674 7.99998 14.6674Z" fill="white"/>
<path d="M13.3333 18.6673H12C11.6318 18.6673 11.3333 18.9657 11.3333 19.3339C11.3333 19.7021 11.6319 20.0005 12 20.0005H13.3333C13.7015 20.0005 14 19.7021 14 19.3339C14 18.9657 13.7015 18.6673 13.3333 18.6673Z" fill="white"/>
<path d="M22.6667 18.6673H16C15.6318 18.6673 15.3334 18.9657 15.3334 19.3339C15.3334 19.7021 15.6318 20.0005 16 20.0005H22.6667C23.0349 20.0005 23.3333 19.7021 23.3333 19.3339C23.3333 18.9657 23.0348 18.6673 22.6667 18.6673Z" fill="white"/>
</svg>
