<svg width="50" height="50" viewBox="0 0 50 50" fill="none" xmlns="http://www.w3.org/2000/svg">
<rect x="20" y="20" width="30" height="30" rx="15" fill="#3774B5"/>
<path d="M25.8552 11.6436C25.7099 11.4975 25.5084 11.4147 25.303 11.4147C25.0975 11.4147 24.896 11.4975 24.7507 11.6436C24.6046 11.7889 24.5218 11.9896 24.5218 12.1951C24.5218 12.4013 24.6046 12.602 24.7507 12.7481C24.896 12.8934 25.0975 12.9762 25.303 12.9762C25.5084 12.9762 25.7099 12.8934 25.8552 12.7481C26.0005 12.602 26.0841 12.4013 26.0841 12.1951C26.0841 11.9896 26.0005 11.7888 25.8552 11.6436Z" fill="white"/>
<path d="M39.7713 29.8315L28.7745 18.8348L37.5319 10.0773C37.6317 9.97758 37.7026 9.85266 37.737 9.71594L39.928 1.02062C39.9951 0.754063 39.9173 0.471797 39.7229 0.277344C39.5285 0.0829688 39.2463 0.00492189 38.9796 0.0722656L30.2842 2.26297C30.1474 2.29742 30.0224 2.36836 29.9228 2.46805L21.1653 11.2255L10.1685 0.22875C9.86359 -0.07625 9.3689 -0.07625 9.06383 0.22875L0.234766 9.05789C-0.0702344 9.36289 -0.0702344 9.8575 0.234766 10.1627L11.2315 21.1594L1.40125 30.9897C0.497734 31.8932 0 33.0946 0 34.3723C0 35.6502 0.497656 36.8515 1.40117 37.7552L2.24484 38.5988C3.14836 39.5023 4.34976 40 5.62766 40C6.90547 40 8.1068 39.5023 9.01039 38.5988L18.8407 28.7685L29.8375 39.7652C29.9901 39.9178 30.1899 39.9941 30.3898 39.9941C30.5898 39.9941 30.7897 39.9178 30.9422 39.7652L39.7712 30.9362C40.0762 30.6312 40.0762 30.1365 39.7713 29.8315ZM27.6792 17.7206L26.7826 16.824L34.9782 8.62836L35.8748 9.525L27.6792 17.7206ZM38.0937 1.90641L37.5617 4.0175L35.9826 2.43836L38.0937 1.90641ZM34.2176 2.88305L37.117 5.78242L36.5584 7.99922L32.0009 3.44164L34.2176 2.88305ZM30.4752 4.12523L31.3718 5.02187L26.7834 9.61023C26.4784 9.91523 26.4784 10.4098 26.7834 10.715C26.936 10.8676 27.1359 10.9438 27.3358 10.9438C27.5357 10.9438 27.7356 10.8676 27.8881 10.715L32.4765 6.12664L33.8734 7.52359L25.6778 15.7193L22.2794 12.3209L30.4752 4.12523ZM7.90562 37.4942C7.29711 38.1027 6.4882 38.4378 5.62758 38.4378C4.76695 38.4378 3.95797 38.1027 3.34953 37.4942L2.50586 36.6505C1.89734 36.042 1.56227 35.233 1.56227 34.3724C1.56227 33.512 1.89734 32.7029 2.50586 32.0944L4.44625 30.1539L9.84601 35.5537L7.90562 37.4942ZM10.9509 34.449L10.0543 33.5523L14.053 29.5536C14.358 29.2486 14.358 28.754 14.053 28.4488C13.748 28.1437 13.2534 28.1438 12.9483 28.4488L8.94953 32.4476L5.55109 29.0491L12.3362 22.264L17.736 27.6638L10.9509 34.449ZM36.3234 32.1747L30.2874 26.1387C29.9824 25.8338 29.4878 25.8338 29.1826 26.1387C28.8777 26.4437 28.8777 26.9383 29.1826 27.2434L35.2187 33.2795L30.3898 38.1083L28.8398 36.5583L30.9345 34.4636C31.2395 34.1586 31.2395 33.664 30.9345 33.3588C30.6295 33.0538 30.1349 33.0538 29.8298 33.3588L27.7351 35.4535L25.8032 33.5216L26.5723 32.7526C26.8773 32.4476 26.8773 31.953 26.5723 31.6478C26.2673 31.3428 25.7727 31.3428 25.4675 31.6478L24.6984 32.4169L22.7666 30.485L23.5356 29.7159C23.8406 29.4109 23.8406 28.9163 23.5356 28.6112C23.2306 28.3062 22.736 28.3062 22.4309 28.6112L21.6618 29.3802L19.7299 27.4484L21.8246 25.3537C22.1296 25.0487 22.1296 24.5541 21.8246 24.2489C21.5196 23.9439 21.025 23.9439 20.7198 24.2489L18.6255 26.3433L16.6936 24.4114L17.4623 23.6427C17.7673 23.3377 17.7673 22.843 17.4623 22.5379C17.1573 22.2329 16.6627 22.2329 16.3576 22.5379L15.5888 23.3066L13.657 21.3748L14.4257 20.606C14.7307 20.301 14.7307 19.8064 14.4257 19.5012C14.1207 19.1962 13.6261 19.1962 13.3209 19.5012L12.5519 20.2703L10.62 18.3384L12.7147 16.2437C13.0197 15.9388 13.0197 15.4441 12.7147 15.139C12.4097 14.834 11.9151 14.834 11.6099 15.139L9.51523 17.2337L7.58336 15.3018L8.35242 14.5327C8.65742 14.2277 8.65742 13.7331 8.35242 13.428C8.04742 13.123 7.55281 13.123 7.24765 13.428L6.47859 14.197L4.54672 12.2652L5.31578 11.4961C5.62078 11.1911 5.62078 10.6965 5.31578 10.3913C5.01078 10.0863 4.51617 10.0863 4.21101 10.3913L3.44195 11.1604L1.89195 9.61039L6.72078 4.78156L24.7819 22.8427C24.9344 22.9952 25.1343 23.0715 25.3342 23.0715C25.5341 23.0715 25.7341 22.9952 25.8866 22.8427C26.1916 22.5377 26.1916 22.043 25.8866 21.7379L7.82539 3.67664L9.61625 1.88578L38.1143 30.3839L36.3234 32.1747Z" fill="white"/>
<path d="M28.1088 23.9597C27.9635 23.8144 27.762 23.7316 27.5566 23.7316C27.3511 23.7316 27.1496 23.8144 27.0043 23.9597C26.859 24.1058 26.7754 24.3065 26.7754 24.5127C26.7754 24.7182 26.859 24.9189 27.0043 25.065C27.1496 25.2103 27.3511 25.2931 27.5566 25.2931C27.762 25.2931 27.9635 25.2103 28.1088 25.065C28.2541 24.9189 28.3377 24.7182 28.3377 24.5127C28.3377 24.3066 28.2541 24.1058 28.1088 23.9597Z" fill="white"/>
</svg>
