<svg width="70" height="70" viewBox="0 0 70 70" fill="none" xmlns="http://www.w3.org/2000/svg">
<rect x="32" y="32" width="38" height="38" rx="19" fill="#3774B5"/>
<path d="M53.1998 23.0531H49.7054C50.3304 22.093 50.8397 21.0618 51.2225 19.9806C51.4644 19.3261 51.264 18.5888 50.7248 18.1497C50.2629 17.7881 49.6199 17.7787 49.1474 18.1264C48.3053 18.7271 47.3466 19.1412 46.3344 19.3416C47.8182 16.9853 48.5164 14.212 48.3262 11.4274C48.2997 10.7319 47.8358 10.1316 47.1735 9.93643C46.6104 9.78303 46.0144 10.0209 45.7081 10.5216C45.1608 11.3899 44.4404 12.1332 43.5923 12.7046L43.5804 12.6857C44.0397 9.94763 43.6274 7.1329 42.4025 4.64565C42.1124 4.01178 41.4531 3.63602 40.7653 3.71272C40.1889 3.78985 39.7322 4.24059 39.6425 4.81974C39.4737 5.79189 39.1135 6.72008 38.5842 7.54959C38.5406 7.51943 38.4966 7.48926 38.4526 7.45996C37.8117 4.82147 36.3787 2.44669 34.3497 0.660115C33.8409 0.194295 33.0949 0.105526 32.4921 0.438624C31.9888 0.730785 31.735 1.32157 31.8683 1.89167C32.0682 2.79789 32.0981 3.73427 31.9567 4.65125C31.8461 4.62755 31.7328 4.60471 31.6175 4.58188C30.0388 2.50099 27.8812 0.941071 25.4203 0.101217C24.7709 -0.140957 24.0407 0.0611422 23.6049 0.603665C23.2477 1.06819 23.2375 1.715 23.5797 2.19073C24.074 2.90001 24.4419 3.69117 24.6658 4.52801C24.4859 4.56076 24.3094 4.59653 24.1351 4.63531C21.9412 3.40806 19.4418 2.8483 16.939 3.02282C16.2503 3.04997 15.6556 3.51795 15.462 4.18543C15.3082 4.75338 15.5449 5.3558 16.0427 5.66347C16.7207 6.09741 17.3223 6.64251 17.8226 7.27596C17.6218 7.40696 17.4235 7.54226 17.2278 7.68231C14.8152 7.45565 12.3876 7.91113 10.2167 8.99704C9.58868 9.29049 9.21655 9.95496 9.29132 10.6483C9.36737 11.2283 9.81256 11.689 10.3855 11.7799C11.1349 11.9122 11.8586 12.1612 12.5316 12.5189C12.373 12.7555 12.2184 12.9981 12.0676 13.2476C9.82281 13.987 7.81775 15.3246 6.26428 17.1185C5.80243 17.6322 5.71442 18.3845 6.04468 18.9926C6.33435 19.4993 6.9184 19.7548 7.48322 19.6225C8.20184 19.4597 8.94055 19.4067 9.67456 19.4648C9.61774 19.7639 9.5686 20.0698 9.52673 20.3814C8.63507 21.1557 7.85876 22.0555 7.22174 23.0531H2.80017C1.25439 23.0544 0.00170898 24.3178 0 25.8769V28.7011C0.00170898 30.2601 1.25439 31.5231 2.80017 31.5249V55.0589C2.80017 55.5786 3.21802 56 3.73328 56H52.2667C52.782 56 53.1998 55.5786 53.1998 55.0589V31.5249C54.7456 31.5231 55.9983 30.2601 56 28.7011V25.8769C55.9983 24.3178 54.7456 23.0544 53.1998 23.0531ZM10.9888 21.6048C11.1819 21.4496 11.3062 21.2234 11.3344 20.9761C11.4109 20.281 11.5365 19.5924 11.7108 18.9154C11.7762 18.6651 11.7365 18.3983 11.6006 18.1786C11.4651 17.9584 11.2455 17.8045 10.9939 17.7532C10.1484 17.5779 9.28278 17.5214 8.4223 17.5843C9.6925 16.3493 11.2426 15.4453 12.9374 14.9501C13.1707 14.8838 13.369 14.7286 13.4907 14.5171C13.8295 13.9276 14.2059 13.3609 14.6182 12.821C14.7742 12.6167 14.8404 12.3573 14.8019 12.1026C14.7631 11.8484 14.6225 11.6209 14.4127 11.4735C13.68 10.9555 12.8763 10.5475 12.0274 10.2613C13.7214 9.5917 15.5547 9.36159 17.3594 9.59213C17.6 9.62402 17.8431 9.56067 18.0379 9.41545C18.5438 9.03668 19.0723 8.69022 19.6204 8.37738C19.8417 8.25112 20.0024 8.03954 20.0652 7.79177C20.1284 7.54356 20.0883 7.28027 19.9545 7.06223C19.4576 6.24995 18.842 5.51782 18.1289 4.88998C20.0242 4.92445 21.8771 5.46008 23.5028 6.44257C23.7169 6.57357 23.9745 6.61235 24.2172 6.5503C24.7632 6.41197 25.3182 6.31286 25.8783 6.25383C26.1304 6.22668 26.3602 6.09741 26.5157 5.89574C26.6713 5.69407 26.7388 5.43724 26.7025 5.1843C26.5593 4.17466 26.2564 3.19519 25.8048 2.28251C27.6168 3.07066 29.1771 4.34918 30.3127 5.97675C30.4558 6.18402 30.6746 6.3245 30.9211 6.36759C31.4231 6.45162 31.9204 6.56366 32.41 6.70241C32.6497 6.77179 32.9065 6.74162 33.1235 6.61838C33.341 6.49514 33.5004 6.28959 33.5662 6.04742C33.8537 5.00245 33.9622 3.91525 33.887 2.83322C35.317 4.3216 36.2954 6.19135 36.7073 8.22182C36.7573 8.47563 36.9089 8.69755 37.1264 8.83544C37.4733 9.05435 37.8403 9.31548 38.2176 9.61023C38.6179 9.92393 39.1938 9.85757 39.5134 9.46027C40.2329 8.57258 40.787 7.56079 41.1485 6.47403C41.9269 8.45063 42.1102 10.6151 41.6753 12.6964C41.6198 12.9589 41.6774 13.2334 41.8342 13.4501C42.0641 13.7737 42.2764 14.1098 42.4704 14.4567C42.7208 14.895 43.2693 15.0557 43.7137 14.8209C44.7604 14.2701 45.6965 13.5272 46.4733 12.6301C46.4344 14.7812 45.7657 16.872 44.5515 18.6405C44.3977 18.8603 44.3443 19.1356 44.4045 19.3976C44.4913 19.7734 44.5609 20.15 44.613 20.5348C44.6827 21.0316 45.1253 21.3876 45.6213 21.3449C46.8163 21.2424 47.9819 20.9127 49.056 20.3741C48.6262 21.3389 48.0677 22.2404 47.3965 23.0531H42.9335C42.9335 14.7347 36.2476 7.99128 28 7.99128C19.7524 7.99128 13.0665 14.7347 13.0665 23.0531H9.53314C9.96893 22.5222 10.4564 22.037 10.9888 21.6048ZM31.7333 23.0531C31.7333 20.9735 30.0619 19.2873 28 19.2873C25.9381 19.2873 24.2667 20.9735 24.2667 23.0531H14.9335C14.9335 15.7745 20.7834 9.87395 28 9.87395C35.2166 9.87395 41.0665 15.7745 41.0665 23.0531H31.7333ZM26.1334 23.0531C26.1334 22.0133 26.9691 21.17 28 21.17C29.0309 21.17 29.8666 22.0133 29.8666 23.0531H26.1334ZM51.3332 54.1173H4.66681V31.5249H51.3332V54.1173ZM54.1334 28.7011C54.1325 29.2208 53.7151 29.6418 53.1998 29.6422H2.80017C2.28491 29.6418 1.86749 29.2208 1.86664 28.7011V25.8769C1.86749 25.3572 2.28491 24.9362 2.80017 24.9357H53.1998C53.7151 24.9362 54.1325 25.3572 54.1334 25.8769V28.7011Z" fill="white"/>
<path d="M7.46655 37.1733C7.98224 37.1733 8.40009 36.7514 8.40009 36.2318V34.3491C8.40009 33.829 7.98224 33.4075 7.46655 33.4075C6.95129 33.4075 6.53345 33.829 6.53345 34.3491V36.2318C6.53345 36.7514 6.95129 37.1733 7.46655 37.1733Z" fill="white"/>
<path d="M7.46655 52.2347C7.98224 52.2347 8.40009 51.8132 8.40009 51.2935V39.9971C8.40009 39.4774 7.98224 39.056 7.46655 39.056C6.95129 39.056 6.53345 39.4774 6.53345 39.9971V51.2935C6.53345 51.8132 6.95129 52.2347 7.46655 52.2347Z" fill="white"/>
<path d="M24.0403 12.7262C21.1205 13.7134 18.8168 16.0063 17.7999 18.9378C17.676 19.2502 17.7269 19.6053 17.9328 19.8699C18.1392 20.134 18.4694 20.2676 18.7997 20.2198C19.1299 20.1715 19.4094 19.9496 19.5333 19.6376C21.1854 15.472 24.3637 14.5869 24.4983 14.5515C24.9977 14.424 25.3007 13.9121 25.1742 13.4079C25.0477 12.9037 24.5397 12.5986 24.0403 12.7262Z" fill="white"/>
<path d="M28 12.6982C28 13.2179 27.5822 13.6393 27.0665 13.6393C26.5512 13.6393 26.1334 13.2179 26.1334 12.6982C26.1334 12.1781 26.5512 11.7566 27.0665 11.7566C27.5822 11.7566 28 12.1781 28 12.6982Z" fill="white"/>
<path d="M42 52.2347H47.5999C48.6304 52.2338 49.4657 51.3914 49.4666 50.352V47.5278C49.4657 46.4884 48.6304 45.6464 47.5999 45.6451H42C40.9695 45.6464 40.1342 46.4884 40.1334 47.5278V50.352C40.1342 51.3914 40.9695 52.2338 42 52.2347ZM42 47.5278H47.5999L47.6012 50.352H42V47.5278Z" fill="white"/>
<path d="M44.8002 43.7624C46.8621 43.7624 48.5334 42.0767 48.5334 39.9971C48.5334 37.9175 46.8621 36.2318 44.8002 36.2318C42.7383 36.2318 41.0665 37.9175 41.0665 39.9971C41.069 42.0758 42.7391 43.7603 44.8002 43.7624ZM44.8002 38.1144C45.8311 38.1144 46.6668 38.9573 46.6668 39.9971C46.6668 41.0369 45.8311 41.8798 44.8002 41.8798C43.7692 41.8798 42.9335 41.0369 42.9335 39.9971C42.9344 38.9577 43.7697 38.1153 44.8002 38.1144Z" fill="white"/>
</svg>
