<svg width="70" height="70" viewBox="0 0 70 70" fill="none" xmlns="http://www.w3.org/2000/svg">
<rect x="32" y="32" width="38" height="38" rx="19" fill="#3774B5"/>
<path d="M21 46.6667C18.4227 46.6667 16.3333 48.756 16.3333 51.3334C16.3333 53.9107 18.4227 56 21 56C23.5773 56 25.6667 53.9107 25.6667 51.3333C25.6667 48.756 23.5773 46.6667 21 46.6667ZM21 53.6667C19.7113 53.6667 18.6667 52.6221 18.6667 51.3334C18.6667 50.0448 19.7113 49.0001 21 49.0001C22.2887 49.0001 23.3333 50.0448 23.3333 51.3334C23.3333 52.622 22.2887 53.6667 21 53.6667Z" fill="#1C1D1E"/>
<path d="M42 46.6667C39.4227 46.6667 37.3333 48.756 37.3333 51.3334C37.3333 53.9107 39.4227 56 42 56C44.5773 56 46.6667 53.9107 46.6667 51.3333C46.6667 48.756 44.5773 46.6667 42 46.6667ZM42 53.6667C40.7113 53.6667 39.6667 52.6221 39.6667 51.3334C39.6667 50.0448 40.7113 49.0001 42 49.0001C43.2887 49.0001 44.3333 50.0448 44.3333 51.3334C44.3333 52.622 43.2887 53.6667 42 53.6667Z" fill="#1C1D1E"/>
<path d="M53.6667 30.3333V40.3503L53.1837 40.8333H10.5V3.5C10.5 2.85567 9.97762 2.3333 9.3333 2.3333H1.1667C0.522375 2.3333 0 2.85567 0 3.5V7C0 7.64433 0.522375 8.1667 1.1667 8.1667H8.1667V40.8334C8.16605 40.8657 8.16605 40.8978 8.1667 40.9301C8.19339 42.1921 9.23803 43.1934 10.5 43.1667H53.6667C53.9761 43.1666 54.2728 43.0437 54.4915 42.8249L55.6582 41.6582C55.8771 41.4395 56 41.1427 56 40.8334V30.3334H53.6667V30.3333ZM8.1667 5.8333H2.3333V4.6667H8.16659L8.1667 5.8333Z" fill="#1C1D1E"/>
<path d="M15.1667 7C14.5224 7 14 7.52238 14 8.1667V37.3334H16.3333V9.33341H22.1666V7H15.1667Z" fill="#1C1D1E"/>
<path d="M36.1666 35H33.8333V37.3333H36.1666V35Z" fill="#1C1D1E"/>
<path d="M46.6666 35H44.3333V37.3333H46.6666V35Z" fill="#1C1D1E"/>
<path d="M26.8333 31.5H24.5V37.3333H26.8333V31.5Z" fill="#1C1D1E"/>
<path d="M21 22.1667H15.1667V24.5H21V22.1667Z" fill="#1C1D1E"/>
<path d="M21 14H15.1667V16.3333H21V14Z" fill="#1C1D1E"/>
<path d="M29.1667 30.3333H15.1667V32.6666H29.1667V30.3333Z" fill="#1C1D1E"/>
<path d="M50.6497 49L48.6582 47.0085C48.4395 46.7897 48.1427 46.6667 47.8334 46.6667H16.3334V42H14V47.8333C14 48.4776 14.5224 49 15.1667 49H47.3504L49.3419 50.9915C49.5607 51.2104 49.8574 51.3333 50.1667 51.3333H54.8334V49H50.6497Z" fill="#1C1D1E"/>
<path d="M39.6667 0C30.646 0 23.3334 7.3127 23.3334 16.3333C23.3334 25.3539 30.6461 32.6666 39.6667 32.6666C48.6834 32.657 55.9904 25.35 56 16.3333C56 7.3127 48.6873 0 39.6667 0ZM39.6667 30.3333C31.9348 30.3333 25.6667 24.0652 25.6667 16.3333C25.6667 8.60136 31.9348 2.3333 39.6667 2.3333C47.3952 2.34161 53.6584 8.60475 53.6667 16.3333C53.6667 24.0653 47.3986 30.3333 39.6667 30.3333Z" fill="#1C1D1E"/>
<path d="M40.8333 8.1667H38.5V24.5H40.8333V8.1667Z" fill="#1C1D1E"/>
<path d="M47.8333 15.1667H31.5V17.5H47.8333V15.1667Z" fill="#1C1D1E"/>
</svg>
