<svg width="70" height="70" viewBox="0 0 70 70" fill="none" xmlns="http://www.w3.org/2000/svg">
<rect x="32" y="32" width="38" height="38" rx="19" fill="#3774B5"/>
<path d="M57 28.1816V13.5981L33.5193 0L25.1227 4.86258V9.62309L20.9694 7.21781L12.5727 12.0805V16.7723L8.39663 14.3539L0 19.2166V46.4024L23.4801 60L31.8773 55.1494V50.4457L36.0528 52.8639L44.45 48.0132V43.2411L48.6028 45.6461L57 40.7954V29.9824H55.2452V39.7779L49.4808 43.1079V18.9687L55.2452 15.6305V28.1816H57ZM54.3678 14.1061L48.6034 17.4443L27.7547 5.3707L33.5192 2.03238L54.3678 14.1061ZM41.8178 21.3239L36.0534 24.6621L15.2048 12.5886L20.9693 9.25031L41.8178 21.3239ZM1.75468 21.249L10.5133 26.3211L11.3907 24.7968L2.63208 19.7246L8.39651 16.3863L29.2451 28.46L23.4807 31.7982L13.1455 25.8131L12.2681 27.3375L22.6033 33.3226V57.4598L1.75468 45.3861V21.249ZM24.3579 57.4617V33.3226L30.1224 29.9844V54.1318L24.3579 57.4617ZM14.3274 17.7886V14.1129L35.176 26.1865V50.3237L31.8773 48.4133V27.9519L14.3274 17.7886ZM36.9308 50.3257V26.1865L42.6952 22.8483V46.9957L36.9308 50.3257ZM26.8774 10.6393V6.89508L47.726 18.9687V43.1059L44.45 41.2086V20.8158L26.8774 10.6393Z" fill="#1C1D1E"/>
<path d="M3.50341 28.2223H5.2582V29.9824H3.50341V28.2223Z" fill="#1C1D1E"/>
<path d="M7.08754 28.2223H8.84234V29.9824H7.08754V28.2223Z" fill="#1C1D1E"/>
</svg>
