<svg width="70" height="70" viewBox="0 0 70 70" fill="none" xmlns="http://www.w3.org/2000/svg">
<rect x="32" y="32.0002" width="38" height="38" rx="19" fill="#3774B5"/>
<path d="M49 51.6239C45.1339 51.6239 42 48.4895 42 44.6226C42 40.7562 45.1339 37.6213 49 37.6213C52.8661 37.6213 56 40.7562 56 44.6226C55.9957 48.4878 52.864 51.6197 49 51.6239ZM49 39.3716C46.1007 39.3716 43.75 41.7228 43.75 44.6226C43.75 47.5229 46.1007 49.8736 49 49.8736C51.8993 49.8736 54.25 47.5229 54.25 44.6226C54.2466 41.7241 51.898 39.375 49 39.3716Z" fill="#1C1D1E"/>
<path d="M56 44.6226H54.25V11.3663C54.25 8.46649 51.8993 6.11534 49 6.11534C46.1007 6.11534 43.75 8.46649 43.75 11.3663V44.6226H42V11.3663C42 7.49988 45.1339 4.36501 49 4.36501C52.8661 4.36501 56 7.49988 56 11.3663V44.6226Z" fill="#1C1D1E"/>
<path d="M49 48.1233C47.0671 48.1233 45.5 46.5563 45.5 44.6226C45.5 42.6894 47.0671 41.1219 49 41.1219C50.9329 41.1219 52.5 42.6894 52.5 44.6226C52.5 46.5563 50.9329 48.1233 49 48.1233ZM49 42.8723C48.0336 42.8723 47.25 43.656 47.25 44.6226C47.25 45.5896 48.0336 46.3729 49 46.3729C49.9664 46.3729 50.75 45.5896 50.75 44.6226C50.75 43.656 49.9664 42.8723 49 42.8723Z" fill="#1C1D1E"/>
<path d="M4.375 51.6239H0.875C0.391785 51.6239 0 51.2325 0 50.7488V12.2415C0 11.7582 0.391785 11.3663 0.875 11.3663H23.625V13.1167H1.75V49.8736H4.375V51.6239Z" fill="#1C1D1E"/>
<path d="M28 46.3729H43.75V48.1233H28V46.3729Z" fill="#1C1D1E"/>
<path d="M5.25 20.9931H3.5V15.7422C3.5 15.2588 3.89178 14.867 4.375 14.867H20.125V16.6173H5.25V20.9931Z" fill="#1C1D1E"/>
<path d="M35.875 55.9998H4.375C3.89178 55.9998 3.5 55.6083 3.5 55.1246V23.6186C3.5 23.2648 3.7132 22.946 4.04004 22.8106C4.36688 22.6751 4.74329 22.7499 4.99365 23.0003L36.4937 54.5063C36.7436 54.7562 36.8188 55.1327 36.6833 55.4596C36.5479 55.7865 36.2288 55.9998 35.875 55.9998ZM5.25 54.2494H33.7627L5.25 25.7313V54.2494Z" fill="#1C1D1E"/>
<path d="M31.5 49.8736H49V51.6239H31.5V49.8736Z" fill="#1C1D1E"/>
<path d="M25.375 51.6239H8.75C8.26678 51.6239 7.875 51.2325 7.875 50.7488V34.1206C7.875 33.7668 8.0882 33.448 8.41504 33.3125C8.74188 33.1771 9.11829 33.2519 9.36865 33.5023L25.9937 50.1304C26.2436 50.3804 26.3188 50.7569 26.1833 51.0838C26.0479 51.4107 25.7288 51.6239 25.375 51.6239ZM9.625 49.8736H23.2627L9.625 36.2333V49.8736Z" fill="#1C1D1E"/>
<path d="M8.75 46.3729H21.875V48.1233H8.75V46.3729Z" fill="#1C1D1E"/>
<path d="M19.0197 25.4348C18.6416 25.4348 18.3062 25.1912 18.1887 24.8318L17.6235 23.1067L16.6609 22.1221L14.9745 21.5491C14.69 21.4525 14.4747 21.2162 14.4046 20.9235C14.335 20.6308 14.4204 20.3227 14.631 20.1077L34.1083 0.251986C34.457 -0.0843207 35.009 -0.0843207 35.358 0.251986L39.1204 4.09109C39.454 4.43167 39.454 4.97608 39.1204 5.31666L19.6448 25.1724C19.4803 25.3403 19.2551 25.4348 19.0197 25.4348ZM16.8523 20.3398L17.4175 20.5321C17.5479 20.5761 17.6653 20.6504 17.7615 20.7483L19.0172 22.0277C19.1111 22.1239 19.1821 22.2405 19.2239 22.3683L19.4038 22.9187L37.2751 4.70388L34.7377 2.11428L16.8523 20.3398Z" fill="#1C1D1E"/>
<path d="M12.7418 27.9945C12.4525 27.9945 12.1821 27.8517 12.0189 27.6124C11.8561 27.3736 11.8215 27.0693 11.927 26.8001L14.4384 20.4009L16.0666 21.0397L14.3012 25.5382L18.6882 23.7503L19.3508 25.369L13.0724 27.9299C12.9673 27.9727 12.855 27.9945 12.7418 27.9945Z" fill="#1C1D1E"/>
<path d="M30.3426 5.31709L31.5919 4.09109L35.358 7.93019L34.1088 9.15619L30.3426 5.31709Z" fill="#1C1D1E"/>
<path d="M28.4593 7.23664L29.7086 6.01064L33.4747 9.85017L32.2259 11.0757L28.4593 7.23664Z" fill="#1C1D1E"/>
<path d="M28 36.7461H26.25V34.1206C26.2491 33.6557 26.6123 33.2711 27.0767 33.2455L30.2836 33.0707C30.5515 32.1583 30.9181 31.278 31.3765 30.4452L29.2292 28.0487C28.919 27.7026 28.9335 27.174 29.2625 26.8454L32.9719 23.1349C33.3 22.8063 33.8281 22.7918 34.1741 23.1016L36.5748 25.2468C37.4075 24.7874 38.2877 24.4203 39.1998 24.1528L39.375 20.9453C39.4006 20.4808 39.7847 20.1176 40.25 20.118H42.875V21.8683H41.0784L40.9131 24.8835C40.8922 25.2703 40.6191 25.5972 40.2423 25.6869C39.0674 25.9672 37.945 26.4339 36.9171 27.0689C36.5872 27.2714 36.1634 27.233 35.875 26.9744L33.6217 24.9545L31.0843 27.4924L33.1056 29.7448C33.3636 30.0337 33.4012 30.4576 33.1983 30.7875C32.5638 31.8152 32.0973 32.9378 31.8166 34.1129C31.7269 34.4894 31.4 34.762 31.0134 34.7834L28 34.9488V36.7461Z" fill="#1C1D1E"/>
<path d="M35.875 36.7461H34.125C34.131 31.9152 38.045 28.0005 42.875 27.9945V29.7448C39.011 29.7495 35.8793 32.8814 35.875 36.7461Z" fill="#1C1D1E"/>
<path d="M17.5 35.871H42.875V37.6213H17.5V35.871Z" fill="#1C1D1E"/>
<path d="M38.5 39.3716H40.25V41.1219H38.5V39.3716Z" fill="#1C1D1E"/>
<path d="M35 39.3716H36.75V41.1219H35V39.3716Z" fill="#1C1D1E"/>
<path d="M31.5 39.3716H33.25V41.1219H31.5V39.3716Z" fill="#1C1D1E"/>
<path d="M28.875 42.8723H40.25V44.6226H28.875V42.8723Z" fill="#1C1D1E"/>
<path d="M22.75 36.7461H21V34.1206C21 33.6373 20.6082 33.2455 20.125 33.2455H19.25C17.8004 33.2455 16.625 32.0703 16.625 30.62C16.625 29.17 17.8004 27.9945 19.25 27.9945H23.625C24.1082 27.9945 24.5 27.603 24.5 27.1193V25.369H26.25V27.1193C26.25 28.5697 25.0746 29.7448 23.625 29.7448H19.25C18.7668 29.7448 18.375 30.1367 18.375 30.62C18.375 31.1037 18.7668 31.4951 19.25 31.4951H20.125C21.5746 31.4951 22.75 32.6707 22.75 34.1206V36.7461Z" fill="#1C1D1E"/>
<path d="M24.5 21.8683H26.25V23.6186H24.5V21.8683Z" fill="#1C1D1E"/>
<path d="M31.5 11.3663H42.875V13.1167H31.5V11.3663Z" fill="#1C1D1E"/>
<path d="M28 14.867H42.875V16.6173H28V14.867Z" fill="#1C1D1E"/>
</svg>
