<svg width="70" height="70" viewBox="0 0 70 70" fill="none" xmlns="http://www.w3.org/2000/svg">
<rect x="32" y="32" width="38" height="38" rx="19" fill="#3774B5"/>
<path d="M3.2559 35.4326V52.9326H52.744V35.4326H3.2559ZM27.1696 51.1289H4.91657V37.0897H27.1696V51.1289ZM51.0834 51.2754H28.8303V47.6516H51.0834V51.2754ZM51.0834 45.9945H28.8303V42.3707H51.0834V45.9945ZM51.0834 40.7134H28.8303V37.0896H51.0834V40.7134Z" fill="white"/>
<path d="M0 0V15.6562H13.257V18.9575H42.743V15.6562H56V0H0ZM41.0824 17.3004H14.9176V15.6562H41.0824V17.3004ZM1.66067 13.999V1.65714H54.3393V13.999H1.66067Z" fill="white"/>
<path d="M3.2559 2.63375V13.0224H52.7441V2.63375H3.2559ZM19.1984 11.3653H4.91657V4.29089H19.1984V11.3653ZM35.141 11.3653H20.859V4.29089H35.141V11.3653ZM51.0834 11.3653H36.8016V4.29089H51.0834V11.3653Z" fill="white"/>
<path d="M52.5592 32.3652C52.9055 31.8966 53.1432 31.3421 53.2306 30.7365L54.0328 25.1834H42.1698L42.9719 30.7363C43.0594 31.3418 43.2971 31.8966 43.6434 32.3652H40.0916V29.6425H37.7313V27.5253H35.3602V29.1825H36.0708V29.6425H31.9697V29.1825H32.7697V27.5253H30.309V29.6425H25.6915V27.5253H23.3203V29.1825H24.0309V29.6425H19.9298V29.1825H20.7297V27.5253H18.269V29.6425H15.9087V32.3652H0V56H56V32.3652H52.5592ZM52.1157 26.8406L51.5872 30.5002C51.4471 31.4695 50.6014 32.2005 49.6198 32.2005H46.5828C45.6014 32.2005 44.7555 31.4696 44.6155 30.5001L44.0869 26.8406H52.1157ZM17.5693 31.2996H38.4308V32.3652H17.5693V31.2996ZM54.3394 54.3429H1.66067V34.0224H54.3394V54.3429Z" fill="white"/>
<path d="M13.9101 8.81934H9.69197V10.4765H13.9101V8.81934Z" fill="white"/>
<path d="M16.4564 8.81934H14.7958V10.4755H16.4564V8.81934Z" fill="white"/>
<path d="M17.4053 39.5893H13.1871V41.2464H17.4053V39.5893Z" fill="white"/>
<path d="M19.9516 39.5893H18.2909V41.2453H19.9516V39.5893Z" fill="white"/>
<path d="M41.5061 38.0735H37.288V39.7307H41.5061V38.0735Z" fill="white"/>
<path d="M44.0524 38.0735H42.3917V39.7297H44.0524V38.0735Z" fill="white"/>
<path d="M41.5061 43.3543H37.288V45.0114H41.5061V43.3543Z" fill="white"/>
<path d="M44.0524 43.3543H42.3917V45.0102H44.0524V43.3543Z" fill="white"/>
<path d="M41.5061 48.6351H37.288V50.2923H41.5061V48.6351Z" fill="white"/>
<path d="M44.0524 48.6351H42.3917V50.2912H44.0524V48.6351Z" fill="white"/>
<path d="M29.5835 8.81934H25.3654V10.4765H29.5835V8.81934Z" fill="white"/>
<path d="M32.1299 8.81934H30.4692V10.4755H32.1299V8.81934Z" fill="white"/>
<path d="M45.6921 8.81934H41.474V10.4765H45.6921V8.81934Z" fill="white"/>
<path d="M48.2384 8.81934H46.5778V10.4755H48.2384V8.81934Z" fill="white"/>
</svg>
