<svg width="70" height="70" viewBox="0 0 70 70" fill="none" xmlns="http://www.w3.org/2000/svg">
<rect x="32" y="32.0005" width="38" height="38" rx="19" fill="#3774B5"/>
<path d="M49 51.6242C45.1339 51.6242 42 48.4897 42 44.6229C42 40.7564 45.1339 37.6215 49 37.6215C52.8661 37.6215 56 40.7564 56 44.6229C55.9957 48.488 52.864 51.6199 49 51.6242ZM49 39.3719C46.1007 39.3719 43.75 41.723 43.75 44.6229C43.75 47.5231 46.1007 49.8738 49 49.8738C51.8993 49.8738 54.25 47.5231 54.25 44.6229C54.2466 41.7243 51.898 39.3753 49 39.3719Z" fill="white"/>
<path d="M56 44.6229H54.25V11.3666C54.25 8.46673 51.8993 6.11558 49 6.11558C46.1007 6.11558 43.75 8.46673 43.75 11.3666V44.6229H42V11.3666C42 7.50012 45.1339 4.36525 49 4.36525C52.8661 4.36525 56 7.50012 56 11.3666V44.6229Z" fill="white"/>
<path d="M49 48.1235C47.0671 48.1235 45.5 46.5565 45.5 44.6229C45.5 42.6896 47.0671 41.1222 49 41.1222C50.9329 41.1222 52.5 42.6896 52.5 44.6229C52.5 46.5565 50.9329 48.1235 49 48.1235ZM49 42.8725C48.0336 42.8725 47.25 43.6562 47.25 44.6229C47.25 45.5899 48.0336 46.3732 49 46.3732C49.9664 46.3732 50.75 45.5899 50.75 44.6229C50.75 43.6562 49.9664 42.8725 49 42.8725Z" fill="white"/>
<path d="M4.375 51.6242H0.875C0.391785 51.6242 0 51.2327 0 50.749V12.2417C0 11.7584 0.391785 11.3666 0.875 11.3666H23.625V13.1169H1.75V49.8738H4.375V51.6242Z" fill="white"/>
<path d="M28 46.3732H43.75V48.1235H28V46.3732Z" fill="white"/>
<path d="M5.25 20.9934H3.5V15.7424C3.5 15.2591 3.89178 14.8672 4.375 14.8672H20.125V16.6176H5.25V20.9934Z" fill="white"/>
<path d="M35.875 56H4.375C3.89178 56 3.5 55.6086 3.5 55.1248V23.6189C3.5 23.2651 3.7132 22.9463 4.04004 22.8108C4.36688 22.6753 4.74329 22.7501 4.99365 23.0005L36.4937 54.5065C36.7436 54.7565 36.8188 55.133 36.6833 55.4599C36.5479 55.7868 36.2288 56 35.875 56ZM5.25 54.2497H33.7627L5.25 25.7316V54.2497Z" fill="white"/>
<path d="M31.5 49.8738H49V51.6242H31.5V49.8738Z" fill="white"/>
<path d="M25.375 51.6242H8.75C8.26678 51.6242 7.875 51.2327 7.875 50.749V34.1209C7.875 33.767 8.0882 33.4483 8.41504 33.3128C8.74188 33.1773 9.11829 33.2521 9.36865 33.5025L25.9937 50.1307C26.2436 50.3807 26.3188 50.7571 26.1833 51.084C26.0479 51.4109 25.7288 51.6242 25.375 51.6242ZM9.625 49.8738H23.2627L9.625 36.2336V49.8738Z" fill="white"/>
<path d="M8.75 46.3732H21.875V48.1235H8.75V46.3732Z" fill="white"/>
<path d="M19.0197 25.435C18.6416 25.435 18.3062 25.1914 18.1887 24.8321L17.6235 23.1069L16.6609 22.1224L14.9745 21.5493C14.69 21.4528 14.4747 21.2165 14.4046 20.9237C14.335 20.631 14.4204 20.3229 14.631 20.108L34.1083 0.25223C34.457 -0.0840765 35.009 -0.0840765 35.358 0.25223L39.1204 4.09133C39.454 4.43191 39.454 4.97633 39.1204 5.31691L19.6448 25.1726C19.4803 25.3406 19.2551 25.435 19.0197 25.435ZM16.8523 20.34L17.4175 20.5323C17.5479 20.5763 17.6653 20.6507 17.7615 20.7485L19.0172 22.0279C19.1111 22.1241 19.1821 22.2408 19.2239 22.3685L19.4038 22.9189L37.2751 4.70412L34.7377 2.11452L16.8523 20.34Z" fill="white"/>
<path d="M12.7418 27.9947C12.4525 27.9947 12.1821 27.852 12.0189 27.6127C11.8561 27.3738 11.8215 27.0695 11.927 26.8003L14.4384 20.4011L16.0666 21.04L14.3012 25.5384L18.6882 23.7505L19.3508 25.3692L13.0724 27.9302C12.9673 27.9729 12.855 27.9947 12.7418 27.9947Z" fill="white"/>
<path d="M30.3426 5.31733L31.5919 4.09133L35.358 7.93044L34.1088 9.15644L30.3426 5.31733Z" fill="white"/>
<path d="M28.4593 7.23689L29.7086 6.01089L33.4747 9.85042L32.2259 11.076L28.4593 7.23689Z" fill="white"/>
<path d="M28 36.7464H26.25V34.1209C26.2491 33.6559 26.6123 33.2713 27.0767 33.2457L30.2836 33.0709C30.5515 32.1586 30.9181 31.2783 31.3765 30.4454L29.2292 28.049C28.919 27.7028 28.9335 27.1742 29.2625 26.8456L32.9719 23.1352C33.3 22.8065 33.8281 22.792 34.1741 23.1018L36.5748 25.247C37.4075 24.7876 38.2877 24.4206 39.1998 24.153L39.375 20.9455C39.4006 20.481 39.7847 20.1178 40.25 20.1182H42.875V21.8686H41.0784L40.9131 24.8838C40.8922 25.2705 40.6191 25.5974 40.2423 25.6871C39.0674 25.9675 37.945 26.4341 36.9171 27.0691C36.5872 27.2717 36.1634 27.2332 35.875 26.9747L33.6217 24.9547L31.0843 27.4926L33.1056 29.745C33.3636 30.0339 33.4012 30.4578 33.1983 30.7877C32.5638 31.8154 32.0973 32.938 31.8166 34.1132C31.7269 34.4897 31.4 34.7623 31.0134 34.7837L28 34.949V36.7464Z" fill="white"/>
<path d="M35.875 36.7464H34.125C34.131 31.9154 38.045 28.0007 42.875 27.9947V29.745C39.011 29.7497 35.8793 32.8816 35.875 36.7464Z" fill="white"/>
<path d="M17.5 35.8712H42.875V37.6215H17.5V35.8712Z" fill="white"/>
<path d="M38.5 39.3719H40.25V41.1222H38.5V39.3719Z" fill="white"/>
<path d="M35 39.3719H36.75V41.1222H35V39.3719Z" fill="white"/>
<path d="M31.5 39.3719H33.25V41.1222H31.5V39.3719Z" fill="white"/>
<path d="M28.875 42.8725H40.25V44.6229H28.875V42.8725Z" fill="white"/>
<path d="M22.75 36.7464H21V34.1209C21 33.6376 20.6082 33.2457 20.125 33.2457H19.25C17.8004 33.2457 16.625 32.0706 16.625 30.6202C16.625 29.1703 17.8004 27.9947 19.25 27.9947H23.625C24.1082 27.9947 24.5 27.6033 24.5 27.1195V25.3692H26.25V27.1195C26.25 28.5699 25.0746 29.745 23.625 29.745H19.25C18.7668 29.745 18.375 30.1369 18.375 30.6202C18.375 31.1039 18.7668 31.4954 19.25 31.4954H20.125C21.5746 31.4954 22.75 32.6709 22.75 34.1209V36.7464Z" fill="white"/>
<path d="M24.5 21.8686H26.25V23.6189H24.5V21.8686Z" fill="white"/>
<path d="M31.5 11.3666H42.875V13.1169H31.5V11.3666Z" fill="white"/>
<path d="M28 14.8672H42.875V16.6176H28V14.8672Z" fill="white"/>
</svg>
