<svg width="70" height="70" viewBox="0 0 70 70" fill="none" xmlns="http://www.w3.org/2000/svg">
<rect x="32" y="32" width="38" height="38" rx="19" fill="#3774B5"/>
<path d="M54.9714 49.4068H49.2879L47.908 36.2925L49.4351 38.5839L49.8134 40.4791C49.996 41.3926 50.57 42.1701 51.3889 42.6147C51.8529 42.8664 52.3626 42.9932 52.875 42.9932C53.2673 42.9932 53.6614 42.9186 54.0369 42.7686C54.8456 42.4451 55.4866 41.7925 55.7969 40.9778C56.1062 40.1631 56.0606 39.2495 55.6711 38.4692L54.8736 36.8724C54.8708 36.8658 54.8652 36.8621 54.8615 36.8565C54.8596 36.8519 54.8596 36.8472 54.8577 36.8425L49.2674 26.5883C49.164 26.3981 48.9963 26.2499 48.796 26.1688L46.271 25.1583C48.1661 23.6183 49.3811 21.271 49.3811 18.6441C49.3811 17.2392 49.0112 15.8558 48.331 14.6179L47.8503 9.80585C49.3503 9.17008 50.3128 7.92186 50.3128 6.52542C50.3128 4.51839 48.3217 2.87678 45.8378 2.79941C44.8473 1.07949 43.0109 0 40.9956 0C38.9803 0 37.1439 1.07949 36.1535 2.79941C33.6695 2.87678 31.6784 4.51839 31.6784 6.52542C31.6784 7.92186 32.6409 9.17008 34.141 9.80585L33.6602 14.6179C32.98 15.8558 32.6102 17.2392 32.6102 18.6441C32.6102 21.271 33.8251 23.6183 35.7212 25.1574L33.1962 26.1679C33.0471 26.2275 32.9158 26.3254 32.8151 26.4513L29.6706 30.3842L25.871 27.3434L24.8564 25.6514C24.684 25.3634 24.4641 25.1192 24.2265 24.8964V22.3729C24.2265 21.1592 23.4448 20.1337 22.3631 19.7478V15.8475H23.2948C24.8359 15.8475 26.09 14.5927 26.09 13.0508V7.45763C26.09 5.91576 24.8359 4.66102 23.2948 4.66102H19.568C18.0269 4.66102 16.7728 5.91576 16.7728 7.45763V13.0508C16.7728 14.5927 18.0269 15.8475 19.568 15.8475H20.4997V19.7478C19.4179 20.1337 18.6362 21.1592 18.6362 22.3729V26.1017C18.6362 26.1026 18.6362 26.1045 18.6362 26.1054C18.4033 26.6601 18.299 27.2651 18.3744 27.8841C18.5077 28.9626 19.1179 29.9023 20.0487 30.4616L21.8115 31.5197L28.0056 36.9423C29.0463 37.8521 30.5716 37.8717 31.6356 36.9852L34.2397 34.8131L32.7033 49.4068H16.415L17.5079 47.2198C19.2521 46.5459 20.4978 44.8614 20.4978 42.8814V40.8454C21.5795 40.4595 22.3612 39.4341 22.3612 38.2203C22.3612 36.6785 21.1072 35.4237 19.5661 35.4237H2.79516C1.25409 35.4237 0 36.6785 0 38.2203C0 39.4341 0.781712 40.4595 1.86344 40.8454V42.8814C1.86344 44.8614 3.10915 46.5459 4.85332 47.2198L5.94623 49.4068H0.931719C0.41741 49.4068 0 49.8244 0 50.339V54.0678C0 54.5824 0.41741 55 0.931719 55H54.9714C55.4857 55 55.9031 54.5824 55.9031 54.0678V50.339C55.9031 49.8244 55.4857 49.4068 54.9714 49.4068ZM20.4978 13.9831H19.5661C19.0527 13.9831 18.6344 13.5645 18.6344 13.0508V7.45763C18.6344 6.94398 19.0527 6.52542 19.5661 6.52542H20.4978V13.9831ZM54.0043 39.3017C54.1636 39.6205 54.1822 39.9803 54.0555 40.3141C53.9288 40.6469 53.6763 40.9042 53.3456 41.0365C52.998 41.1754 52.6076 41.1531 52.2778 40.9741C51.948 40.7951 51.715 40.4809 51.6414 40.1127L51.4011 38.9092L53.5412 38.3742L54.0043 39.3017ZM47.7925 27.775L52.6449 36.6757L50.7237 37.1558L47.4478 32.2393L46.0949 27.0954L47.7925 27.775ZM45.7474 33.5593L47.4152 49.4068H34.577L36.2439 33.5593H45.7474ZM36.6147 31.6949L37.988 26.4699C38.0253 26.4839 38.0635 26.4942 38.1008 26.5072C38.288 26.5762 38.4763 26.6424 38.6691 26.6983C38.7427 26.7197 38.8173 26.7365 38.8909 26.7552C39.0688 26.8018 39.2468 26.8465 39.4285 26.881C39.5198 26.8987 39.612 26.909 39.7033 26.923C39.872 26.9491 40.0397 26.977 40.2111 26.9938C40.3313 27.005 40.4524 27.0059 40.5726 27.0125C40.7142 27.0199 40.8531 27.0339 40.9956 27.0339C41.1382 27.0339 41.277 27.0199 41.4186 27.0125C41.5397 27.0059 41.6599 27.005 41.7801 26.9938C41.9516 26.978 42.1193 26.95 42.2879 26.923C42.3792 26.909 42.4715 26.8987 42.5628 26.881C42.7445 26.8465 42.9224 26.8008 43.1004 26.7552C43.174 26.7356 43.2485 26.7197 43.3221 26.6983C43.515 26.6424 43.7041 26.5771 43.8905 26.5072C43.9277 26.4932 43.9659 26.4839 44.0032 26.4699L45.3775 31.6949H36.6147ZM33.5419 6.52542C33.5419 5.51492 34.8221 4.66102 36.337 4.66102C36.3911 4.66102 36.4423 4.66754 36.4945 4.67314L36.6445 4.68712C37.0368 4.71042 37.4132 4.49136 37.5716 4.125C38.1604 2.75186 39.5049 1.86441 40.9956 1.86441C42.4864 1.86441 43.8308 2.75186 44.4206 4.125C44.5781 4.49136 44.9601 4.71788 45.3477 4.68712L45.4977 4.67314C45.5489 4.66754 45.6002 4.66102 45.6542 4.66102C47.1692 4.66102 48.4494 5.51492 48.4494 6.52542C48.4494 7.27025 47.6965 7.98246 46.6185 8.25839C46.1722 8.37212 45.876 8.79534 45.9216 9.25398L46.4881 14.9153H35.5031L36.0687 9.25492C36.1143 8.79627 35.8181 8.37305 35.3718 8.25932C34.2947 7.98246 33.5419 7.27025 33.5419 6.52542ZM34.4736 18.6441C34.4736 18.012 34.5677 17.3837 34.7484 16.7797H47.2419C47.4235 17.3837 47.5177 18.012 47.5177 18.6441C47.5177 21.2319 45.9999 23.4664 43.8122 24.5207C43.6007 24.6223 43.3845 24.7127 43.1656 24.7901C43.1553 24.7938 43.1451 24.7975 43.1348 24.8013C41.7466 25.2869 40.2428 25.2869 38.8545 24.8013C38.8443 24.7975 38.834 24.7938 38.8238 24.7901C38.6048 24.7127 38.3896 24.6223 38.1772 24.5207C35.9914 23.4664 34.4736 21.2319 34.4736 18.6441ZM22.3612 6.52542H23.293C23.8063 6.52542 24.2247 6.94398 24.2247 7.45763V13.0508C24.2247 13.5645 23.8063 13.9831 23.293 13.9831H22.3612V6.52542ZM21.4295 21.4407C21.9429 21.4407 22.3612 21.8592 22.3612 22.3729V23.9931C22.3557 23.9921 22.3491 23.9921 22.3435 23.9912C22.3212 23.9884 22.3016 23.9781 22.2793 23.9753C22.228 23.9688 22.1777 23.9781 22.1274 23.9735C21.9653 23.9604 21.805 23.9586 21.6429 23.9679C21.5618 23.9725 21.4817 23.9725 21.4025 23.9828C21.2106 24.007 21.0233 24.0518 20.8379 24.1077C20.7587 24.132 20.6823 24.1571 20.605 24.186C20.5696 24.1991 20.5332 24.2075 20.4987 24.2214V22.3729H20.4978C20.4978 21.8592 20.9162 21.4407 21.4295 21.4407ZM21.0075 28.8629C20.5705 28.6009 20.2844 28.1609 20.223 27.6557C20.182 27.3266 20.25 27.005 20.3953 26.7188C20.399 26.7114 20.4056 26.7067 20.4093 26.6992C20.4494 26.6228 20.4894 26.5575 20.5304 26.497C20.5807 26.427 20.6301 26.3562 20.6916 26.2947C20.822 26.1632 20.9739 26.0635 21.1332 25.9861C21.1463 25.9796 21.1593 25.9712 21.1724 25.9647C21.3317 25.8929 21.5013 25.8481 21.6746 25.8304C21.6876 25.8295 21.6997 25.8276 21.7128 25.8267C21.8814 25.8127 22.0519 25.8276 22.2196 25.8658C22.2373 25.8696 22.255 25.8733 22.2718 25.878C22.446 25.9246 22.6156 25.9964 22.7712 26.1026C22.7759 26.1054 22.7815 26.1073 22.7861 26.1101C22.9734 26.2406 23.1364 26.4075 23.2585 26.6107L23.9843 27.8216L22.2178 29.5891L21.0075 28.8629ZM30.4411 35.5524C30.0871 35.847 29.5774 35.8423 29.2308 35.5384L23.7234 30.717L25.2244 29.2153L29.2317 32.423C29.6324 32.7446 30.2194 32.6803 30.5408 32.2775L34.1139 27.8086L35.8945 27.0964L34.5779 32.1032L30.4411 35.5524ZM2.79516 39.1525C2.28178 39.1525 1.86344 38.734 1.86344 38.2203C1.86344 37.7067 2.28178 37.2881 2.79516 37.2881H19.5661C20.0795 37.2881 20.4978 37.7067 20.4978 38.2203C20.4978 38.734 20.0795 39.1525 19.5661 39.1525H2.79516ZM3.72687 42.8814V41.0169H18.6344V42.8814C18.6344 44.4232 17.3803 45.678 15.8392 45.678H6.52203C4.98097 45.678 3.72687 44.4232 3.72687 42.8814ZM15.2634 47.5424L14.3317 49.4068H12.1123V47.5424H15.2634ZM10.2489 47.5424V49.4068H8.02955L7.09783 47.5424H10.2489ZM54.0397 53.1356H1.86344V51.2712H54.0397V53.1356Z" fill="#1C1D1E"/>
<path d="M43.7908 37.2881H38.2005C37.6862 37.2881 37.2687 37.7058 37.2687 38.2203V41.0169C37.2687 43.0734 38.9403 44.7458 40.9956 44.7458C43.051 44.7458 44.7225 43.0734 44.7225 41.0169V38.2203C44.7225 37.7058 44.3051 37.2881 43.7908 37.2881ZM42.8591 41.0169C42.8591 42.0452 42.0233 42.8814 40.9956 42.8814C39.9679 42.8814 39.1322 42.0452 39.1322 41.0169V39.1525H42.8591V41.0169Z" fill="#1C1D1E"/>
<path d="M12.1123 27.9661H10.2489V32.6271H12.1123V27.9661Z" fill="#1C1D1E"/>
<path d="M16.7709 29.8305H14.9075V33.5593H16.7709V29.8305Z" fill="#1C1D1E"/>
<path d="M7.45375 29.8305H5.59031V33.5593H7.45375V29.8305Z" fill="#1C1D1E"/>
<path d="M12.1123 24.2373H10.2489V26.1017H12.1123V24.2373Z" fill="#1C1D1E"/>
<path d="M7.45375 26.1017H5.59031V27.9661H7.45375V26.1017Z" fill="#1C1D1E"/>
<path d="M16.7709 26.1017H14.9075V27.9661H16.7709V26.1017Z" fill="#1C1D1E"/>
</svg>
