<svg width="16" height="17" viewBox="0 0 16 17" fill="none" xmlns="http://www.w3.org/2000/svg">
<path d="M8 0.5C3.58203 0.5 0 4.08332 0 8.5C0 12.9193 3.58203 16.5 8 16.5C12.418 16.5 16 12.9193 16 8.5C16 4.08332 12.418 0.5 8 0.5ZM8 4.04839C8.74826 4.04839 9.35484 4.65497 9.35484 5.40323C9.35484 6.15148 8.74826 6.75806 8 6.75806C7.25174 6.75806 6.64516 6.15148 6.64516 5.40323C6.64516 4.65497 7.25174 4.04839 8 4.04839ZM9.80645 12.2419C9.80645 12.4557 9.63313 12.629 9.41936 12.629H6.58065C6.36687 12.629 6.19355 12.4557 6.19355 12.2419V11.4677C6.19355 11.254 6.36687 11.0806 6.58065 11.0806H6.96774V9.01613H6.58065C6.36687 9.01613 6.19355 8.84281 6.19355 8.62903V7.85484C6.19355 7.64106 6.36687 7.46774 6.58065 7.46774H8.64516C8.85894 7.46774 9.03226 7.64106 9.03226 7.85484V11.0806H9.41936C9.63313 11.0806 9.80645 11.254 9.80645 11.4677V12.2419Z" fill="#1C1D1E"/>
</svg>
