<svg width="16" height="17" viewBox="0 0 16 17" fill="none" xmlns="http://www.w3.org/2000/svg">
<path fill-rule="evenodd" clip-rule="evenodd" d="M1.5 2.68892V14.0628C1.5 15.4088 2.59131 16.5 3.9375 16.5H12.0625C13.4087 16.5 14.5 15.4088 14.5 14.0628V5.93859C14.5 4.59254 13.4087 3.50134 12.0625 3.50134H2.3125C1.86377 3.50134 1.5 3.1376 1.5 2.68892ZM4.14062 8.37584C4.14062 8.03933 4.41345 7.76652 4.75 7.76652H11.25C11.5865 7.76652 11.8594 8.03933 11.8594 8.37584C11.8594 8.71234 11.5865 8.98515 11.25 8.98515H4.75C4.41345 8.98515 4.14062 8.71234 4.14062 8.37584ZM4.14062 11.2193C4.14062 10.8828 4.41345 10.61 4.75 10.61H9.21875C9.55529 10.61 9.82812 10.8828 9.82812 11.2193C9.82812 11.5558 9.55529 11.8286 9.21875 11.8286H4.75C4.41345 11.8286 4.14062 11.5558 4.14062 11.2193Z" fill="#1C1D1E"/>
<path d="M1.83214 1.94727C2.11528 2.07423 2.3125 2.35855 2.3125 2.68892H12.0625C12.3431 2.68892 12.6153 2.72447 12.875 2.7913V2.12514C12.875 1.13635 11.9991 0.376802 11.0202 0.516635L2.24717 1.7698C2.09079 1.79214 1.94908 1.85517 1.83214 1.94727Z" fill="#1C1D1E"/>
</svg>
