<svg width="16" height="17" viewBox="0 0 16 17" fill="none" xmlns="http://www.w3.org/2000/svg">
<path fill-rule="evenodd" clip-rule="evenodd" d="M4.75673 5.83187C4.75673 5.46382 4.45298 5.16511 4.0772 5.16511H0.679533C0.304431 5.16511 0 5.46382 0 5.83187V15.8332C0 16.2013 0.304431 16.5 0.679533 16.5H4.0772C4.45298 16.5 4.75673 16.2013 4.75673 15.8332V5.83187Z" fill="#1C1D1E"/>
<path fill-rule="evenodd" clip-rule="evenodd" d="M8.78569 1.78865L6.1756 6.86535C6.12803 6.95802 6.10289 7.06137 6.10289 7.16539V14.4997C6.10289 14.6771 6.17492 14.8471 6.30335 14.9725L7.66854 16.306C7.79629 16.43 7.96821 16.5 8.14829 16.5H12.464C13.4357 16.5 14.2722 15.8272 14.4625 14.8924L15.9602 7.55144C16.0805 6.96336 15.9249 6.35327 15.5375 5.88988C15.1495 5.42648 14.5706 5.15778 13.9597 5.15844L11.9469 5.16044L12.6407 3.09016C12.9832 2.06802 12.4158 0.966535 11.374 0.630489C11.3407 0.619821 11.3074 0.609153 11.2741 0.597818C10.2501 0.267773 9.14788 0.799846 8.78569 1.78865Z" fill="#1C1D1E"/>
</svg>
