<svg width="16" height="17" viewBox="0 0 16 17" fill="none" xmlns="http://www.w3.org/2000/svg">
<path d="M8 16.5C7.26316 16.5 8.13484 15.3249 4.50221 13.4972C4.30319 13.3969 4.11007 13.2851 3.92379 13.1623C2.11632 11.9746 1 9.80233 1 7.46409C1 3.61814 4.13379 0.5 8 0.5C11.8662 0.5 15 3.61814 15 7.46335C15 10.0397 13.6413 12.4174 11.5037 13.4942C7.86737 15.3242 8.73684 16.5 8 16.5ZM8 10.2563C9.55547 10.2563 10.8 9.012 10.8 7.49907C10.8 5.98614 9.55547 4.74186 8 4.74186C6.44453 4.74186 5.2 5.98614 5.2 7.49907C5.2 9.012 6.44453 10.2563 8 10.2563Z" fill="#1C1D1E"/>
</svg>
