<svg width="264" height="83" viewBox="0 0 264 83" fill="none" xmlns="http://www.w3.org/2000/svg">
<g clip-path="url(#clip0_44001_2)">
<path fill-rule="evenodd" clip-rule="evenodd" d="M91.9362 48.2261L61.6875 44.374V67.0963L91.9362 79.4788V48.2261Z" fill="#3774B5"/>
<path fill-rule="evenodd" clip-rule="evenodd" d="M14.8262 82.4599L14.9482 0.463867L30.9702 3.62225V3.62574L61.7627 9.78912V28.478H30.9702V77.1053L14.8262 82.4599Z" fill="#3774B5"/>
<path fill-rule="evenodd" clip-rule="evenodd" d="M61.747 42.1187L30.9336 44.9005V48.0032L61.6878 44.3741L92.0445 48.2263L106.194 44.294L61.747 42.1187Z" fill="#3774B5"/>
<path fill-rule="evenodd" clip-rule="evenodd" d="M106.193 6.45979L92.0469 3.44434V28.5406H106.193V6.45979Z" fill="#3774B5"/>
<path d="M105.744 6.67584L92.4933 3.90789V28.0559H105.744V6.67584ZM106.643 28.5056C106.643 28.7566 106.441 28.9554 106.194 28.9554H92.0435H62.1958V41.69L106.18 43.8444H106.194C106.441 43.8444 106.643 44.0466 106.643 44.2941V73.9536C106.643 74.1489 106.518 74.3197 106.34 74.3789L92.2248 79.9532C92.169 79.9776 92.1063 79.9915 92.0435 79.9915C91.9738 79.9915 91.9041 79.9741 91.8448 79.9462L61.8088 67.5009L14.9699 82.9686C14.9211 82.9895 14.8653 83 14.8095 83C14.7293 83 14.6527 82.9791 14.5864 82.9407L0.840818 76.6588C0.666514 76.5961 0.541016 76.4287 0.541016 76.2335V4.15192C0.541016 3.95321 0.673487 3.77193 0.875679 3.71964L14.6666 0.0244025C14.7119 0.00697215 14.7572 0 14.8095 0C14.8479 0 14.8862 0.00348608 14.9211 0.0139443L61.8228 9.29039L91.9215 2.92133C91.9599 2.90739 92.0017 2.9039 92.0435 2.9039C92.0889 2.9039 92.1307 2.90739 92.169 2.92133L106.253 5.86358C106.472 5.89496 106.643 6.0832 106.643 6.3098V28.5056ZM31.3823 47.4978L61.6345 43.9281C61.6833 43.9211 61.7286 43.9246 61.7739 43.9315L92.0087 47.7697L103.394 44.6078L61.7495 42.5685L31.3823 45.3085V47.4978ZM91.5938 48.6238L61.6868 44.8275L31.3823 48.4007V75.0029C31.3823 75.2539 31.1836 75.4561 30.9326 75.4561C30.6851 75.4561 30.4829 75.2539 30.4829 75.0029V28.5056V5.74854C30.4829 5.50103 30.6851 5.29884 30.9326 5.29884C31.1836 5.29884 31.3823 5.50103 31.3823 5.74854V28.0559H61.7461H91.5938V3.90789L62.2759 10.1131V27.3518C62.2759 27.5993 62.0737 27.8015 61.8262 27.8015C61.5787 27.8015 61.3765 27.5993 61.3765 27.3518V10.1166L15.2592 0.997018V81.9263L61.3765 66.6956V45.6676C61.3765 45.4166 61.5787 45.2144 61.8262 45.2144C62.0737 45.2144 62.2759 45.4166 62.2759 45.6676V66.72L91.5938 78.869V48.6238ZM105.744 44.8867L92.4933 48.568V78.8795L105.744 73.6469V44.8867ZM61.2929 28.9554H31.3823V44.4091L61.2929 41.7074V28.9554ZM14.3598 81.8496V1.03536L1.44042 4.49704V75.9442L14.3598 81.8496Z" fill="#1C1D1E"/>
<path d="M131.777 35.4427H124.356V7.35889H131.777V17.9914H135.309L141.688 7.35889H149.912L141.085 21.0417L150.313 35.4427H142.089L135.267 24.6115H131.777V35.4427ZM170.253 7.35889H177.675V24.73C177.675 26.7659 177.316 28.5368 176.594 30.0463C175.873 31.5592 174.893 32.734 173.663 33.5777C172.436 34.4213 171.097 35.0418 169.654 35.4427C168.207 35.8436 166.67 36.0458 165.038 36.0458C163.407 36.0458 161.869 35.8436 160.426 35.4427C158.979 35.0418 157.644 34.4213 156.414 33.5777C155.183 32.734 154.207 31.5592 153.485 30.0463C152.76 28.5368 152.401 26.7659 152.401 24.73V7.35889H159.823V24.3291C159.823 27.728 161.562 29.4258 165.038 29.4258C168.517 29.4258 170.253 27.728 170.253 24.3291V7.35889ZM200.547 7.35889H207.969V35.4427H200.547V24.73H190.113V35.4427H182.692V7.35889H190.113V18.1099H200.547V7.35889ZM220.686 35.4427H213.264V7.35889H220.285L231.277 23.489C231.172 22.3107 231.117 20.7594 231.117 18.8351V7.35889H238.539V35.4427H231.518L220.526 19.3545C220.634 20.5328 220.686 22.0701 220.686 23.97V35.4427ZM243.837 7.35889H251.259V35.4427H243.837V7.35889ZM263.457 32.0752C263.457 33.3859 263.067 34.3725 262.293 35.0418C261.515 35.7111 260.539 36.0458 259.364 36.0458C258.186 36.0458 257.21 35.7111 256.433 35.0418C255.659 34.3725 255.272 33.3859 255.272 32.0752C255.272 30.7888 255.659 29.8127 256.433 29.1434C257.21 28.4775 258.186 28.1429 259.364 28.1429C260.539 28.1429 261.515 28.4775 262.293 29.1434C263.067 29.8127 263.457 30.7888 263.457 32.0752ZM123.352 54.5673C123.352 51.8935 124.349 49.8472 126.343 48.4318C128.333 47.013 130.868 46.3053 133.946 46.3053C137.61 46.3053 140.751 47.0514 143.372 48.5504V55.3726C140.967 53.5529 138.024 52.6709 134.545 52.7232C132.164 52.7511 130.976 53.3507 130.976 54.529C130.976 55.0902 131.338 55.5922 132.06 56.035C132.781 56.4742 133.684 56.8507 134.768 57.1575C135.849 57.4643 137.02 57.8791 138.279 58.402C139.534 58.9214 140.705 59.5036 141.789 60.1451C142.87 60.7865 143.773 61.7033 144.498 62.8956C145.22 64.0843 145.579 65.4544 145.579 67.0057C145.579 72.7298 141.835 75.5919 134.347 75.5919C130.254 75.5919 126.656 74.7378 123.554 73.0261V66.0052C126.628 68.1177 130.041 69.174 133.785 69.174C135.281 69.174 136.351 69.0311 136.993 68.7522C137.637 68.4698 137.958 67.9818 137.958 67.288C137.958 66.5664 137.456 65.9354 136.452 65.4021C135.448 64.8652 134.232 64.3667 132.802 63.8961C131.37 63.4289 129.94 62.8747 128.507 62.2332C127.078 61.5918 125.862 60.6122 124.858 59.3049C123.854 57.9941 123.352 56.415 123.352 54.5673ZM167.126 46.9049H174.548V74.9923H167.126V64.2795H156.692V74.9923H149.271V46.9049H156.692V57.6595H167.126V46.9049ZM182.371 71.3807C179.749 68.5709 178.439 65.0953 178.439 60.9469C178.439 56.8019 179.749 53.3263 182.371 50.5165C184.992 47.7067 188.695 46.3053 193.484 46.3053C198.271 46.3053 201.977 47.7067 204.598 50.5165C207.22 53.3263 208.53 56.8019 208.53 60.9469C208.53 65.0953 207.22 68.5709 204.598 71.3807C201.977 74.187 198.271 75.5919 193.484 75.5919C188.695 75.5919 184.992 74.187 182.371 71.3807ZM198.961 66.6048C200.258 65.1615 200.906 63.2756 200.906 60.9469C200.906 58.6216 200.258 56.7357 198.961 55.2924C197.664 53.8457 195.838 53.1241 193.484 53.1241C191.131 53.1241 189.305 53.8457 188.008 55.2924C186.711 56.7357 186.063 58.6216 186.063 60.9469C186.063 63.2756 186.711 65.1615 188.008 66.6048C189.305 68.048 191.131 68.7731 193.484 68.7731C195.838 68.7731 197.664 68.048 198.961 66.6048ZM212.421 46.9049H223.534C231.692 46.9049 235.771 50.1156 235.771 56.5335C235.771 62.8991 231.692 66.1097 223.534 66.1655H219.843V74.9923H212.421V46.9049ZM223.897 59.7442C226.731 59.7442 228.15 58.6739 228.15 56.5335C228.15 54.3965 226.731 53.3263 223.897 53.3263H219.843V59.7442H223.897Z" fill="#1C1D1E"/>
</g>
<defs>
<clipPath id="clip0_44001_2">
<rect width="264" height="83" fill="white"/>
</clipPath>
</defs>
</svg>
