<svg width="179" height="54" viewBox="0 0 179 54" fill="none" xmlns="http://www.w3.org/2000/svg">
<path fill-rule="evenodd" clip-rule="evenodd" d="M59.4591 31.3672L39.7771 28.859V43.6426L59.4591 51.6984V31.3672Z" fill="#3774B5"/>
<path fill-rule="evenodd" clip-rule="evenodd" d="M9.29492 53.6459L9.38345 0.295082L19.7998 2.36066L39.8359 6.37377V18.5311H19.7998V50.1639L9.29492 53.6459Z" fill="#3774B5"/>
<path fill-rule="evenodd" clip-rule="evenodd" d="M39.8068 27.4131L19.7708 29.2131V31.2197L39.7773 28.859L59.5183 31.3672L68.7248 28.8295L39.8068 27.4131Z" fill="#3774B5"/>
<path d="M178.023 20.8623C178.023 21.718 177.758 22.3672 177.256 22.7803C176.754 23.2229 176.135 23.4295 175.367 23.4295C174.6 23.4295 173.981 23.2229 173.479 22.7803C172.977 22.3672 172.712 21.718 172.712 20.8623C172.712 20.0361 172.977 19.4164 173.479 18.9738C173.981 18.5311 174.6 18.3246 175.367 18.3246C176.135 18.3246 176.754 18.5311 177.256 18.9738C177.758 19.4164 178.023 20.0361 178.023 20.8623Z" fill="#1C1D1E"/>
<path d="M171.206 23.0459H166.397V15.6098C166.397 14.4 166.456 13.3967 166.515 12.6295L159.403 23.0459H154.859V4.86887H159.669V12.3049C159.669 13.5443 159.61 14.5476 159.551 15.3148L166.662 4.86887H171.206V23.0459Z" fill="#1C1D1E"/>
<path d="M147.423 4.86887H152.233V23.0459H147.423V16.1115H140.665V23.0459H135.855V4.86887H140.665V11.8328H147.423V4.86887Z" fill="#1C1D1E"/>
<path d="M121.751 23.0459H116.115L122.371 13.6033L116.528 4.86887H122.135L125.44 10.2098L128.715 4.86887H134.351L128.508 13.6033L134.735 23.0459H129.128L125.44 16.9377L121.751 23.0459Z" fill="#1C1D1E"/>
<path d="M109.21 18.8853C108.413 20.5672 107.528 21.718 106.554 22.4262C105.551 23.1049 104.4 23.4295 103.102 23.4295C102.305 23.4295 101.331 23.282 100.181 22.9574V18.9738C100.83 19.2098 101.538 19.3279 102.276 19.3279C103.485 19.3279 104.282 18.9148 104.636 18.0885L104.931 17.4689L97.8494 4.86887H103.161L107.174 13.1607L110.449 4.86887H115.761L109.21 18.8853Z" fill="#1C1D1E"/>
<path d="M85.3382 23.0459H80.5579V4.86887H85.3382V11.7443H87.6398L91.771 4.86887H97.0824L91.3874 13.7213L97.348 23.0459H92.0365L87.6103 16.023H85.3382V23.0459Z" fill="#1C1D1E"/>
<path d="M143.38 30.5705C144.502 30.5705 145.564 30.659 146.508 30.8656C147.482 31.0426 148.308 31.3967 149.016 31.8689C149.725 32.3705 150.285 33.0197 150.698 33.8164C151.112 34.6131 151.318 35.5869 151.318 36.7967C151.318 37.9771 151.112 38.9803 150.698 39.7771C150.285 40.5738 149.725 41.223 149.016 41.6951C148.308 42.1672 147.482 42.5213 146.508 42.7279C145.564 42.9344 144.502 43.023 143.38 43.023H140.99V48.7476H136.18V30.5705H143.38ZM146.361 36.7967C146.361 36.3836 146.302 36.0295 146.154 35.764C146.007 35.4984 145.8 35.2918 145.535 35.1443C145.269 34.9672 144.974 34.8787 144.649 34.8197C144.325 34.7312 143.971 34.7017 143.616 34.7017H140.99V38.8623H143.616C143.971 38.8623 144.325 38.8328 144.649 38.7738C144.974 38.7148 145.269 38.5967 145.535 38.4492C145.8 38.3017 146.007 38.0951 146.154 37.8295C146.302 37.564 146.361 37.2099 146.361 36.7967Z" fill="#1C1D1E"/>
<path d="M114.876 39.659C114.876 38.3902 115.082 37.1803 115.495 36.0295C115.879 34.9082 116.499 33.8754 117.325 33.0197C118.122 32.1344 119.154 31.4557 120.364 30.9246C121.574 30.4229 122.99 30.1574 124.613 30.1574C126.236 30.1574 127.653 30.4229 128.863 30.9246C130.102 31.4557 131.105 32.1344 131.902 33.0197C132.728 33.8754 133.348 34.9082 133.761 36.0295C134.145 37.1803 134.351 38.3902 134.351 39.659C134.351 40.9279 134.145 42.1082 133.761 43.259C133.348 44.4098 132.728 45.4131 131.902 46.2984C131.105 47.1541 130.102 47.8623 128.863 48.3639C127.653 48.8656 126.236 49.1311 124.613 49.1311C122.99 49.1311 121.574 48.8656 120.364 48.3639C119.154 47.8623 118.122 47.1541 117.325 46.2984C116.499 45.4131 115.879 44.4098 115.495 43.259C115.082 42.1082 114.876 40.9279 114.876 39.659ZM129.423 39.659C129.423 38.9213 129.305 38.2426 129.099 37.6229C128.892 37.0328 128.597 36.4721 128.213 36.0295C127.8 35.5574 127.299 35.2033 126.709 34.9672C126.089 34.7016 125.41 34.5836 124.613 34.5836C123.846 34.5836 123.138 34.7016 122.548 34.9672C121.928 35.2033 121.427 35.5574 121.043 36.0295C120.63 36.4721 120.335 37.0328 120.128 37.6229C119.922 38.2426 119.804 38.9213 119.804 39.659C119.804 40.3672 119.922 41.0459 120.128 41.6656C120.335 42.2852 120.63 42.8164 121.043 43.2885C121.427 43.7311 121.928 44.0852 122.548 44.3508C123.138 44.5869 123.846 44.7049 124.613 44.7049C125.41 44.7049 126.089 44.5869 126.709 44.3508C127.299 44.0852 127.8 43.7311 128.213 43.2885C128.597 42.8164 128.892 42.2852 129.099 41.6656C129.305 41.0459 129.423 40.3672 129.423 39.659Z" fill="#1C1D1E"/>
<path d="M112.987 30.5705V48.7476H108.177V41.8131H101.449V48.7476H96.6396V30.5705H101.449V37.5344H108.177V30.5705H112.987Z" fill="#1C1D1E"/>
<path d="M80.4102 35.5279C80.4102 34.6131 80.5872 33.8459 80.9708 33.1672C81.3249 32.4885 81.8265 31.9279 82.4462 31.4852C83.0659 31.0426 83.8036 30.718 84.6298 30.482C85.4561 30.2754 86.3413 30.1574 87.2856 30.1574C88.4069 30.1574 89.5282 30.3049 90.5905 30.5705C91.6528 30.8066 92.597 31.1607 93.3938 31.6328V36.0295C92.597 35.4393 91.7118 35.0262 90.738 34.7311C89.7347 34.4361 88.7315 34.318 87.6692 34.318C86.7839 34.3475 86.1643 34.4656 85.8397 34.6721C85.5151 34.8787 85.338 35.1443 85.338 35.4984C85.338 35.882 85.5741 36.2066 86.0462 36.4721C86.5184 36.7082 87.1085 36.9738 87.8167 37.2098C88.4954 37.4459 89.2626 37.7115 90.0888 38.0066C90.8856 38.2721 91.6528 38.6557 92.361 39.1279C93.0692 39.6 93.6298 40.1902 94.102 40.8984C94.5741 41.6066 94.8102 42.4918 94.8102 43.5836C94.8102 44.6459 94.6036 45.5311 94.2495 46.2688C93.8659 46.977 93.3347 47.5377 92.6561 47.9803C92.0069 48.3934 91.2102 48.6885 90.3544 48.8656C89.4692 49.0426 88.5249 49.1311 87.5216 49.1311C86.2233 49.1311 84.9544 48.9836 83.7741 48.6885C82.5938 48.4229 81.5315 48.0098 80.5577 47.4787V42.9344C81.6495 43.6721 82.7413 44.2033 83.8921 44.4984C85.0429 44.8229 86.1347 44.9705 87.1675 44.9705C88.1118 44.9705 88.82 44.882 89.2331 44.7049C89.6462 44.5279 89.8823 44.2033 89.8823 43.7607C89.8823 43.318 89.6462 42.9639 89.1741 42.6984C88.702 42.4033 88.1118 42.1377 87.4036 41.9016C86.7249 41.6361 85.9577 41.3705 85.1315 41.1049C84.3347 40.8098 83.5675 40.4262 82.8593 39.9541C82.1807 39.482 81.5905 38.9213 81.1184 38.2131C80.6462 37.5049 80.4102 36.6197 80.4102 35.5279Z" fill="#1C1D1E"/>
<path fill-rule="evenodd" clip-rule="evenodd" d="M68.7247 4.19018L59.5476 2.24264V18.5607H68.7247V4.19018Z" fill="#3774B5"/>
<path d="M68.4295 4.3377L59.8131 2.5377V18.2656H68.4295V4.3377ZM69.0197 18.5311C69.0197 18.7082 68.9016 18.8262 68.7246 18.8262H59.518H40.1016V27.118L68.7246 28.5344C68.9016 28.5344 69.0197 28.6525 69.0197 28.8295V48.0984C69.0197 48.2459 68.9311 48.3639 68.8426 48.3934L59.636 52.0229C59.6065 52.0229 59.577 52.0525 59.518 52.0525C59.4885 52.0525 59.4295 52.0229 59.4 52.0229L39.8656 43.9082L9.3836 53.9705C9.3541 54 9.32459 54 9.29508 54C9.23606 54 9.17705 53.9705 9.14754 53.9705L0.206557 49.8689C0.0885246 49.8393 0 49.7213 0 49.6033V2.71475C0 2.56721 0.0885246 2.44918 0.206557 2.41967L9.17705 0.0295082C9.20655 0 9.23606 0 9.29508 0C9.29508 0 9.32459 0 9.3541 0L39.8656 6.04918L59.459 1.88852C59.4885 1.88852 59.4885 1.88852 59.518 1.88852C59.5475 1.88852 59.577 1.88852 59.6065 1.88852L68.7836 3.80656C68.9311 3.83607 69.0197 3.9541 69.0197 4.10164V18.5311ZM20.0656 30.8951L39.7475 28.5639C39.777 28.5639 39.8065 28.5639 39.8361 28.5934L59.518 31.0721L66.9246 29.0066L39.8361 27.7082L20.0656 29.4787V30.8951ZM59.2229 31.6328L39.777 29.1541L20.0656 31.4852V48.8066C20.0656 48.9541 19.9475 49.1016 19.7705 49.1016C19.6229 49.1016 19.4754 48.9541 19.4754 48.8066V18.5311V3.74754C19.4754 3.57049 19.6229 3.45246 19.7705 3.45246C19.9475 3.45246 20.0656 3.57049 20.0656 3.74754V18.2656H39.8065H59.2229V2.5377L40.1606 6.58033V17.7934C40.1606 17.9705 40.0426 18.0885 39.8656 18.0885C39.718 18.0885 39.5705 17.9705 39.5705 17.7934V6.58033L9.59016 0.64918V53.2918L39.5705 43.377V29.7148C39.5705 29.5377 39.718 29.4197 39.8656 29.4197C40.0426 29.4197 40.1606 29.5377 40.1606 29.7148V43.4066L59.2229 51.3148V31.6328ZM68.4295 29.2131L59.8131 31.6033V51.3148L68.4295 47.9213V29.2131ZM39.5115 18.8262H20.0656V28.8885L39.5115 27.1475V18.8262ZM9 53.2623V0.678689L0.590164 2.92131V49.3967L9 53.2623Z" fill="#1C1D1E"/>
</svg>
