<svg width="0" height="0" class="hidden">
  <symbol fill="none" xmlns="http://www.w3.org/2000/svg" viewBox="0 0 10 16" id="ic_arr_hor">
    <path d="M8 2L2 8L8 14" stroke="currentColor" stroke-width="3" stroke-linecap="round" stroke-linejoin="round"></path>
  </symbol>
  <symbol fill="none" xmlns="http://www.w3.org/2000/svg" viewBox="0 0 12 8" id="ic_arr_ver">
    <path d="M10 2L6 6L2 2" stroke="currentColor" stroke-width="2.5" stroke-linecap="round" stroke-linejoin="round"></path>
  </symbol>
  <symbol fill="none" xmlns="http://www.w3.org/2000/svg" viewBox="0 0 10 8" id="ic_check">
    <path d="M8.35899 0L3.69398 4.69607L1.64105 2.62947L0 4.2815L3.69398 8L10 1.65198L8.35899 0Z" fill="currentColor"></path>
  </symbol>
  <symbol fill="none" xmlns="http://www.w3.org/2000/svg" viewBox="0 0 18 18" id="ic_close">
    <path d="M0.514573 0.514718C0.905097 0.124194 1.53826 0.124194 1.92879 0.514718L17.4851 16.0711C17.8757 16.4616 17.8757 17.0948 17.4851 17.4853C17.0946 17.8758 16.4614 17.8758 16.0709 17.4853L0.514573 1.92893C0.124049 1.53841 0.124048 0.905242 0.514573 0.514718Z" fill="currentColor"></path>
    <path d="M0.514573 17.4853C0.124049 17.0948 0.124049 16.4616 0.514573 16.0711L16.0709 0.514718C16.4614 0.124194 17.0946 0.124194 17.4851 0.514718C17.8757 0.905242 17.8757 1.53841 17.4851 1.92893L1.92879 17.4853C1.53826 17.8758 0.905098 17.8758 0.514573 17.4853Z" fill="currentColor"></path>
  </symbol>
  <symbol fill="none" xmlns="http://www.w3.org/2000/svg" viewBox="0 0 16 17" id="ic_calendar2">
    <path d="M5.78025 9.3271C5.78025 9.12667 5.614 8.9643 5.40885 8.9643H4.11281C3.9079 8.9643 3.74161 9.12667 3.74161 9.3271V10.5942C3.74161 10.7949 3.9079 10.9574 4.11281 10.9574H5.40885C5.614 10.9574 5.78025 10.7949 5.78025 10.5942V9.3271Z" fill="currentColor"></path>
    <path d="M9.01924 9.3271C9.01924 9.12667 8.85294 8.9643 8.64821 8.9643H7.352C7.14709 8.9643 6.9808 9.12667 6.9808 9.3271V10.5942C6.9808 10.7949 7.14709 10.9574 7.352 10.9574H8.64821C8.85294 10.9574 9.01924 10.7949 9.01924 10.5942V9.3271Z" fill="currentColor"></path>
    <path d="M12.2584 9.3271C12.2584 9.12667 12.0921 8.9643 11.8872 8.9643H10.5911C10.386 8.9643 10.2197 9.12667 10.2197 9.3271V10.5942C10.2197 10.7949 10.386 10.9574 10.5911 10.9574H11.8872C12.0921 10.9574 12.2584 10.7949 12.2584 10.5942V9.3271Z" fill="currentColor"></path>
    <path d="M5.78025 12.4946C5.78025 12.2938 5.614 12.1316 5.40885 12.1316H4.11281C3.9079 12.1316 3.74161 12.2938 3.74161 12.4946V13.7615C3.74161 13.9621 3.9079 14.1245 4.11281 14.1245H5.40885C5.614 14.1245 5.78025 13.962 5.78025 13.7615V12.4946Z" fill="currentColor"></path>
    <path d="M9.01924 12.4946C9.01924 12.2938 8.85294 12.1316 8.64821 12.1316H7.352C7.14709 12.1316 6.9808 12.2938 6.9808 12.4946V13.7615C6.9808 13.9621 7.14709 14.1245 7.352 14.1245H8.64821C8.85294 14.1245 9.01924 13.962 9.01924 13.7615V12.4946Z" fill="currentColor"></path>
    <path d="M12.2584 12.4946C12.2584 12.2938 12.0921 12.1316 11.8874 12.1316H10.5911C10.386 12.1316 10.2197 12.2938 10.2197 12.4946V13.7615C10.2197 13.9621 10.386 14.1245 10.5911 14.1245H11.8874C12.0921 14.1245 12.2584 13.962 12.2584 13.7615V12.4946Z" fill="currentColor"></path>
    <path d="M14.5758 2.28154V4.217C14.5758 5.09181 13.8501 5.79677 12.9556 5.79677H11.9334C11.0389 5.79677 10.3035 5.09181 10.3035 4.217V2.27459H5.69652V4.217C5.69652 5.09181 4.96116 5.79677 4.06672 5.79677H3.0444C2.14993 5.79677 1.42419 5.09181 1.42419 4.217V2.28154C0.642407 2.30458 0 2.93714 0 3.71463V15.0573C0 15.8495 0.656586 16.5 1.46666 16.5H14.5333C15.3422 16.5 16 15.8481 16 15.0573V3.71463C16 2.93714 15.3576 2.30458 14.5758 2.28154ZM14.1011 14.351C14.1011 14.6933 13.8173 14.971 13.467 14.971H2.50503C2.15482 14.971 1.87097 14.6933 1.87097 14.351V8.49208C1.87097 8.14963 2.15479 7.87192 2.50503 7.87192H13.467C13.8172 7.87192 14.1011 8.14963 14.1011 8.49208L14.1011 14.351Z" fill="currentColor"></path>
    <path d="M3.04081 4.75916H4.05184C4.35871 4.75916 4.60753 4.51622 4.60753 4.21615V1.04321C4.60753 0.743104 4.35871 0.5 4.05184 0.5H3.04081C2.73391 0.5 2.48512 0.743104 2.48512 1.04321V4.21615C2.48512 4.51622 2.73391 4.75916 3.04081 4.75916Z" fill="currentColor"></path>
    <path d="M11.9204 4.75916H12.9315C13.2381 4.75916 13.487 4.51622 13.487 4.21615V1.04321C13.487 0.743104 13.2382 0.5 12.9315 0.5H11.9204C11.6136 0.5 11.3648 0.743104 11.3648 1.04321V4.21615C11.3648 4.51622 11.6136 4.75916 11.9204 4.75916Z" fill="currentColor"></path>
  </symbol>
  <symbol fill="none" xmlns="http://www.w3.org/2000/svg" viewBox="0 0 14 15" id="ic_calendar">
    <path d="M0 11.882C0 12.61 0.256667 13.226 0.77 13.73C1.28333 14.234 1.904 14.4907 2.632 14.5H11.382C12.1007 14.5 12.7167 14.2433 13.23 13.73C13.7433 13.2167 14 12.6007 14 11.882V3.132C14 2.56267 13.8367 2.054 13.51 1.606C13.1833 1.158 12.7633 0.845333 12.25 0.668V1.816C12.25 2.18 12.124 2.49267 11.872 2.754C11.62 3.01533 11.3073 3.14133 10.934 3.132C10.5607 3.12267 10.2527 2.99667 10.01 2.754C9.76733 2.51133 9.64133 2.19867 9.632 1.816V0.5H4.382V1.816C4.382 2.18 4.25133 2.49267 3.99 2.754C3.72867 3.01533 3.42067 3.14133 3.066 3.132C2.71133 3.12267 2.39867 2.99667 2.128 2.754C1.85733 2.51133 1.73133 2.19867 1.75 1.816V0.668C1.23667 0.854667 0.816667 1.16733 0.49 1.606C0.163333 2.04467 0 2.55333 0 3.132V11.882ZM1.75 11.882V4.882H12.25V11.882C12.25 12.1247 12.166 12.33 11.998 12.498C11.83 12.666 11.6247 12.75 11.382 12.75H2.632C2.38933 12.75 2.17933 12.666 2.002 12.498C1.82467 12.33 1.74067 12.1247 1.75 11.882ZM2.632 1.816C2.632 1.93733 2.674 2.04 2.758 2.124C2.842 2.208 2.94467 2.25 3.066 2.25C3.18733 2.25 3.29 2.208 3.374 2.124C3.458 2.04 3.5 1.93733 3.5 1.816V0.5H2.632V1.816ZM3.5 11H5.25V9.25H3.5V11ZM3.5 8.382H5.25V6.632H3.5V8.382ZM6.132 11H7.882V9.25H6.132V11ZM6.132 8.382H7.882V6.632H6.132V8.382ZM8.75 11H10.5V9.25H8.75V11ZM8.75 8.382H10.5V6.632H8.75V8.382ZM10.5 1.816C10.5 1.93733 10.542 2.04 10.626 2.124C10.71 2.208 10.8127 2.25 10.934 2.25C11.0553 2.25 11.158 2.208 11.242 2.124C11.326 2.04 11.3727 1.93733 11.382 1.816V0.5H10.5V1.816Z" fill="currentColor"></path>
  </symbol>
  <symbol fill="none" xmlns="http://www.w3.org/2000/svg" viewBox="0 0 14 14" id="ic_close_small">
    <path d="M11.9938 2L7 6.99687M7 6.99687L2 12M7 6.99687L12 12M7 6.99687L2.00625 2" stroke="currentColor" stroke-width="2.5" stroke-linecap="round" stroke-linejoin="round"></path>
  </symbol>
  <symbol fill="none" xmlns="http://www.w3.org/2000/svg" viewBox="0 0 28 28" id="ic_dzen">
    <path d="M28 13.7233C28 13.5834 27.8862 13.4675 27.7462 13.4609C22.7231 13.2706 19.666 12.6299 17.5273 10.491C15.3842 8.34773 14.7457 5.28814 14.5554 0.253691C14.551 0.113723 14.4352 0 14.293 0H13.7069C13.567 0 13.4511 0.113723 13.4445 0.253691C13.2543 5.28595 12.6157 8.34773 10.4726 10.491C8.33176 12.632 5.27677 13.2706 0.25367 13.4609C0.113714 13.4653 0 13.5812 0 13.7233V14.3095C0 14.4494 0.113714 14.5653 0.25367 14.5719C5.27677 14.7622 8.33394 15.4029 10.4726 17.5418C12.6113 19.6807 13.2499 22.7316 13.4423 27.7462C13.4467 27.8862 13.5626 28 13.7047 28H14.293C14.433 28 14.5489 27.8862 14.5554 27.7462C14.7479 22.7316 15.3864 19.6807 17.5251 17.5418C19.666 15.4008 22.7209 14.7622 27.7441 14.5719C27.8841 14.5675 27.9978 14.4516 27.9978 14.3095V13.7233H28Z" fill="currentColor"></path>
  </symbol>
  <symbol fill="none" xmlns="http://www.w3.org/2000/svg" viewBox="0 0 18 14" id="ic_email">
    <path fill-rule="evenodd" clip-rule="evenodd" d="M3.57122 3.78585e-07H14.4288C14.8235 -8.37141e-06 15.1642 -1.72015e-05 15.4462 0.0186815C15.743 0.0383778 16.0399 0.0816905 16.3333 0.199816C16.9948 0.466236 17.5205 0.977262 17.7944 1.62046C17.9159 1.90565 17.9605 2.19432 17.9808 2.48292C18 2.75702 18 3.08819 18 3.47201V10.528C18 10.9118 18 11.243 17.9808 11.5171C17.9605 11.8057 17.9159 12.0943 17.7944 12.3796C17.5205 13.0227 16.9948 13.5338 16.3333 13.8002C16.0399 13.9183 15.743 13.9616 15.4462 13.9814C15.1642 14 14.8235 14 14.4288 14H3.57121C3.17642 14 2.83579 14 2.55386 13.9814C2.25701 13.9616 1.96009 13.9183 1.66676 13.8002C1.00518 13.5338 0.479556 13.0227 0.205524 12.3796C0.0840243 12.0943 0.0394743 11.8057 0.0192153 11.5171C-1.76929e-05 11.243 -8.6106e-06 10.9118 3.89402e-07 10.528V3.47202C-8.6106e-06 3.0882 -1.76929e-05 2.75702 0.0192153 2.48292C0.0394743 2.19432 0.0840243 1.90565 0.205524 1.62046C0.479556 0.977262 1.00518 0.466236 1.66676 0.199816C1.96009 0.0816905 2.25701 0.0383778 2.55386 0.0186815C2.83579 -1.72015e-05 3.17643 -8.37141e-06 3.57122 3.78585e-07ZM2.08571 1.99305C2.41303 1.62937 2.98161 1.59252 3.35569 1.91074L8.40735 6.20813C8.74665 6.49679 9.25335 6.49679 9.59265 6.20813L14.6444 1.91074C15.0184 1.59252 15.587 1.62937 15.9143 1.99305C16.2416 2.35673 16.2037 2.90952 15.8296 3.22774L10.778 7.52517C9.75996 8.39116 8.24004 8.39116 7.22205 7.52517L2.17038 3.22774C1.7963 2.90952 1.75839 2.35673 2.08571 1.99305Z" fill="currentColor"></path>
  </symbol>
  <symbol fill="none" xmlns="http://www.w3.org/2000/svg" viewBox="0 0 16 18" id="ic_file">
    <path d="M4.68612 18C3.95983 18.0005 3.24972 17.7901 2.64566 17.3954C2.0416 17.0007 1.57076 16.4394 1.29275 15.7827C1.01473 15.1259 0.942046 14.4031 1.08389 13.7059C1.22573 13.0086 1.57572 12.3683 2.08956 11.8658L7.28268 6.78246C7.51223 6.55777 7.82356 6.43155 8.14819 6.43155C8.47281 6.43156 8.78414 6.5578 9.01368 6.78249C9.24323 7.00718 9.37218 7.31193 9.37218 7.6297C9.37219 7.94746 9.24324 8.25221 9.0137 8.47691L3.8206 13.5602C3.70603 13.6713 3.615 13.8034 3.55275 13.949C3.49051 14.0946 3.45826 14.2508 3.45786 14.4087C3.45747 14.5665 3.48894 14.7228 3.55046 14.8687C3.61198 15.0146 3.70234 15.1472 3.81635 15.2588C3.93037 15.3704 4.06578 15.4589 4.21482 15.5191C4.36386 15.5793 4.52359 15.6101 4.68483 15.6097C4.84607 15.6094 5.00565 15.5778 5.15439 15.5169C5.30313 15.4559 5.43811 15.3668 5.55157 15.2547L12.4758 8.47691C12.8169 8.1432 13.0875 7.74696 13.2721 7.31086C13.4567 6.87475 13.5517 6.40731 13.5517 5.93524C13.5517 5.46317 13.4567 4.99573 13.2721 4.55963C13.0875 4.12352 12.8169 3.72729 12.4758 3.39357C11.7764 2.73957 10.8464 2.37462 9.87923 2.37462C8.91202 2.37462 7.98204 2.73957 7.28268 3.39357L2.08956 8.47691C1.9759 8.58817 1.84096 8.67643 1.69245 8.73665C1.54395 8.79687 1.38478 8.82786 1.22403 8.82786C1.06329 8.82786 0.904119 8.79687 0.755611 8.73666C0.607103 8.67644 0.472165 8.58819 0.358503 8.47692C0.244841 8.36566 0.154679 8.23358 0.0931672 8.08821C0.0316551 7.94284 -3.16874e-06 7.78703 2.3782e-10 7.62968C3.16921e-06 7.47234 0.0316675 7.31653 0.0931855 7.17116C0.154703 7.0258 0.24487 6.89371 0.358537 6.78246L5.55157 1.69912C7.86845 -0.566372 11.8995 -0.566372 14.2068 1.69912C14.7753 2.25531 15.2263 2.91569 15.5339 3.64254C15.8416 4.36939 16 5.14846 16 5.93524C16 6.72202 15.8416 7.50109 15.5339 8.22794C15.2263 8.95479 14.7753 9.61517 14.2068 10.1714L7.28268 16.9492C6.94179 17.2829 6.53696 17.5476 6.09139 17.7279C5.64582 17.9082 5.16827 18.0007 4.68612 18Z" fill="currentColor"></path>
  </symbol>
  <symbol fill="none" xmlns="http://www.w3.org/2000/svg" viewBox="0 0 20 20" id="ic_filter">
    <path fill-rule="evenodd" clip-rule="evenodd" d="M17 14C18.6569 14 20 15.3431 20 17C20 18.6569 18.6569 20 17 20C15.6883 20 14.5756 19.1573 14.168 17.9844C14.1133 17.9936 14.0573 18 14 18H1C0.447715 18 0 17.5523 0 17C0 16.4477 0.447715 16 1 16H14C14.0573 16 14.1133 16.0054 14.168 16.0146C14.5759 14.8422 15.6886 14 17 14ZM17 16C16.4477 16 16 16.4477 16 17C16 17.5523 16.4477 18 17 18C17.5523 18 18 17.5523 18 17C18 16.4477 17.5523 16 17 16Z" fill="currentColor"></path>
    <path fill-rule="evenodd" clip-rule="evenodd" d="M3 7C4.3113 7 5.42308 7.84236 5.83105 9.01465C5.886 9.0053 5.94239 9 6 9H19C19.5523 9 20 9.44772 20 10C20 10.5523 19.5523 11 19 11H6C5.94234 11 5.88605 10.9937 5.83105 10.9844C5.42333 12.1571 4.31162 13 3 13C1.34315 13 0 11.6569 0 10C0 8.34315 1.34315 7 3 7ZM3 9C2.44772 9 2 9.44772 2 10C2 10.5523 2.44772 11 3 11C3.55228 11 4 10.5523 4 10C4 9.44772 3.55228 9 3 9Z" fill="currentColor"></path>
    <path fill-rule="evenodd" clip-rule="evenodd" d="M17 0C18.6569 0 20 1.34315 20 3C20 4.65685 18.6569 6 17 6C15.6883 6 14.5756 5.15728 14.168 3.98438C14.1133 3.99364 14.0573 4 14 4H1C0.447715 4 0 3.55228 0 3C0 2.44772 0.447715 2 1 2H14C14.0573 2 14.1133 2.0054 14.168 2.01465C14.5759 0.842199 15.6886 0 17 0ZM17 2C16.4477 2 16 2.44772 16 3C16 3.55228 16.4477 4 17 4C17.5523 4 18 3.55228 18 3C18 2.44772 17.5523 2 17 2Z" fill="currentColor"></path>
  </symbol>
  <symbol fill="none" xmlns="http://www.w3.org/2000/svg" viewBox="0 0 40 20" id="ic_filter_color">
    <rect x="1" y="1" width="18" height="18" rx="9" fill="#BCCCDC" stroke="white" stroke-width="2"></rect>
    <rect x="11" y="1" width="18" height="18" rx="9" fill="#E3D2C3" stroke="white" stroke-width="2"></rect>
    <rect x="21" y="1" width="18" height="18" rx="9" fill="#BFA9A9" stroke="white" stroke-width="2"></rect>
  </symbol>
  <symbol fill="none" xmlns="http://www.w3.org/2000/svg" viewBox="0 0 20 20" id="ic_filter_material">
    <path d="M9.69482 0.0717069C9.88935 -0.0268176 10.1117 -0.0207839 10.2951 0.0712186C10.3019 0.0745982 10.3087 0.0781611 10.3154 0.0817969C10.3169 0.0826222 10.3185 0.0834008 10.32 0.0842381L10.3307 0.0899341L19.6641 5.4227C19.8718 5.54138 20 5.76228 20 6.00149C20 6.23322 19.8797 6.44773 19.6833 6.56881L19.6641 6.58029L17.1746 8.00266L19.6597 9.42243C19.8674 9.54109 19.9956 9.76196 19.9956 10.0011C19.9956 10.2403 19.8674 10.4612 19.6597 10.5799L17.175 12.0003L19.664 13.4218C19.8717 13.5405 20 13.7613 20 14.0006C20 14.2398 19.8718 14.4607 19.6641 14.5794L10.3307 19.9122C10.1258 20.0293 9.87421 20.0293 9.66927 19.9122L0.335938 14.5794C0.128204 14.4607 -2.12978e-05 14.2398 2.14027e-08 14.0006C3.14614e-05 13.7613 0.128275 13.5405 0.336019 13.4218L2.82341 12.0011L0.335938 10.5799C0.12817 10.4611 -6.04841e-05 10.2402 2.14027e-08 10.0009C6.7016e-05 9.76162 0.128424 9.5407 0.336263 9.4221L2.82446 8.00217L0.335938 6.58029C0.128271 6.46163 5.63097e-05 6.24081 2.14027e-08 6.00165C-4.48912e-05 5.76249 0.128062 5.5416 0.335693 5.42286L9.66463 0.0879812L9.69482 0.0717069ZM10.3309 15.9125C10.1259 16.0297 9.87426 16.0297 9.66927 15.9126L4.16724 12.7689L2.0105 14.0007L10 18.5656L17.9893 14.0007L15.8314 12.7683L10.3309 15.9125ZM2.01099 10.0014L4.45597 11.3984C4.48647 11.4129 4.51595 11.4296 4.54411 11.4487L9.99984 14.566L15.4721 11.438C15.4898 11.4267 15.508 11.4163 15.5267 11.4068L17.9854 10.0013L15.8308 8.7704L10.3307 11.913C10.1258 12.0301 9.87421 12.0301 9.66927 11.913L4.16862 8.77016L2.01099 10.0014ZM2.00993 6.00117L4.48372 7.41467C4.49625 7.42135 4.50864 7.42833 4.52075 7.43583L10 10.5664L15.4823 7.43395C15.493 7.42746 15.5038 7.42135 15.5147 7.41548L17.9896 6.00149L9.99601 1.43419L2.00993 6.00117Z" fill="currentColor"></path>
  </symbol>
  <symbol fill="none" xmlns="http://www.w3.org/2000/svg" viewBox="0 0 20 20" id="ic_filter_size">
    <path d="M5.85744 0V14.1017H20L5.85744 0ZM16.238 12.5495H10.5434V9.44509H7.41943V3.75631L16.238 12.5495ZM7.41943 10.9973H8.98141V12.5495H7.41943V10.9973Z" fill="currentColor"></path>
    <path d="M0 1.68413H1.56198V12.5495H0V14.1017H4.68595V12.5495H3.12397V1.68413H4.68595V0.131936H0V1.68413Z" fill="currentColor"></path>
    <path d="M18.0409 16.8956H7.41943V15.3434H5.85744V20H7.41943V18.4478H18.0409V20H19.6029V15.3434H18.0409V16.8956Z" fill="currentColor"></path>
  </symbol>
  <symbol fill="none" xmlns="http://www.w3.org/2000/svg" viewBox="0 0 20 20" id="ic_filter_style">
    <path d="M16.6042 7.53092C16.6412 7.24711 16.6667 6.96004 16.6667 6.66667C16.6667 2.99093 13.6757 0 10 0C6.32426 0 3.33333 2.99093 3.33333 6.66667C3.33333 6.96004 3.35876 7.24711 3.39579 7.53092C1.37166 8.67635 0 10.8462 0 13.3333C0 17.0091 2.99093 20 6.66667 20C7.88167 20 9.01794 19.668 10 19.0979C10.9821 19.668 12.1183 20 13.3333 20C17.0091 20 20 17.0091 20 13.3333C20 10.8462 18.6283 8.67635 16.6042 7.53092ZM5 6.66667C5 3.90951 7.24284 1.66667 10 1.66667C12.7572 1.66667 15 3.90951 15 6.66667C15 6.7395 14.9921 6.81091 14.9892 6.88334C14.4588 6.74703 13.9058 6.66667 13.3333 6.66667C12.1183 6.66667 10.9821 6.9987 10 7.56877C9.01794 6.9987 7.88167 6.66667 6.66667 6.66667C6.09416 6.66667 5.54118 6.74703 5.01078 6.88334C5.00793 6.81091 5 6.7395 5 6.66667ZM11.6667 13.3333C11.6667 14.8092 11.0201 16.1338 10 17.0496C8.9799 16.1338 8.33333 14.8092 8.33333 13.3333C8.33333 13.2605 8.34127 13.1891 8.34412 13.1167C8.87451 13.253 9.42749 13.3333 10 13.3333C10.5725 13.3333 11.1255 13.253 11.6559 13.1167C11.6587 13.1891 11.6667 13.2605 11.6667 13.3333ZM10 11.6667C9.5463 11.6667 9.10909 11.6003 8.6908 11.487C8.97868 10.7654 9.43075 10.1284 10 9.61711C10.5693 10.128 11.0209 10.765 11.3092 11.487C10.8909 11.6003 10.4537 11.6667 10 11.6667ZM7.17407 10.7876C6.36332 10.2299 5.72713 9.43909 5.35746 8.51298C5.77576 8.39966 6.21297 8.33333 6.66667 8.33333C7.33215 8.33333 7.9659 8.46659 8.54716 8.70341C7.96794 9.30216 7.49837 10.0067 7.17407 10.7876ZM11.4528 8.70341C12.0341 8.46659 12.6678 8.33333 13.3333 8.33333C13.787 8.33333 14.2242 8.39966 14.6425 8.51298C14.2729 9.43868 13.6367 10.2295 12.8259 10.7876C12.5016 10.0067 12.0321 9.30216 11.4528 8.70341ZM1.66667 13.3333C1.66667 11.6246 2.52909 10.1145 3.84074 9.21244C4.41366 10.5933 5.43823 11.7391 6.72913 12.4695C6.6921 12.7529 6.66667 13.04 6.66667 13.3333C6.66667 15.1316 7.38546 16.7629 8.54716 17.9633C7.9659 18.2001 7.33215 18.3333 6.66667 18.3333C3.90951 18.3333 1.66667 16.0905 1.66667 13.3333ZM13.3333 18.3333C12.6678 18.3333 12.0341 18.2001 11.4528 17.9633C12.6145 16.7629 13.3333 15.1316 13.3333 13.3333C13.3333 13.04 13.3079 12.7529 13.2709 12.4691C14.5612 11.7387 15.5863 10.5933 16.1593 9.21244C17.4709 10.1145 18.3333 11.6246 18.3333 13.3333C18.3333 16.0905 16.0905 18.3333 13.3333 18.3333Z" fill="currentColor"></path>
  </symbol>
  <symbol fill="none" xmlns="http://www.w3.org/2000/svg" viewBox="0 0 14 14" id="ic_hi_tech">
    <path d="M7 5.6L0.5 2.8L7 0L13.5 2.8L7 5.6ZM6.27778 7L0.5 4.2V11.2L6.27778 14V7ZM13.5 11.2V4.2L7.72222 7V14L13.5 11.2Z" fill="currentColor"></path>
  </symbol>
  <symbol fill="none" xmlns="http://www.w3.org/2000/svg" viewBox="0 0 24 24" id="ic_instagram">
    <path d="M17.0365 0H6.97548C2.6053 0 0 2.604 0 6.972V17.016C0 21.396 2.6053 24 6.97548 24H17.0245C21.3947 24 24 21.396 24 17.028V6.972C24.012 2.604 21.4067 0 17.0365 0ZM12.006 16.656C9.4367 16.656 7.34766 14.568 7.34766 12C7.34766 9.432 9.4367 7.344 12.006 7.344C14.5753 7.344 16.6643 9.432 16.6643 12C16.6643 14.568 14.5753 16.656 12.006 16.656ZM19.1135 5.856C19.0535 6 18.9694 6.132 18.8614 6.252C18.7413 6.36 18.6093 6.444 18.4652 6.504C18.3211 6.564 18.1651 6.6 18.009 6.6C17.6848 6.6 17.3847 6.48 17.1565 6.252C17.0485 6.132 16.9645 6 16.9044 5.856C16.8444 5.712 16.8084 5.556 16.8084 5.4C16.8084 5.244 16.8444 5.088 16.9044 4.944C16.9645 4.788 17.0485 4.668 17.1565 4.548C17.4327 4.272 17.8529 4.14 18.2371 4.224C18.3211 4.236 18.3932 4.26 18.4652 4.296C18.5372 4.32 18.6093 4.356 18.6813 4.404C18.7413 4.44 18.8014 4.5 18.8614 4.548C18.9694 4.668 19.0535 4.788 19.1135 4.944C19.1736 5.088 19.2096 5.244 19.2096 5.4C19.2096 5.556 19.1736 5.712 19.1135 5.856Z" fill="currentColor"></path>
  </symbol>
  <symbol fill="none" xmlns="http://www.w3.org/2000/svg" viewBox="0 0 18 18" id="ic_link">
    <path d="M8.35941 6.92889L10.3675 4.89514C10.5434 4.71916 10.7443 4.49337 10.9451 4.24186C11.1459 4.01607 11.3716 3.81519 11.5981 3.63921C12.0246 3.26235 12.5267 2.93612 13.1548 2.93612C13.7074 2.93612 14.1838 3.18763 14.5356 3.51386C14.8874 3.8401 15.0882 4.3174 15.0882 4.87023C15.0882 5.09602 15.0633 5.34753 14.9878 5.5235C14.8119 5.87545 14.6617 6.12615 14.5107 6.32704C14.4352 6.42748 14.3597 6.52792 14.3597 6.62836C14.3597 6.7039 14.3597 6.77943 14.4103 6.80434C14.6866 7.48252 14.8874 8.06026 15.0127 8.76336C15.0882 9.03977 15.2384 9.16513 15.4898 9.16513C15.5903 9.16513 15.6907 9.14022 15.7911 9.06468C15.9919 8.93933 16.1678 8.73845 16.3437 8.53757C16.4441 8.43712 16.5196 8.33668 16.5694 8.28606C17.4731 7.40699 18 6.15187 18 4.87103C18 3.51466 17.4474 2.30936 16.5694 1.4311C15.6907 0.576939 14.4609 0 13.1556 0C11.8503 0 10.5949 0.527119 9.7169 1.45681L6.27819 4.87184C5.37454 5.80072 4.87251 7.00603 4.87251 8.28686C4.87251 8.66372 5.02352 9.44235 5.27413 10.1704C5.52555 10.8734 5.85167 11.501 6.27819 11.501C6.5039 11.501 6.98104 11.1241 7.38266 10.6975C7.78428 10.2708 8.18591 9.79349 8.18591 9.61752C8.18591 9.49217 8.0855 9.3411 7.9851 9.11531C7.85979 8.88951 7.80918 8.6131 7.80918 8.28686C7.80918 7.78465 8.01 7.28244 8.36182 6.93049L8.35941 6.92889ZM8.28471 16.5713L11.7234 13.1563C12.6271 12.2772 13.1291 10.9964 13.1291 9.71635C13.1291 9.33949 12.9781 8.58658 12.7275 7.85777C12.5018 7.15468 12.1499 6.50141 11.7234 6.50141C11.5475 6.50141 11.0206 6.90317 10.6438 7.32985C10.2173 7.75653 9.8157 8.20892 9.8157 8.38489C9.8157 8.51024 9.8912 8.71113 10.0165 8.91201C10.1418 9.13781 10.2422 9.38931 10.2422 9.71555C10.2173 10.2178 10.0165 10.72 9.66469 11.1217L7.63167 13.1306C7.45576 13.3315 7.25494 13.5323 7.05413 13.7581L6.42679 14.3857C6.00027 14.7875 5.47253 15.0639 4.8452 15.0639C3.79053 15.0639 2.93748 14.2354 2.93748 13.1555C2.93748 12.904 2.98809 12.6782 3.06279 12.5022C3.2138 12.1503 3.36401 11.8996 3.53992 11.6987C3.61542 11.5982 3.64032 11.4978 3.64032 11.4223C3.64032 11.3716 3.61542 11.3218 3.58972 11.2214C3.2885 10.5432 3.11259 9.96545 2.98728 9.26235C2.93668 9.137 2.91178 9.03656 2.83627 8.98594C2.76077 8.8855 2.63546 8.86059 2.51015 8.86059C2.40975 8.86059 2.33424 8.8855 2.23383 8.96103C2.03302 9.08638 1.83221 9.28726 1.6563 9.48815C1.58079 9.58859 1.48039 9.66412 1.43059 9.71394C0.526931 10.6179 0 11.8738 0 13.1539C0 14.4845 0.526931 15.7155 1.43059 16.5938C2.30934 17.4729 3.51421 18 4.84439 18C6.14967 18 7.40515 17.4978 8.2831 16.5689L8.28471 16.5713Z" fill="currentColor"></path>
  </symbol>
  <symbol fill="none" xmlns="http://www.w3.org/2000/svg" viewBox="0 0 16 17" id="ic_location">
    <path d="M8 16C7.26316 16 8.13484 14.8984 4.50221 13.1849C4.30319 13.0908 4.11007 12.986 3.92379 12.8709C2.11632 11.7574 1 9.72093 1 7.52884C1 3.92326 4.13379 1 8 1C11.8662 1 15 3.92326 15 7.52814C15 9.94349 13.6413 12.1726 11.5037 13.1821C7.86737 14.8977 8.73684 16 8 16ZM8 10.1465C9.55547 10.1465 10.8 8.98 10.8 7.56163C10.8 6.14326 9.55547 4.97674 8 4.97674C6.44453 4.97674 5.2 6.14326 5.2 7.56163C5.2 8.98 6.44453 10.1465 8 10.1465Z" fill="currentColor"></path>
  </symbol>
  <symbol fill="none" xmlns="http://www.w3.org/2000/svg" viewBox="0 0 25 24" id="ic_menu">
    <rect x="0.0231934" y="4" width="24" height="2" rx="1" fill="currentColor"></rect>
    <rect x="0.0231934" y="11" width="24" height="2" rx="1" fill="currentColor"></rect>
    <rect x="0.0231934" y="18" width="24" height="2" rx="1" fill="currentColor"></rect>
  </symbol>
  <symbol fill="none" xmlns="http://www.w3.org/2000/svg" viewBox="0 0 16 16" id="ic_reset">
    <path d="M8 0C6.15089 0 4.45008 0.665739 3.10492 1.76565C2.93587 1.90388 2.71943 1.86702 2.61395 1.674L2.30366 1.10625C1.94448 0.447901 0.972813 0.614438 0.844305 1.35623L0.0119266 6.16407C-0.0308604 6.41168 0.0428304 6.66474 0.211219 6.84845C0.392484 7.04634 0.659397 7.13761 0.920976 7.09062L5.63932 6.24218C6.3671 6.1112 6.53049 5.12078 5.8846 4.75467L5.38304 4.47076C5.19357 4.36351 5.17547 4.16198 5.35416 4.03707C6.10545 3.51166 7.01134 3.19999 8 3.19999C9.86832 3.19999 11.4612 4.29597 12.2278 5.88282C12.6104 6.67599 13.5514 7.00269 14.3295 6.6125C15.107 6.22197 15.4268 5.26295 15.0438 4.47031C13.7634 1.81992 11.0785 0 8 0Z" fill="currentColor"></path>
    <path d="M8 16C9.84911 16 11.5499 15.3343 12.8951 14.2343C13.0641 14.0961 13.2806 14.133 13.386 14.326L13.6963 14.8937C14.0555 15.5521 15.0272 15.3856 15.1557 14.6437L15.9881 9.83593C16.0309 9.58832 15.9572 9.33527 15.7888 9.15155C15.6075 8.95366 15.3406 8.86239 15.079 8.90938L10.3607 9.75782C9.6329 9.8888 9.46951 10.8792 10.1154 11.2453L10.617 11.5292C10.8064 11.6365 10.8245 11.838 10.6458 11.9629C9.89455 12.4883 8.98866 12.8 8 12.8C6.13168 12.8 4.53878 11.704 3.77218 10.1172C3.3896 9.32401 2.44858 8.99731 1.67054 9.3875C0.892979 9.77803 0.573198 10.7371 0.956184 11.5297C2.23663 14.1801 4.92147 16 8 16Z" fill="currentColor"></path>
  </symbol>
  <symbol fill="none" xmlns="http://www.w3.org/2000/svg" viewBox="0 0 6 12" id="ic_tooltip">
    <path d="M1.725 5.68746V10.0375H0.5V11.8958H5.5V10.0375H4.29998V3.82915H0.5V5.68752L1.725 5.68746ZM2.05 2.50551C2.24598 2.70266 2.49607 2.8372 2.76858 2.89208C3.04109 2.94697 3.32376 2.91974 3.58078 2.81384C3.8378 2.70794 4.0576 2.52813 4.21234 2.2972C4.36708 2.06626 4.44979 1.7946 4.45 1.51662C4.45272 1.33145 4.41795 1.14764 4.34778 0.976262C4.2776 0.804883 4.17348 0.649476 4.04166 0.519395C3.91093 0.387796 3.75545 0.283355 3.58418 0.212086C3.41292 0.140817 3.22925 0.104126 3.04375 0.104126C2.85825 0.104126 2.67458 0.140817 2.50331 0.212086C2.33205 0.283355 2.17657 0.387796 2.04583 0.519395C1.91294 0.648875 1.80782 0.804079 1.7369 0.975532C1.66598 1.14699 1.63074 1.33109 1.63333 1.51662C1.63145 1.70118 1.66746 1.88418 1.73913 2.05427C1.8108 2.22436 1.9166 2.37795 2.05 2.50551Z" fill="currentColor"></path>
  </symbol>
  <symbol fill="none" xmlns="http://www.w3.org/2000/svg" viewBox="0 0 16 17" id="ic_metro">
    <path d="M11.0632 3.04795L10.9286 3.04772L8.06842 8.63634L5.10534 3L1.04844 13.1822H0V14H5.7437V13.1822H4.60404L5.7437 9.99994L8.06842 14L10.3021 9.99994L11.4416 13.1822H10.3021V14H16V13.1822H15.0129L11.0632 3.04795Z" fill="currentColor"></path>
  </symbol>
  <symbol fill="none" xmlns="http://www.w3.org/2000/svg" viewBox="0 0 16 16" id="ic_path">
    <path d="M1.00116 5.80929C0.984243 6.11163 1.15342 6.39335 1.42852 6.51988L6.94815 9.05185L9.47996 14.5711C9.60059 14.833 9.86245 15 10.1486 15L10.1905 14.9985C10.3381 14.9903 10.4799 14.9377 10.5972 14.8477C10.7145 14.7577 10.8019 14.6344 10.8481 14.4939L14.9636 1.96499C15.0496 1.70164 14.9805 1.41108 14.7848 1.21467C14.5892 1.01826 14.2994 0.951319 14.0346 1.03591L1.50576 5.15239C1.36526 5.19828 1.24189 5.28556 1.15185 5.40278C1.0618 5.52 1.00928 5.6617 1.00116 5.80929Z" fill="currentColor"></path>
  </symbol>
  <symbol fill="none" xmlns="http://www.w3.org/2000/svg" viewBox="0 0 21 20" id="ic_phone">
    <path d="M13.1516 13.466L12.6902 13.9516C12.6902 13.9516 11.5938 15.1058 8.60093 11.9553C5.60811 8.80491 6.70455 7.65071 6.70455 7.65071L6.99504 7.34493C7.71067 6.59164 7.77812 5.38225 7.15377 4.49935L5.87664 2.69328C5.10389 1.60051 3.61069 1.45615 2.72498 2.3885L1.13528 4.06192C0.696105 4.52422 0.401804 5.1235 0.437496 5.7883C0.5288 7.48908 1.25566 11.1484 5.3116 15.4179C9.61272 19.9455 13.6485 20.1255 15.2988 19.9626C15.8208 19.9111 16.2748 19.6297 16.6406 19.2446L18.0794 17.73C19.0506 16.7078 18.7767 14.9551 17.5341 14.24L15.5991 13.1264C14.7832 12.6568 13.7892 12.7947 13.1516 13.466Z" fill="currentColor"></path>
    <path d="M10.8255 0.637805C10.8925 0.223739 11.284 -0.0571417 11.6981 0.00988619C11.7237 0.0147976 11.8063 0.0302102 11.8494 0.0398305C11.9359 0.0590811 12.0564 0.0887014 12.2067 0.132479C12.5073 0.220013 12.9272 0.364226 13.4312 0.595243C14.4403 1.05779 15.783 1.8669 17.1765 3.26011C18.5699 4.65333 19.3791 5.99592 19.8417 7.00481C20.0728 7.50873 20.217 7.92858 20.3045 8.22912C20.3483 8.37941 20.3779 8.49994 20.3972 8.58634C20.4068 8.62955 20.4139 8.66425 20.4188 8.68988L20.4246 8.72147C20.4916 9.1355 20.2133 9.5432 19.7991 9.61023C19.3862 9.67707 18.9972 9.39747 18.9285 8.98542C18.9264 8.97428 18.9205 8.94461 18.9143 8.91656C18.9018 8.86046 18.8802 8.77153 18.846 8.6539C18.7774 8.41863 18.6584 8.06893 18.4607 7.63786C18.0659 6.77678 17.3559 5.58774 16.1022 4.3342C14.8485 3.08067 13.6593 2.37081 12.7981 1.97604C12.3669 1.77841 12.0172 1.6594 11.7818 1.59086C11.6643 1.5566 11.5164 1.52267 11.4603 1.51018C11.0481 1.44149 10.7586 1.05069 10.8255 0.637805Z" fill="currentColor"></path>
    <path fill-rule="evenodd" clip-rule="evenodd" d="M11.0546 4.13094C11.1698 3.72762 11.5902 3.49408 11.9936 3.60931L11.785 4.33959C11.9936 3.60931 11.9936 3.60931 11.9936 3.60931L11.9951 3.60974L12 3.61116L12.0079 3.61351L12.028 3.61975C12.0432 3.62463 12.0623 3.63099 12.085 3.63906C12.1305 3.6552 12.1906 3.67815 12.2644 3.70975C12.4119 3.77298 12.6135 3.87062 12.8612 4.01716C13.3569 4.31051 14.0336 4.79778 14.8287 5.59268C15.6237 6.3876 16.111 7.06424 16.4044 7.5599C16.551 7.80751 16.6486 8.00909 16.7119 8.15662C16.7435 8.23034 16.7665 8.29046 16.7826 8.33593C16.7907 8.35867 16.797 8.37774 16.8019 8.39301L16.8081 8.41305L16.8104 8.4209L16.8114 8.42427L16.8119 8.42583C16.8119 8.42583 16.8124 8.42729 16.0819 8.63593L16.8124 8.42729C16.9276 8.8306 16.694 9.25094 16.2907 9.36618C15.8907 9.48041 15.4739 9.25185 15.3545 8.85482L15.3508 8.8439C15.3454 8.82868 15.3343 8.79873 15.3155 8.75498C15.2781 8.66755 15.2101 8.52453 15.0971 8.33355C14.8712 7.95204 14.4634 7.37559 13.7544 6.66677C13.0455 5.95796 12.4689 5.55016 12.0874 5.32437C11.8964 5.21134 11.7534 5.14339 11.6659 5.10592C11.6221 5.08717 11.5922 5.07599 11.577 5.0706L11.566 5.06686C11.169 4.94749 10.9403 4.53083 11.0546 4.13094Z" fill="currentColor"></path>
  </symbol>
  <symbol fill="none" xmlns="http://www.w3.org/2000/svg" viewBox="0 0 27 22" id="ic_tg">
    <path fill-rule="evenodd" clip-rule="evenodd" d="M23.3288 0.15377C24.736 -0.433079 26.2446 0.745474 25.9961 2.2376L23.0613 19.8618C22.7783 21.5611 20.8939 22.5362 19.3199 21.6893C18.0027 20.9807 16.0485 19.8901 14.2873 18.7503C13.4078 18.1811 10.7149 16.356 11.0459 15.0568C11.3289 13.9459 15.856 9.77209 18.443 7.28989C19.4592 6.31486 18.9964 5.75158 17.7963 6.64932C14.8192 8.87632 10.0395 12.2622 8.45885 13.2151C7.06429 14.0558 6.33616 14.1993 5.46764 14.0558C3.88164 13.7941 2.41124 13.3887 1.21077 12.8959C-0.411758 12.2297 -0.332725 10.0213 1.20967 9.37814L23.3288 0.15377Z" fill="currentColor"></path>
  </symbol>
  <symbol fill="none" xmlns="http://www.w3.org/2000/svg" viewBox="0 0 60 66" id="ic_video_play">
    <path d="M55.3846 25.0605C61.5385 28.5892 61.5385 37.4108 55.3846 40.9395L13.8462 64.7581C7.69231 68.2868 -3.10607e-07 63.8759 0 56.8186L2.09659e-06 9.18145C2.4072e-06 2.1241 7.69231 -2.28675 13.8462 1.24192L55.3846 25.0605Z" fill="currentColor"></path>
  </symbol>
  <symbol fill="none" xmlns="http://www.w3.org/2000/svg" viewBox="0 0 26 18" id="ic_vk">
    <path d="M14.1611 17.5C5.2779 17.5 0.211118 11.1186 0 0.5H4.4497C4.59586 8.2938 7.87624 11.5951 10.4746 12.2758V0.5H14.6646V7.2217C17.2305 6.93241 19.926 3.86937 20.8354 0.5H25.0254C24.3271 4.65216 21.4039 7.71519 19.3253 8.97445C21.4039 9.99547 24.7333 12.6672 26 17.5H21.3877C20.3971 14.2668 17.9288 11.7652 14.6646 11.4249V17.5H14.1611Z" fill="currentColor"></path>
  </symbol>
  <symbol fill="none" xmlns="http://www.w3.org/2000/svg" viewBox="0 0 28 26" id="ic_r">
    <path d="M14.7518 15.6169H4.39307V11.382H14.7518C15.3568 11.382 15.7776 11.4909 15.9887 11.6812C16.1999 11.8715 16.3307 12.2244 16.3307 12.7399V14.2606C16.3307 14.8037 16.1999 15.1567 15.9887 15.3469C15.7776 15.5372 15.3568 15.6185 14.7518 15.6185V15.6169ZM15.4624 7.38939H0V25.5H4.39307V19.6079H12.489L16.3307 25.5H21.25L17.0145 19.5802C18.576 19.3411 19.2772 18.8468 19.8555 18.032C20.4338 17.2172 20.7237 15.9145 20.7237 14.176V12.818C20.7237 11.7869 20.6182 10.9721 20.4338 10.3477C20.2494 9.72314 19.9343 9.17995 19.4868 8.69207C19.0141 8.23018 18.4878 7.90492 17.8559 7.68699C17.2241 7.49671 16.4346 7.38775 15.4624 7.38775V7.38939Z" fill="currentColor"></path>
    <path d="M24.625 7.38775C26.489 7.38775 28 5.84587 28 3.94388C28 2.04188 26.489 0.5 24.625 0.5C22.761 0.5 21.25 2.04188 21.25 3.94388C21.25 5.84587 22.761 7.38775 24.625 7.38775Z" fill="currentColor"></path>
  </symbol>
  <symbol fill="none" xmlns="http://www.w3.org/2000/svg" viewBox="0 0 17 16" id="ic_search">
    <path d="M15.6571 13.8661L13.0996 11.3087C13.9158 10.1446 14.3959 8.72766 14.3982 7.19856C14.4041 3.28293 11.2447 0.064211 7.32957 0.00096092C3.26588 -0.0646954 -0.041502 3.24271 0.0241543 7.30637C0.0874043 11.2215 3.30613 14.3809 7.22176 14.375C8.75085 14.3727 10.1678 13.8926 11.3319 13.0764L13.8893 15.6339C14.3775 16.122 15.169 16.122 15.6571 15.6339C16.1452 15.1457 16.1452 14.3543 15.6571 13.8661ZM7.21069 11.875C4.626 11.875 2.52319 9.77219 2.52319 7.1875C2.52319 4.60281 4.626 2.49999 7.21069 2.49999C9.79538 2.49999 11.8982 4.60281 11.8982 7.1875C11.8982 9.77219 9.79538 11.875 7.21069 11.875Z" fill="currentColor"></path>
  </symbol>
  <symbol fill="none" xmlns="http://www.w3.org/2000/svg" viewBox="0 0 14 14" id="ic_size">
    <path d="M4.375 14H2.8C1.48007 14 0.820099 14 0.410053 13.5899C-4.00543e-08 13.1799 0 12.5199 0 11.2V9.625H2.1C2.38995 9.625 2.625 9.38995 2.625 9.1C2.625 8.81005 2.38995 8.575 2.1 8.575H0V7.525H1.4C1.68995 7.525 1.925 7.28994 1.925 7C1.925 6.71006 1.68995 6.475 1.4 6.475H0V5.425H2.1C2.38995 5.425 2.625 5.18994 2.625 4.9C2.625 4.61006 2.38995 4.375 2.1 4.375H0V3.325H1.4C1.68995 3.325 1.925 3.08994 1.925 2.8C1.925 2.51006 1.68995 2.275 1.4 2.275H5.60761e-05C0.000882076 1.40728 0.014434 0.95368 0.235942 0.62223C0.338086 0.46935 0.469336 0.338099 0.622202 0.23597C0.975317 -9.53674e-07 1.46688 0 2.45 0C3.43312 0 3.92468 -9.53674e-07 4.2778 0.23597C4.43066 0.338099 4.56191 0.46935 4.66406 0.62223C4.9 0.97531 4.9 1.46685 4.9 2.45V7.7C4.9 8.35996 4.9 8.68995 5.10502 8.89498C5.31005 9.1 5.64004 9.1 6.3 9.1H11.55C12.5332 9.1 13.0247 9.1 13.3778 9.33594C13.5307 9.43809 13.6619 9.56934 13.764 9.7222C14 10.0753 14 10.5669 14 11.55C14 12.5331 14 13.0247 13.764 13.3778C13.6619 13.5307 13.5307 13.6619 13.3778 13.7641C13.0463 13.9856 12.5927 13.9991 11.725 13.9999V12.6C11.725 12.3101 11.4899 12.075 11.2 12.075C10.9101 12.075 10.675 12.3101 10.675 12.6V14H9.625V11.9C9.625 11.6101 9.38994 11.375 9.1 11.375C8.81006 11.375 8.575 11.6101 8.575 11.9V14H7.525V12.6C7.525 12.3101 7.28994 12.075 7 12.075C6.71006 12.075 6.475 12.3101 6.475 12.6V14H5.425V11.9C5.425 11.6101 5.18995 11.375 4.9 11.375C4.61005 11.375 4.375 11.6101 4.375 11.9V14Z" fill="currentColor"></path>
  </symbol>
  <symbol fill="none" xmlns="http://www.w3.org/2000/svg" viewBox="0 0 15 15" id="ic_star">
    <path d="M6.72764 0.947287C7.06107 0.350905 7.93893 0.350904 8.27236 0.947286L10.0407 4.11025C10.1672 4.33658 10.3914 4.49542 10.6511 4.54287L14.2814 5.20602C14.9659 5.33106 15.2371 6.14548 14.7587 6.6391L12.2214 9.25707C12.0398 9.4444 11.9542 9.70142 11.9882 9.95707L12.4635 13.5299C12.5531 14.2035 11.8429 14.7069 11.2138 14.4156L7.87726 12.8706C7.63852 12.7601 7.36148 12.7601 7.12274 12.8706L3.78623 14.4156C3.15712 14.7069 2.44691 14.2035 2.53652 13.5299L3.01178 9.95707C3.04579 9.70142 2.96018 9.4444 2.77862 9.25707L0.241286 6.63911C-0.237134 6.14548 0.0341414 5.33106 0.718629 5.20602L4.34887 4.54287C4.60863 4.49542 4.83276 4.33658 4.95929 4.11025L6.72764 0.947287Z" fill="currentColor"></path>
  </symbol>
  <symbol fill="none" xmlns="http://www.w3.org/2000/svg" viewBox="0 0 16 16" id="ic_virtual_tour">
    <path d="M8.11156 3.43662C8.04119 3.41104 7.96121 3.41104 7.89084 3.43662L3.64273 5.01304L8.0028 6.75893L12.3629 5.01304L8.11156 3.43662Z" fill="currentColor"></path>
    <path d="M3.41241 10.5513C3.41241 10.6824 3.49238 10.7975 3.61394 10.8487L7.68291 12.4762V7.31851L3.41241 5.61099V10.5513Z" fill="currentColor"></path>
    <path d="M8.32269 12.4762L12.3885 10.8487C12.51 10.7975 12.59 10.6824 12.59 10.5513V5.61099L8.32269 7.31851V12.4762Z" fill="currentColor"></path>
    <path d="M15.2579 2.57007C15.2579 2.08404 15.0691 1.62358 14.7236 1.27824C14.3782 0.9329 13.9175 0.744242 13.4313 0.744242C12.9771 0.744242 12.5548 0.913715 12.2189 1.21109C9.63103 -0.403697 6.37777 -0.403697 3.78348 1.21109C3.44759 0.913715 3.02534 0.744242 2.5743 0.744242C2.08487 0.744242 1.62423 0.9329 1.27875 1.27824C0.933273 1.62358 0.744539 2.08404 0.744539 2.57007C0.744539 3.02413 0.91408 3.44941 1.21158 3.78516C-0.403859 6.37522 -0.403859 9.62078 1.21158 12.2108C0.910881 12.5466 0.744539 12.9719 0.744539 13.4259C0.744539 13.912 0.933273 14.3724 1.27875 14.7178C1.62423 15.0631 2.08487 15.2518 2.5743 15.2518C3.02534 15.2518 3.44759 15.0823 3.78348 14.7849C5.07902 15.5907 6.53771 16 8.0028 16C9.46469 16 10.9266 15.5907 12.2189 14.7849C12.5644 15.0919 12.9963 15.2518 13.4313 15.2518C13.8983 15.2518 14.3654 15.0727 14.7236 14.7178C15.0691 14.3724 15.2579 13.912 15.2579 13.4259C15.2579 12.9719 15.0883 12.5498 14.7908 12.214C16.4031 9.62398 16.4031 6.37522 14.7908 3.78196C15.0915 3.44622 15.2579 3.02413 15.2579 2.57007ZM14.2854 11.8175C14.0231 11.68 13.7352 11.5969 13.4313 11.5969C12.9419 11.5969 12.4812 11.7856 12.1358 12.1309C11.7903 12.4762 11.6015 12.9367 11.6015 13.4259C11.6015 13.7297 11.6815 14.0175 11.8223 14.2797C9.46789 15.7154 6.53451 15.7154 4.18014 14.2797C4.32089 14.0175 4.40086 13.7297 4.40086 13.4259C4.40086 12.9367 4.21213 12.4762 3.86665 12.1309C3.28445 11.5489 2.41116 11.4498 1.7202 11.8143C0.283901 9.4641 0.283901 6.5287 1.7202 4.17847C1.98251 4.31596 2.27041 4.3959 2.5743 4.3959C3.06053 4.3959 3.52117 4.20724 3.86665 3.8619C4.21213 3.51656 4.40086 3.05611 4.40086 2.56688C4.40086 2.2631 4.32089 1.97532 4.18014 1.71312C6.53451 0.277392 9.46789 0.277392 11.8223 1.71312C11.6815 1.97532 11.6015 2.2631 11.6015 2.56688C11.6015 3.05611 11.7903 3.51656 12.1358 3.8619C12.4812 4.20724 12.9419 4.3959 13.4313 4.3959C13.7352 4.3959 14.0231 4.31596 14.2854 4.17527C15.7217 6.5287 15.7217 9.4641 14.2854 11.8175Z" fill="currentColor"></path>
  </symbol>
  <symbol fill="none" xmlns="http://www.w3.org/2000/svg" viewBox="0 0 17 13" id="ic_views">
    <path d="M16.986 6.37343C16.9726 6.31464 16.9592 6.2818 16.9472 6.25133C16.923 6.19442 16.8999 6.1515 16.8728 6.10278C16.773 5.92775 16.6128 5.69072 16.3932 5.39248C16.0655 4.94811 15.614 4.38509 15.1026 3.82946C14.5907 3.27384 14.0229 2.72672 13.4448 2.31355C12.6272 1.73014 11.8321 1.27649 11.0179 0.968211C10.2043 0.659698 9.37143 0.499499 8.49998 0.500001C7.62854 0.499499 6.79567 0.659698 5.982 0.968244C5.16753 1.27649 4.37278 1.73017 3.55518 2.31331C2.69526 2.92957 1.84851 3.84429 1.19451 4.63876C0.868293 5.03603 0.593339 5.40203 0.39505 5.6875C0.295474 5.83053 0.215654 5.95286 0.154195 6.05615C0.123217 6.10861 0.0972186 6.15545 0.0722499 6.20791C0.0596327 6.23466 0.0475468 6.26221 0.034166 6.30088C0.0275917 6.32047 0.0204863 6.34323 0.0139453 6.37343C0.0076367 6.4039 0.000265624 6.44149 0 6.50002C0.000265624 6.5583 0.0076035 6.59617 0.0139453 6.6266C0.0270605 6.68539 0.0407402 6.71797 0.0527929 6.74867C0.0769647 6.80562 0.100074 6.84854 0.127135 6.89698C0.226943 7.07205 0.387148 7.30931 0.60672 7.60752C0.934235 8.05192 1.38596 8.61518 1.89736 9.17084C2.40925 9.72646 2.97709 10.2733 3.55518 10.6865C4.37278 11.2699 5.16756 11.7233 5.982 12.0318C6.79567 12.3401 7.62854 12.5005 8.49998 12.5C9.37143 12.5005 10.2043 12.3401 11.018 12.0318C11.8322 11.7232 12.6272 11.2699 13.4448 10.6867C14.3047 10.0704 15.1515 9.15574 15.8055 8.36124C16.1317 7.964 16.4067 7.59801 16.6049 7.3125C16.7045 7.16924 16.7843 7.04714 16.8458 6.94359C16.8768 6.89116 16.9028 6.84429 16.9278 6.79209C16.9401 6.76534 16.9525 6.73779 16.9658 6.69885C16.9724 6.67927 16.9795 6.65677 16.9861 6.62657C16.9924 6.5961 16.9997 6.55827 17 6.49998C16.9997 6.44149 16.9924 6.4039 16.986 6.37343ZM8.49998 10.5673C6.27196 10.5673 4.46628 8.74632 4.46628 6.50005C4.46628 4.25428 6.27196 2.43277 8.49998 2.43277C10.728 2.43277 12.5337 4.25428 12.5337 6.50005C12.5337 8.74632 10.728 10.5673 8.49998 10.5673Z" fill="currentColor"></path>
    <path d="M9.50986 6.312C9.29815 6.3512 9.08147 6.27544 8.93989 6.11229C8.79808 5.94864 8.75236 5.72246 8.81933 5.51589L9.082 4.70602C8.89865 4.64562 8.70352 4.61228 8.49995 4.61228C7.46567 4.61228 6.62756 5.45707 6.62756 6.49998C6.62756 7.54287 7.46567 8.38822 8.49995 8.38822C9.53426 8.38822 10.3723 7.54287 10.3723 6.49998C10.3723 6.38294 10.3603 6.26851 10.34 6.15732L9.50986 6.312Z" fill="currentColor"></path>
  </symbol>
  <symbol fill="none" xmlns="http://www.w3.org/2000/svg" viewBox="0 0 25 24" id="ic_whatsapp">
    <path fill-rule="evenodd" clip-rule="evenodd" d="M19.0084 16.9453C18.7192 17.764 17.5696 18.4412 16.6528 18.6393C16.0252 18.7725 15.2068 18.8779 12.4492 17.7352C9.35199 16.452 5.0512 11.8812 5.0512 8.83945C5.0512 7.29099 5.94399 5.48789 7.50519 5.48789C8.25639 5.48789 8.422 5.50254 8.6692 6.09551C8.9584 6.79412 9.664 8.51535 9.748 8.6918C10.0948 9.41561 9.39519 9.83934 8.88759 10.4695C8.72558 10.6592 8.542 10.8643 8.7472 11.2172C8.9512 11.5629 9.65679 12.7129 10.6936 13.6359C12.0328 14.8291 13.1188 15.21 13.5076 15.3721C13.7968 15.4921 14.1424 15.4641 14.3536 15.2385C14.6212 14.9492 14.9536 14.4692 15.292 13.9963C15.5308 13.6578 15.8344 13.6155 16.1524 13.7355C16.3672 13.81 19.0972 15.0778 19.2124 15.2807C19.2976 15.4283 19.2976 16.1267 19.0084 16.9453ZM12.0256 0H12.0196C5.40399 0 0.0231934 5.38242 0.0231934 12C0.0231934 14.624 0.869202 17.0584 2.308 19.033L0.812799 23.492L5.4244 22.0184C7.3216 23.2739 9.58599 24 12.0256 24C18.6412 24 24.0232 18.6176 24.0232 12C24.0232 5.38242 18.6412 0 12.0256 0Z" fill="currentColor"></path>
  </symbol>
</svg>