<svg width="50" height="50" viewBox="0 0 50 50" fill="none" xmlns="http://www.w3.org/2000/svg">
<rect width="50" height="50" rx="10" fill="black" fill-opacity="0.3"/>
<path d="M19.4395 28.4395C20.0252 27.8537 20.9748 27.8537 21.5605 28.4395C22.1463 29.0252 22.1463 29.9748 21.5605 30.5605L15.1211 37H18.6997C19.5281 37 20.1997 37.6716 20.1997 38.5C20.1997 39.3284 19.5281 40 18.6997 40H11.5C10.6716 40 10 39.3284 10 38.5V31.3003C10 30.4719 10.6716 29.8003 11.5 29.8003C12.3284 29.8003 13 30.4719 13 31.3003V34.8789L19.4395 28.4395ZM28.4395 28.4395C28.9886 27.8903 29.8571 27.8564 30.4463 28.3369L30.5605 28.4395L37 34.8789V31.3003C37 30.4719 37.6716 29.8003 38.5 29.8003C39.3284 29.8003 40 30.4719 40 31.3003V38.5C40 39.3284 39.3284 40 38.5 40H31.3003C30.4719 40 29.8003 39.3284 29.8003 38.5C29.8003 37.6716 30.4719 37 31.3003 37H34.8789L28.4395 30.5605L28.3369 30.4463C27.8564 29.8571 27.8903 28.9886 28.4395 28.4395ZM10 18.6997V11.5C10 10.6716 10.6716 10 11.5 10H18.6997C19.5281 10 20.1997 10.6716 20.1997 11.5C20.1997 12.3284 19.5281 13 18.6997 13H15.1211L21.5605 19.4395L21.6631 19.5537C22.1436 20.1429 22.1097 21.0114 21.5605 21.5605C21.0114 22.1097 20.1429 22.1436 19.5537 21.6631L19.4395 21.5605L13 15.1211V18.6997C13 19.5281 12.3284 20.1997 11.5 20.1997C10.6716 20.1997 10 19.5281 10 18.6997ZM40 18.6997C40 19.5281 39.3284 20.1997 38.5 20.1997C37.6716 20.1997 37 19.5281 37 18.6997V15.1211L30.5605 21.5605C29.9748 22.1463 29.0252 22.1463 28.4395 21.5605C27.8537 20.9748 27.8537 20.0252 28.4395 19.4395L34.8789 13H31.3003C30.4719 13 29.8003 12.3284 29.8003 11.5C29.8003 10.6716 30.4719 10 31.3003 10H38.5C39.3284 10 40 10.6716 40 11.5V18.6997Z" fill="white"/>
</svg>
